<svg width="400" height="400" viewBox="0 0 400 400" fill="none" xmlns="http://www.w3.org/2000/svg">
<g clip-path="url(#clip0_301_84)">
<path d="M400 0H0V400H400V0Z" fill="#FBBE49"/>
<path d="M312.522 150.816C302.585 145.043 294.266 136.765 288.629 126.75C274.657 101.927 243.521 84.6509 207.351 84.6509C158.124 84.6509 118.218 116.649 118.218 156.121C118.218 157.332 118.255 158.537 118.33 159.733C119.396 176.905 113.605 193.651 102.606 206.881C97.7024 212.78 94.9141 219.552 94.9141 226.754C94.9141 249.619 123.016 268.154 157.681 268.154C169.537 268.154 180.625 265.985 190.083 262.216C204.358 256.528 220.105 255.801 234.74 260.487C244.062 263.471 254.254 265.116 264.935 265.116C309.281 265.116 345.23 236.772 345.23 201.808C345.23 180.889 332.36 162.342 312.522 150.816Z" fill="#EDE0FE"/>
<path d="M92.3862 281.911H360V283.674H92.3862V281.911Z" fill="#E2D4F4"/>
<path opacity="0.71" d="M110.588 314.048C149.572 314.048 181.176 310.791 181.176 306.774C181.176 302.756 149.572 299.5 110.588 299.5C71.6033 299.5 40 302.756 40 306.774C40 310.791 71.6033 314.048 110.588 314.048Z" fill="#D7C6EB"/>
<path opacity="0.71" d="M319.12 288.43C298.399 288.409 281.499 292.708 280.639 298.117C272.169 296.229 260.369 295.051 247.314 295.037C221.531 295.011 200.626 299.536 200.62 305.145C200.614 310.753 221.51 315.322 247.293 315.349C265.342 315.367 281 313.155 288.771 309.902C293.422 307.955 298.494 307.267 303.502 307.858C308.27 308.421 313.547 308.737 319.099 308.742C340.366 308.764 357.611 304.235 357.616 298.626C357.623 293.017 340.387 288.452 319.12 288.43Z" fill="#E2D4F4"/>
<path d="M268.635 193.348L257.913 193.577L288.022 294.609L302.155 303.615L268.635 193.348Z" fill="#754FA3"/>
<path d="M303.008 205.073L314.336 196.223L344.07 290.03L334.159 297.818L303.008 205.073Z" fill="#9E7BC9"/>
<path d="M289.911 196.223H314.335L303.008 205.073L290.796 203.916L289.911 196.223Z" fill="#DBCEEA"/>
<path d="M334.158 297.817L303.008 205.073L290.795 203.916L319.822 295.87L334.158 297.817Z" fill="#754FA3"/>
<path d="M266.902 189.753L160.57 201.533C160.57 201.533 148.264 203.303 146.897 194.631C145.53 185.958 161.424 185.958 161.424 185.958L265.166 174.099L266.902 189.753Z" fill="#F1E6FF"/>
<path d="M146.997 191.404L265.811 178.551L265.958 179.913L147.145 192.765L146.997 191.404Z" fill="#DBCEEA"/>
<path d="M146.219 194.396L266.121 181.425L266.268 182.786L146.366 195.757L146.219 194.396Z" fill="#DBCEEA"/>
<path d="M147.597 197.153L266.432 184.299L266.58 185.66L147.745 198.516L147.597 197.153Z" fill="#DBCEEA"/>
<path d="M158.437 203.322C157.222 203.322 155.734 203.237 154.203 202.945C149.066 201.965 145.981 199.181 145.281 194.894C144.929 192.737 145.459 190.755 146.814 189.16C150.722 184.563 160.355 184.326 161.852 184.318L269.199 172.468L269.559 175.729L162.034 187.598H161.944C159.3 187.601 151.873 188.27 149.313 191.286C148.571 192.161 148.318 193.139 148.518 194.366C149.663 201.377 160.722 199.924 160.833 199.908L160.885 199.902L271.002 188.123L271.351 191.385L161.255 203.161C161.053 203.188 159.961 203.322 158.437 203.322Z" fill="#2A0C4F"/>
<path d="M147.092 301.323L175.85 202.561C175.897 202.4 176.006 202.264 176.153 202.183C176.3 202.103 176.473 202.084 176.634 202.13L197.001 208.061C197.162 208.108 197.298 208.217 197.379 208.364C197.46 208.511 197.478 208.684 197.432 208.845L168.674 307.607C168.628 307.768 168.518 307.904 168.371 307.985C168.224 308.065 168.051 308.084 167.89 308.038L147.523 302.107C147.443 302.084 147.369 302.045 147.304 301.993C147.239 301.941 147.185 301.877 147.145 301.804C147.105 301.732 147.08 301.652 147.07 301.569C147.062 301.487 147.069 301.403 147.092 301.323Z" fill="#402363"/>
<path d="M164.648 167.281L278.251 154.993C278.334 154.983 278.417 154.991 278.497 155.014C278.577 155.038 278.651 155.076 278.716 155.129C278.78 155.18 278.834 155.245 278.874 155.318C278.914 155.39 278.939 155.47 278.948 155.553L280.581 170.65C280.59 170.733 280.583 170.817 280.559 170.896C280.536 170.976 280.497 171.05 280.445 171.115C280.393 171.18 280.329 171.233 280.255 171.273C280.183 171.313 280.103 171.338 280.02 171.348L166.417 183.636C166.335 183.644 166.251 183.637 166.172 183.614C166.092 183.59 166.017 183.552 165.953 183.5C165.888 183.447 165.834 183.383 165.794 183.31C165.754 183.237 165.729 183.157 165.72 183.075L164.087 167.978C164.069 167.811 164.118 167.644 164.223 167.513C164.329 167.382 164.481 167.299 164.648 167.281Z" fill="#7653A0"/>
<path d="M237.222 159.43L238.941 175.791L241.888 175.472L240.002 159.13L237.222 159.43Z" fill="#402363"/>
<path d="M303.008 205.073L290.796 203.916L291.061 203.347L303.008 204.453L313.229 196.621H290.309L289.911 196.223H314.335L303.008 205.073Z" fill="#754FA3"/>
<path d="M302.414 304.469L268.675 193.48C268.651 193.401 268.643 193.317 268.651 193.235C268.659 193.152 268.683 193.071 268.723 192.999C268.762 192.925 268.815 192.86 268.879 192.807C268.943 192.755 269.017 192.715 269.097 192.691L289.393 186.522C289.473 186.498 289.555 186.489 289.638 186.497C289.721 186.505 289.801 186.53 289.875 186.569C289.948 186.607 290.013 186.661 290.065 186.725C290.118 186.789 290.158 186.863 290.182 186.943L323.921 297.932C323.945 298.011 323.953 298.095 323.945 298.177C323.937 298.26 323.913 298.34 323.874 298.414C323.835 298.487 323.782 298.552 323.717 298.604C323.653 298.658 323.579 298.697 323.499 298.721L303.203 304.89C303.043 304.939 302.87 304.922 302.722 304.843C302.574 304.764 302.463 304.63 302.414 304.469Z" fill="#9166BC"/>
<path d="M145.694 308.482H57.0423C56.4497 308.482 55.9692 308.001 55.9692 307.408V281.81C55.9692 281.218 56.4497 280.738 57.0423 280.738H145.694C146.286 280.738 146.767 281.218 146.767 281.81V307.408C146.767 308.001 146.286 308.482 145.694 308.482Z" fill="#BDA7D2"/>
<path d="M68.8457 280.738H71.2352V308.482H68.8457V280.738ZM131.103 280.738H135.483V308.482H131.103V280.738ZM72.4298 280.738H74.8194V308.482H72.4298V280.738ZM127.254 280.738H129.643V308.482H127.254V280.738Z" fill="#754FA3"/>
<path d="M62.8281 263.736H148.493V277.719H62.8281V263.736Z" fill="white"/>
<path d="M62.8281 267.179H148.493V268.772H62.8281V267.179ZM62.8281 270.1H148.493V271.692H62.8281V270.1ZM62.8281 273.02H148.493V274.612H62.8281V273.02Z" fill="#DBCEEA"/>
<path d="M150.484 280.652H64.8589C62.4729 280.652 60.5317 278.711 60.5317 276.324V266.059C60.5317 263.673 62.4729 261.732 64.8589 261.732H150.483V264.819H64.8589C64.1754 264.819 63.6194 265.375 63.6194 266.059V276.324C63.6194 277.008 64.1754 277.564 64.8589 277.564H150.483V280.652H150.484Z" fill="#754FA3"/>
<path d="M257.913 193.577L268.636 193.348L289.911 187.032L289.616 186.311L268.849 192.683L257.58 192.801L257.913 193.577Z" fill="#1F1F23"/>
<path d="M170.95 219.352L192.554 225.645L190.385 233.095L168.78 226.801L170.95 219.352Z" fill="#9E7BC9"/>
<path d="M168.224 228.712L189.828 235.004L189.371 236.574L167.767 230.281L168.224 228.712Z" fill="#402363"/>
<path d="M276.564 205.416L291.936 200.369L292.446 201.921L277.074 206.969L276.564 205.416Z" fill="#402363"/>
<path d="M277.478 208.225L292.85 203.178L293.359 204.731L277.988 209.778L277.478 208.225Z" fill="#402363"/>
<path d="M301.362 290.457L316.734 285.41L317.244 286.963L301.872 292.01L301.362 290.457Z" fill="#402363"/>
<path d="M302.275 293.267L317.647 288.22L318.157 289.772L302.785 294.82L302.275 293.267Z" fill="#402363"/>
<path d="M154.016 291.252L169.549 295.777L169.092 297.346L153.559 292.821L154.016 291.252Z" fill="#9E7BC9"/>
<path d="M153.182 294.086L168.715 298.611L168.258 300.18L152.725 295.655L153.182 294.086Z" fill="#9E7BC9"/>
<path d="M270.98 277.153C270.98 277.153 265.625 274.498 265.228 273.835C264.829 273.171 264.298 272.286 264.254 271.135C264.209 269.986 261.908 269.012 261.908 269.012C261.908 269.012 260.802 268.613 260.05 267.109C260.05 267.109 258.59 267.198 259.209 268.835C259.829 270.472 261.908 275.738 261.908 275.738C261.908 275.738 263.658 274.939 265.018 276.688C266.377 278.436 270.98 282.596 270.98 282.596V277.153Z" fill="#FAAEAE"/>
<path d="M259.209 268.835C259.209 268.835 264.121 271.623 264.77 275.162C265.419 278.702 270.286 279.823 270.286 279.823L269.516 281.247C269.516 281.247 266.732 278.77 264.556 276.199C264.556 276.199 263.603 275.327 262.823 276.047C262.043 276.768 258.785 270.452 259.209 268.835ZM226.775 291.519C226.775 291.519 223.531 299.248 221.584 300.31C219.637 301.372 212.705 304.1 212.705 304.1C212.705 304.1 216.864 308.643 225.713 303.924C225.713 303.924 225.713 302.463 225.903 300.782C226.118 298.88 231.436 296.18 232.617 294.056C233.796 291.932 226.775 291.519 226.775 291.519Z" fill="#F18080"/>
<path d="M209.133 306.183C208.875 305.649 208.909 304.901 209.251 304.765C209.726 304.577 211.413 303.928 212.365 303.705C213.318 303.482 214.789 303.373 214.251 303.532C213.714 303.69 214.497 304.673 215.343 304.746C218.263 305.001 220.663 303.674 222.37 303.556C224.833 303.386 225.736 301.153 225.903 300.782C226.314 301.086 227.53 303.143 227.645 303.774C227.749 304.344 227.932 305.385 227.658 305.925C227.468 306.298 227.06 307.046 227.069 307.892C227.069 307.892 226.55 308.131 225.271 308.174C224.463 308.202 223.425 307.94 223.425 307.94V306.649C223.425 306.649 222.781 306.537 221.932 306.565C221.084 306.593 220.037 306.975 219.525 307.315C219.124 307.582 218.701 308.03 218.228 308.134C216.861 308.437 215.879 308.524 214.393 308.39C211.263 308.109 209.573 307.094 209.133 306.183Z" fill="#2E1647"/>
<path d="M224.121 291.74C224.121 291.74 220.876 299.469 218.929 300.531C216.982 301.593 210.049 304.322 210.049 304.322C210.049 304.322 214.209 308.864 223.059 304.145C223.059 304.145 223.059 302.685 223.249 301.004C223.463 299.101 228.782 296.401 229.961 294.278C231.142 292.153 224.121 291.74 224.121 291.74Z" fill="#FAAEAE"/>
<path d="M206.478 306.404C206.22 305.87 206.254 305.122 206.596 304.986C207.071 304.798 208.757 304.149 209.71 303.927C210.663 303.703 212.134 303.595 211.596 303.753C211.059 303.911 211.842 304.894 212.688 304.967C215.609 305.223 218.008 303.895 219.715 303.777C222.177 303.607 223.081 301.374 223.249 301.003C223.66 301.308 224.876 303.364 224.99 303.995C225.094 304.565 225.277 305.606 225.003 306.147C224.813 306.519 224.405 307.268 224.413 308.113C224.413 308.113 223.895 308.353 222.617 308.396C221.808 308.423 220.769 308.161 220.769 308.161V306.87C220.769 306.87 220.125 306.758 219.277 306.786C218.429 306.815 217.382 307.196 216.87 307.537C216.469 307.803 216.046 308.251 215.573 308.356C214.206 308.658 213.225 308.745 211.738 308.612C208.607 308.33 206.918 307.316 206.478 306.404Z" fill="#1F1F23"/>
<path d="M259.985 244.93C259.985 244.93 259.823 247.668 260.548 249.359C260.548 249.359 260.732 251.023 259.97 251.988C259.207 252.955 260.79 253.009 261.89 252.74C261.89 252.74 262.642 252.901 262.91 254.431C263.178 255.961 265.004 257.652 265.916 257.223C266.828 256.793 270.935 254.458 271.928 255.129C272.921 255.8 277.913 261.087 277.913 261.087C277.913 261.087 282.073 261.999 282.1 259.396L281.804 258.296C281.804 258.296 277.591 254.404 277.296 252.472C277.001 250.54 278.96 246.191 276.625 244.93C274.29 243.668 267.876 243.239 267.876 243.239L259.985 244.93Z" fill="#FAAEAE"/>
<path d="M272.604 244.913C272.604 244.913 277.236 246.299 270.935 253.089C270.935 253.089 277.591 252.874 278.128 247.828C278.665 242.783 272.604 244.913 272.604 244.913Z" fill="#32154C"/>
<path d="M276.347 259.447C276.347 259.447 281.246 260.508 280.096 256.583L282.569 258.9C282.569 258.9 281.429 261.396 279.382 261.557L277.192 260.329L276.347 259.447Z" fill="#F18080"/>
<path d="M262.36 247.116C262.36 247.116 256.12 246.661 258.576 240.743C261.031 234.826 266.426 235.912 266.426 235.912C266.426 235.912 259.421 244.914 262.36 247.116Z" fill="#32154C"/>
<path d="M260.91 239.294C260.91 239.294 256.723 246.5 263.366 246.621C270.009 246.742 270.532 248.956 270.532 248.956C270.532 248.956 268.854 245.622 271.599 244.97C274.344 244.319 276.691 247.869 276.329 250.284C275.967 252.7 273.713 253.546 273.713 253.546C273.713 253.546 278.665 256.364 280.556 250.003C282.449 243.642 277.376 236.114 270.734 235.469C264.091 234.826 260.91 239.294 260.91 239.294Z" fill="#402363"/>
<path d="M242.086 281.977C242.086 281.977 237.661 292.773 230.758 297.375L228.369 295.45L239.165 278.968L242.086 281.977Z" fill="#2E1647"/>
<path d="M239.342 280.737C239.342 280.737 260.315 303.835 269.962 304.985C279.608 306.136 284.21 301.004 285.98 294.366C287.75 287.729 239.342 269.676 239.342 269.676C239.342 269.676 235.227 267.551 232.263 273.304C228.702 280.212 223.059 292.153 223.059 292.153C223.059 292.153 226.599 295.34 229.165 296.047C229.165 296.047 238.811 286.136 239.342 280.737Z" fill="#402363"/>
<path d="M237.838 277.861V278.967L248.855 286.755C248.855 286.755 254.404 282.95 261.21 283.127L264.652 273.582L253.927 264.587L250.537 266.401L247.811 273.784L237.838 277.861Z" fill="#754FA3"/>
<path d="M272.204 287.788C272.204 287.788 280.051 292.271 280.404 297.05C280.759 301.829 274.168 304.691 261.209 300.782C261.209 300.782 268.181 307.667 278.009 304.217C278.009 304.217 284.476 302.242 285.98 294.366L274.366 285.782L272.204 287.788Z" fill="#2E1647"/>
<path d="M261.06 273.582L263.413 273.348L259.708 282.596C259.708 282.596 255.67 281.888 249.254 285.782L248.855 283.127L255.666 278.083L261.06 273.582Z" fill="#CCA8A8"/>
<path d="M246.953 273.171L249.917 265.207L261.06 273.582L257.351 280.605L246.953 273.171Z" fill="#FCF5F5"/>
<path d="M237.617 275.287L246.953 273.171L257.351 280.605C257.351 280.605 251.333 281.313 248.855 283.127L237.617 275.287Z" fill="white"/>
<path d="M249.918 265.207L253.059 264.897L263.413 273.348L261.06 273.582L249.918 265.207ZM249.254 285.782L237.838 277.861L237.617 275.287L248.855 283.127L249.254 285.782Z" fill="#DBCEEA"/>
<path d="M276.839 260.228C276.839 260.228 280.625 261.092 281.201 259.808C281.776 258.525 281.909 257.994 281.909 257.994C281.909 257.994 284.033 256.799 287.175 264.41C290.316 272.02 288.812 286.888 287.794 289.145C286.776 291.402 287.086 292.552 287.529 294.1C287.971 295.65 285.05 296.047 283.812 294.322C282.572 292.596 273.59 287.109 273.59 287.109L278.812 278.171L273.812 276.688L272.13 283.215L269.284 281.918C269.284 281.918 270.36 279.366 269.519 277.684C268.679 276.003 274.21 268.614 274.652 266.047C275.095 263.481 274.646 261.932 276.839 260.228Z" fill="#402363"/>
<path d="M273.325 275.826C273.325 275.826 277.513 277.905 279.246 277.33C279.246 277.33 275.811 286.325 274.281 287.536C272.75 288.747 271.245 288.924 267.528 286.888C263.811 284.852 255.36 280.207 255.36 280.207C255.36 280.207 251.422 280.03 249.43 279.189C249.43 279.189 247.838 279.012 246.244 277.994C246.244 277.994 244.032 276.092 249.209 276.932C254.386 277.773 267.503 280.092 271.766 282.918C271.766 282.918 272.971 280.207 273.325 275.826Z" fill="#FAAEAE"/>
<path d="M250.714 275.45C250.714 275.45 251.334 276.865 253.391 277.839C255.449 278.812 250.913 277.729 250.913 277.729C250.913 277.729 250.139 276.755 250.36 275.826C250.581 274.897 250.714 275.45 250.714 275.45Z" fill="#FAAEAE"/>
<path d="M250.569 277.157L251.732 277.308C251.732 277.308 250.498 276.984 250.4 275.671C250.4 275.671 250.121 276.335 250.569 277.157ZM246.761 278.245C246.761 278.245 248.502 278.894 249.165 278.864C249.829 278.835 254.726 279.69 255.316 279.97C255.905 280.251 257.204 281.22 257.204 281.22L255.36 280.207C255.36 280.207 251.481 280.059 249.431 279.189C249.431 279.189 247.469 278.953 246.761 278.245Z" fill="#F18080"/>
<path d="M274.063 269.941L272.705 275.287L273.325 275.826C273.325 275.826 273.158 279.552 271.766 282.918L271.379 282.683L272.595 278.481C272.913 277.622 272.725 276.454 272.455 275.578C272.329 275.169 272.3 274.708 272.569 273.982L274.063 269.941ZM281.82 272.02C281.743 271.717 280.493 277.065 280.493 277.065L279.247 277.33C279.247 277.33 276.431 285.351 274.281 287.536C274.281 287.536 277.467 289.189 278.051 290.119C278.051 290.119 275.683 286.756 280.609 279.115C280.609 279.115 282.44 274.455 281.82 272.02Z" fill="#673589"/>
<path d="M206.292 138.711L207.531 140.979C207.531 140.979 208.184 140.702 208.04 140.006C207.896 139.309 207.799 138.639 207.799 138.639L206.292 138.711Z" fill="#F18080"/>
<path d="M207.609 127.55L213.996 124.673L216.989 135.828L209.069 138.877L207.609 127.55Z" fill="#B3AFD3"/>
<path d="M205.573 127.638L208.375 138.46L213.996 133.257L209.998 122.122L205.573 127.638Z" fill="#EAE8FF"/>
<path d="M199.497 126.989L197.49 128.287L201.06 139.526L203.036 137.402L199.497 126.989Z" fill="#B3AFD3"/>
<path d="M218.715 147.838C218.715 147.838 215.263 145.78 214.202 141.532C213.14 137.284 211.9 135.16 211.9 135.16L210.839 136.142C210.839 136.142 210.042 134.894 209.732 137.373C209.423 139.851 208.519 142.726 210.652 144.32C212.786 145.913 214.378 149.187 214.378 149.187L218.715 147.838Z" fill="#FAAEAE"/>
<path d="M209.49 138.986C209.49 138.986 210.772 141.548 209.987 143.664L211.725 145.293C211.725 145.293 213.316 147.174 214.378 149.187C215.441 151.201 214.976 148.413 214.976 148.413C214.976 148.413 210.617 143.966 210.993 142.174C211.369 140.382 209.573 138.46 209.573 138.46L209.49 138.986Z" fill="#F18080"/>
<path d="M175.75 151.755C175.75 151.755 174.452 149.661 173.862 147.839C173.862 147.839 173.921 156.281 170.558 160.825C170.558 160.825 169.865 163.081 169.406 163.789C168.182 165.679 170.201 166.311 170.201 166.311C170.201 166.311 155 170.849 157.478 167.039C157.478 167.039 167.254 165.426 167.195 157.815C167.136 150.205 168.08 139.698 170.853 138.639C173.626 137.58 178.051 140.028 184.009 149.187L175.75 151.755Z" fill="#FAAEAE"/>
<path d="M183.272 134.408C183.272 134.408 183.537 139.585 184.82 142.373C186.104 145.161 191.104 139.652 191.104 139.652L189.334 130.337C189.334 130.337 188.803 126.178 182.254 128.656C175.705 131.134 160.882 135.757 160.882 135.757C160.882 135.757 160.041 136.576 150.395 136.532C140.749 136.488 160.174 142.063 160.174 142.063C160.174 142.063 160.971 138.604 163.404 138.409C165.838 138.214 175.971 140.204 183.272 134.408ZM235.352 123.788C235.352 123.788 232.697 127.019 231.679 129.364C230.662 131.709 227.166 131.665 227.166 131.665C227.166 131.665 227.387 133.036 228.803 133.877C228.803 133.877 229.422 134.319 228.405 136.488C227.387 138.656 229.777 141.709 231.857 141.886C231.857 141.886 232.033 144.364 228.891 145.913C228.891 145.913 230.573 148.921 233.626 147.417C233.626 147.417 235.264 143.346 236.679 143.036C238.095 142.727 242.299 143.125 244.202 138.745C246.105 134.364 248.139 127.904 244.423 126.62C240.706 125.337 235.352 123.788 235.352 123.788Z" fill="#FAAEAE"/>
<path d="M240.131 128.833C240.131 128.833 242.343 134.21 238.583 135.814C238.583 135.814 245.264 133.169 243.317 138.435C243.317 138.435 242.786 140.614 238.583 142.799C238.583 142.799 242.476 144.895 246.99 140.116C251.503 135.337 250.928 132.417 250.928 132.417L240.131 128.833Z" fill="#2A0C4F"/>
<path d="M261.665 144.281L241.062 146.895C241.062 146.895 238.678 147.276 238.387 145.596C238.094 143.917 241.179 143.868 241.179 143.868L261.28 141.247L261.665 144.281Z" fill="white"/>
<path d="M238.399 144.964L261.422 142.104L261.455 142.367L238.432 145.228L238.399 144.964Z" fill="#DBCEEA"/>
<path d="M238.257 145.547L261.491 142.66L261.524 142.924L238.29 145.811L238.257 145.547Z" fill="#DBCEEA"/>
<path d="M238.534 146.078L261.561 143.218L261.593 143.482L238.566 146.342L238.534 146.078Z" fill="#DBCEEA"/>
<path d="M240.576 147.419C239.535 147.419 238.161 147.063 237.912 145.682C237.828 145.215 237.938 144.783 238.227 144.431C239.01 143.48 240.917 143.393 241.245 143.385L262.037 140.756L262.158 141.713L241.315 144.349H241.288C240.604 144.361 239.37 144.561 238.972 145.044C238.862 145.178 238.828 145.322 238.862 145.511C239.076 146.705 241.064 146.419 241.084 146.416L262.436 143.789L262.554 144.747L241.216 147.372C241.031 147.401 240.812 147.419 240.576 147.419Z" fill="#1F1F23"/>
<path d="M237.24 147.805L258.844 145.122L259.308 148.854L237.704 151.538L237.24 147.805Z" fill="#754FA3"/>
<path d="M238.313 153.351L259.918 150.668L260.669 156.717L239.065 159.402L238.313 153.351Z" fill="#9E7BC9"/>
<path d="M241.141 151.073L264.417 148.181L264.653 150.079L241.377 152.971L241.141 151.073Z" fill="#1F1F23"/>
<path d="M175.041 151.208C175.041 151.208 177.992 145.839 182.948 145.898L184.717 147.839C184.717 147.839 183.537 142.004 183.596 139.998C183.596 139.998 188.552 137.874 191.266 138.936C191.266 138.936 193.685 149.501 198.995 151.208C205.886 153.423 197.756 163.69 197.756 163.69C197.756 163.69 184.041 168.283 179.054 159.349C174.875 151.865 175.041 151.208 175.041 151.208Z" fill="#402363"/>
<path d="M177.637 156.768C177.637 156.768 187.166 166.444 197.52 161.4L197.194 163.86C197.194 163.86 182.667 169.261 177.637 156.768Z" fill="#673589"/>
<path d="M230.131 145.135C230.131 145.135 230.737 147.485 233.863 146.868C233.863 146.868 233.27 157.791 220.588 160.471C220.588 160.471 209.612 163.279 197.341 164.293C197.341 164.293 193.803 154.614 197.814 150.58C197.814 150.58 208.022 151.195 215.986 147.839C223.951 144.482 230.131 145.135 230.131 145.135Z" fill="#9E7BC9"/>
<path d="M212.122 139.652C212.122 139.652 210.662 137.986 210.839 136.142L211.255 135.757L212.122 139.652Z" fill="#F18080"/>
<path d="M189.068 151.223C189.068 151.223 186.487 149.779 184.717 147.839L184.281 145.516C184.281 145.516 187.298 150.559 189.068 151.223Z" fill="#673589"/>
<path d="M173.862 147.839C173.862 147.839 172.8 145.951 172.829 145.084C172.829 145.084 173.537 153.656 170.558 160.825C170.558 160.825 173.891 156.711 173.862 147.839ZM183.566 131.65C183.566 131.65 183.185 133.27 183.272 134.408C183.272 134.408 181.674 135.553 181.176 135.828C181.176 135.828 181.886 134.069 183.566 131.65Z" fill="#F18080"/>
<path d="M159.595 136.11C159.595 136.11 159.808 138.53 162.248 138.792C162.248 138.792 160.916 142.134 160.921 143.16C160.927 144.187 146.723 139.635 146.723 139.635C146.723 139.635 144.289 138.298 145.705 136.11H159.595ZM166.81 160.825C166.81 160.825 168.182 162.83 170.437 161.863C170.437 161.863 170.914 165.428 171.421 166.321C171.929 167.213 157.316 170.205 157.316 170.205C157.316 170.205 154.54 170.231 154.702 167.631L166.81 160.825Z" fill="#402363"/>
<path d="M201.061 139.527L202.653 137.58C202.653 137.58 206.282 136.685 208.376 138.46L208.229 139.29C208.229 139.29 207.668 138.228 201.061 139.527Z" fill="#9894BF"/>
<path d="M205.573 127.638L208.376 138.46C208.376 138.46 204.215 137.347 201.766 138.409L199.083 126.665C199.083 126.665 203.361 125.691 205.573 127.638Z" fill="#DBCEEA"/>
<path d="M206.857 143.256C206.857 143.256 206.134 148.612 203.302 152.801C200.47 156.989 198.465 161.598 201.591 162.535C204.716 163.472 214.57 162.358 221.296 159.468C221.296 159.468 217.933 154.689 218.523 151.62C218.523 151.62 212.596 155.868 206.857 157.521C206.857 157.521 209.615 150.9 209.791 144.24C209.791 144.24 210.794 142.063 209.666 139.408C208.537 136.753 208.692 136.289 208.692 136.289C208.692 136.289 207.919 135.913 207.83 137.948C207.741 139.983 207.698 140.603 207.698 140.603C207.698 140.603 207.622 141.196 206.801 138.895C206.758 138.774 204.995 138.94 204.995 138.94C204.995 138.94 206.881 142.105 206.857 143.256Z" fill="#FAAEAE"/>
<path d="M208.564 152.258C208.564 152.258 205.603 157.845 204.394 158.258L206.858 157.521C206.858 157.521 208.516 153.132 208.564 152.258ZM217.842 152.089C217.842 152.089 217.05 155.687 218.346 157.904C219.644 160.121 212.034 162.124 212.034 162.124C212.034 162.124 219.349 160.765 221.296 159.468C221.296 159.468 217.874 154.689 218.524 151.621L217.842 152.089Z" fill="#F18080"/>
<path d="M217.236 152.488L218.524 151.621V151.002L222.83 149.187L208.129 153.919L206.857 157.521C206.857 157.521 214.528 154.859 217.236 152.488ZM232.52 151.621C230.335 155.476 225.703 157.549 225.412 157.677L225.406 157.679L225.397 157.684L221.296 159.468L221.119 159.084L213.154 161.916C213.154 161.916 224.76 161.136 229.143 156.35C231.511 154.116 232.52 151.621 232.52 151.621Z" fill="#6058A8"/>
<path d="M237.874 113.302C237.874 113.302 229.821 117.24 236.193 126.089C242.565 134.939 250.131 136.045 250.131 136.045C250.131 136.045 254.512 132.948 250.131 127.417C245.751 121.886 235.927 125.691 237.874 113.302Z" fill="#402363"/>
<path d="M178.172 167.95L179.447 181.181L178.486 181.274L177.211 168.042L178.172 167.95Z" fill="#402363"/>
<path d="M176.633 170.175L177.549 179.689L176.588 179.781L175.672 170.268L176.633 170.175Z" fill="#9E7BC9"/>
<path d="M174.895 170.337L175.812 179.851L174.851 179.944L173.935 170.43L174.895 170.337Z" fill="#9E7BC9"/>
<path d="M103.056 259.879C103.056 259.879 92.6856 259.906 93.6296 262.975C94.5736 266.042 104.603 263.682 104.603 263.682C104.603 263.682 104.539 259.662 103.056 259.879Z" fill="#402363"/>
<path d="M95.0508 261.033C95.0508 261.033 101.703 260.076 102.465 262.02C102.465 262.02 103.06 263.014 102.917 264.022L105.43 263.436L103.305 259.366C103.305 259.366 96.2486 260.228 95.0508 261.033Z" fill="#673589"/>
<path d="M101.713 206.012C101.713 206.012 98.763 220.791 108.141 222.42C108.141 222.42 109.383 228.106 106.786 228.46C104.191 228.815 112.746 232.413 114.515 228.756C114.515 228.756 111.683 224.625 113.748 219.905C114.516 218.15 115.48 216.983 116.388 216.208C119.011 213.97 119.231 209.924 116.82 207.458C116.742 207.377 116.662 207.299 116.58 207.221C113.276 204.095 101.713 206.012 101.713 206.012Z" fill="#FAAEAE"/>
<path d="M107.998 227.567C107.998 227.567 109.365 229.879 111.628 228.731L113.89 227.583L115.872 229.38C115.872 229.38 112.893 233.628 110.445 232.714C107.996 231.799 106.26 229.441 107.998 227.567Z" fill="#F18080"/>
<path d="M113.984 227.789C113.984 227.789 118.409 229.11 121.535 229.463C124.663 229.817 126.432 235.423 127.14 239.139C127.848 242.856 130.68 250.467 129.205 251.883C127.73 253.299 110.303 257.959 110.303 257.959L93.6299 253.652C93.6299 253.652 96.0488 239.316 98.4677 233.711C98.4677 233.711 99.1804 230.466 101.273 229.817C103.364 229.169 107.657 228.036 107.657 228.036C107.657 228.036 108.305 230.485 110.303 230.383C110.303 230.383 113.379 230.849 113.984 227.789Z" fill="#402363"/>
<path d="M103.056 259.879L103.659 264.213C103.659 264.213 118.481 265.924 129.625 260.26C140.63 254.667 138.409 247.796 126.705 251.097C126.41 251.18 126.124 251.289 125.845 251.415C123.688 252.393 113.379 256.969 103.056 259.879Z" fill="#1A144C"/>
<path d="M103.056 259.1L103.17 260.7C103.17 260.7 116.503 257.884 120.457 253.735C120.457 253.735 107.364 258.746 103.056 259.1Z" fill="#100C30"/>
<path d="M107.317 255.234C107.317 255.234 114.102 251.636 116.698 251.812C119.294 251.99 119.707 255.116 112.273 257.476C104.839 259.836 104.721 257.772 107.317 255.234Z" fill="#402363"/>
<path d="M101.273 236.661C101.273 236.661 99.765 244.685 99.8836 248.52L102.303 249.346C102.303 249.346 101.186 247.635 101.273 236.661ZM121.004 237.133C121.004 237.133 124.013 245.629 123.66 248.697L120.356 249.936C120.356 249.936 123.247 247.222 121.004 237.133Z" fill="#1A1549"/>
<path d="M92.0958 245.924C92.0958 245.924 104.721 245.039 107.435 252.827L91.978 249.936L92.0958 245.924Z" fill="#DBCEEA"/>
<path d="M91.9781 249.936L107.436 252.827V254.369L91.7417 251.234L91.9781 249.936Z" fill="#754FA3"/>
<path d="M107.435 252.827L120.907 248.371L121.358 249.936L107.317 254.655L107.435 252.827Z" fill="#754FA3"/>
<path d="M107.436 252.827C107.436 252.827 108.202 243.682 118.645 242.266L119.334 247.546L107.436 252.827Z" fill="#A6A2CC"/>
<path d="M119.589 245.334L120.457 248.52L107.436 252.827C107.436 252.827 111.447 247.281 119.589 245.334Z" fill="#DBCEEA"/>
<path d="M105.311 217.798H101.772C100.982 217.798 100.34 217.156 100.34 216.366V215.54C100.34 214.751 100.982 214.108 101.772 214.108H105.311C106.101 214.108 106.743 214.751 106.743 215.54V216.366C106.743 217.156 106.101 217.798 105.311 217.798ZM101.772 214.494C101.195 214.494 100.725 214.964 100.725 215.54V216.366C100.725 216.943 101.195 217.412 101.772 217.412H105.311C105.888 217.412 106.357 216.943 106.357 216.366V215.54C106.357 214.964 105.888 214.494 105.311 214.494H101.772ZM113.012 217.914H109.471C108.682 217.914 108.04 217.272 108.04 216.482V215.657C108.04 214.867 108.682 214.225 109.471 214.225H113.012C113.801 214.225 114.444 214.867 114.444 215.657V216.482C114.444 217.272 113.801 217.914 113.012 217.914ZM109.471 214.61C108.895 214.61 108.426 215.08 108.426 215.657V216.482C108.426 217.059 108.895 217.529 109.471 217.529H113.012C113.589 217.529 114.058 217.06 114.058 216.482V215.657C114.058 215.08 113.589 214.61 113.012 214.61H109.471Z" fill="#1F1F23"/>
<path d="M108.073 215.766C107.913 215.531 107.723 215.399 107.51 215.373C107.09 215.323 106.683 215.68 106.679 215.684L106.421 215.396C106.443 215.377 106.955 214.918 107.553 214.99C107.883 215.029 108.165 215.216 108.392 215.547L108.073 215.766Z" fill="#1F1F23"/>
<path d="M107.657 228.036C107.657 228.036 108.747 228.531 110.304 230.383C110.304 230.383 106.759 231.415 106.405 234.07C106.406 234.07 105.342 230.207 107.657 228.036ZM113.984 227.789C113.984 227.789 112.169 229.887 110.304 230.383C110.304 230.383 113.807 232.119 114.81 234.301C114.81 234.301 115.99 229.36 113.984 227.789Z" fill="#D2A7A7"/>
<path d="M121.476 211.071C121.476 209.984 120.854 209.044 119.946 208.583C120.597 208.105 121.004 207.431 121.004 206.681C121.004 205.522 120.032 204.54 118.685 204.193C118.676 203.627 118.395 203.137 117.981 202.874C117.99 202.806 117.995 202.739 117.995 202.67C117.995 201.415 116.57 200.398 114.811 200.398C113.98 200.398 113.225 200.628 112.658 201C112.371 199.71 111.222 198.746 109.846 198.746C108.7 198.746 107.713 199.417 107.249 200.385C106.749 199.99 106.099 199.749 105.385 199.749C104.048 199.749 102.929 200.591 102.623 201.725C102.329 201.59 102.008 201.519 101.683 201.519C100.428 201.519 99.4114 202.536 99.4114 203.79C99.4114 204.084 99.4689 204.363 99.57 204.62C98.17 204.677 97.0514 205.827 97.0514 207.241C97.0514 207.958 97.3401 208.608 97.8071 209.082C97.0391 209.524 96.5205 210.351 96.5205 211.301C96.5205 212.715 97.6667 213.862 99.0812 213.862C100.495 213.862 101.641 212.715 101.641 211.301C101.641 211.121 101.622 210.945 101.586 210.776C101.778 210.741 101.958 210.655 102.106 210.528C102.254 210.401 102.365 210.236 102.427 210.051C102.614 210.102 102.808 210.133 103.01 210.133C103.769 210.133 104.435 209.746 104.827 209.16C105.11 209.278 105.417 209.345 105.739 209.345C106.576 209.345 107.315 208.905 107.767 208.235C108.01 208.544 108.366 208.74 108.763 208.74C108.765 208.74 108.768 208.74 108.77 208.74C108.849 209.522 109.508 210.133 110.311 210.133C110.669 210.133 111.016 210.009 111.292 209.782C111.491 210.652 112.268 211.301 113.198 211.301C113.521 211.301 113.824 211.222 114.092 211.083C114.182 211.262 114.309 211.418 114.465 211.542C114.62 211.667 114.801 211.756 114.995 211.803C114.823 212.026 114.73 212.3 114.73 212.581C114.73 213.288 115.303 213.862 116.01 213.862C116.319 213.862 116.602 213.752 116.823 213.57C116.74 213.792 116.698 214.026 116.697 214.262C116.697 214.801 116.91 215.288 117.255 215.648C116.465 215.868 115.895 216.486 115.895 217.216C115.895 218.13 116.788 218.871 117.889 218.871C118.99 218.871 119.883 218.13 119.883 217.216C119.883 216.805 119.702 216.43 119.403 216.14C120.166 215.857 120.71 215.124 120.71 214.262C120.71 213.892 120.606 213.545 120.43 213.246C121.068 212.735 121.476 211.951 121.476 211.071Z" fill="#1F1F23"/>
<path d="M80.5325 254.065C80.5325 254.065 79.6474 248.873 91.7419 251.233C103.836 253.593 108.233 254.537 108.233 254.537L107.907 258.943C107.907 258.943 99.4707 261.087 88.7921 260.85C88.7921 260.85 80.6503 259.316 80.5325 254.065Z" fill="#1A144C"/>
<path d="M107.54 222.294C107.54 222.294 108.998 222.705 111.628 221.998C111.628 221.998 110.592 223.366 108.298 223.345L108.233 222.484L107.54 222.294Z" fill="#F18080"/>
</g>
<defs>
<clipPath id="clip0_301_84">
<rect width="400" height="400" fill="white"/>
</clipPath>
</defs>
</svg>
