<svg width="400" height="400" viewBox="0 0 400 400" fill="none" xmlns="http://www.w3.org/2000/svg">
<g clip-path="url(#clip0_304_785)">
<path d="M400 0H0V400H400V0Z" fill="#8D37FF"/>
<g filter="url(#filter0_d_304_785)">
<path d="M369 287.525H31V287.694H369V287.525Z" fill="#EBEBEB"/>
<path d="M88.8515 298.401H66.4624V298.57H88.8515V298.401Z" fill="#EBEBEB"/>
<path d="M152.565 300.24H122.483V300.409H152.565V300.24Z" fill="#EBEBEB"/>
<path d="M137.132 292.128H89.5283V292.297H137.132V292.128Z" fill="#EBEBEB"/>
<path d="M335.133 293.264H326.554V293.433H335.133V293.264Z" fill="#EBEBEB"/>
<path d="M320.53 293.264H295.633V293.433H320.53V293.264Z" fill="#EBEBEB"/>
<path d="M239.431 296.116H218.394V296.285H239.431V296.116Z" fill="#EBEBEB"/>
<path d="M102.507 168.143L299.825 168.143V89.3215L102.507 89.3215V168.143Z" fill="#EBEBEB"/>
<path d="M102.501 89.3215H100.175V168.143H102.501V89.3215Z" fill="#E0E0E0"/>
<path d="M109.605 161.039L292.72 161.039V96.4197L109.605 96.4197V161.039Z" fill="white"/>
<path d="M232.306 161.038H242.601L272.217 96.4263H261.928L232.306 161.038Z" fill="#F5F5F5"/>
<path d="M217.739 161.038H228.027L257.65 96.4263H247.354L217.739 161.038Z" fill="#F5F5F5"/>
<path d="M122.335 161.038H132.63L162.253 96.4263H151.957L122.335 161.038Z" fill="#F5F5F5"/>
<path d="M319.227 287.525H263.727L258.806 195.765H314.299L319.227 287.525Z" fill="#E0E0E0"/>
<path d="M320.923 287.525H265.424L260.502 195.765H315.995L320.923 287.525Z" fill="#F0F0F0"/>
<path d="M290.503 278.061H288.475C288.279 278.061 288.086 278.022 287.906 277.945C287.726 277.869 287.563 277.757 287.428 277.616C287.292 277.475 287.186 277.309 287.116 277.126C287.046 276.944 287.014 276.749 287.022 276.553L289.475 206.641C289.489 206.264 289.649 205.906 289.922 205.644C290.194 205.381 290.557 205.235 290.936 205.235H292.964C293.159 205.235 293.353 205.275 293.533 205.351C293.714 205.427 293.877 205.539 294.013 205.68C294.149 205.82 294.256 205.987 294.326 206.169C294.397 206.352 294.43 206.547 294.424 206.743L291.936 276.655C291.924 277.028 291.768 277.383 291.501 277.645C291.234 277.907 290.877 278.056 290.503 278.061Z" fill="#FAFAFA"/>
<path d="M303.61 278.061H301.582C301.387 278.06 301.194 278.02 301.014 277.943C300.835 277.867 300.672 277.755 300.537 277.614C300.401 277.474 300.295 277.307 300.225 277.125C300.155 276.943 300.122 276.748 300.129 276.553L302.583 206.641C302.598 206.264 302.759 205.907 303.031 205.646C303.303 205.384 303.665 205.237 304.043 205.235H306.071C306.267 205.235 306.46 205.275 306.641 205.351C306.821 205.427 306.984 205.539 307.12 205.68C307.257 205.82 307.363 205.987 307.434 206.169C307.504 206.352 307.537 206.547 307.531 206.743L305.07 276.655C305.058 277.033 304.898 277.392 304.626 277.654C304.353 277.917 303.989 278.063 303.61 278.061Z" fill="#FAFAFA"/>
<path d="M277.389 278.061H275.361C275.165 278.06 274.972 278.02 274.792 277.943C274.612 277.867 274.449 277.755 274.313 277.615C274.177 277.474 274.071 277.308 274 277.126C273.929 276.943 273.895 276.749 273.9 276.553L276.388 206.641C276.4 206.264 276.559 205.907 276.83 205.644C277.101 205.382 277.464 205.235 277.842 205.235H279.87C280.065 205.235 280.259 205.275 280.439 205.351C280.618 205.427 280.781 205.539 280.917 205.68C281.053 205.821 281.158 205.987 281.228 206.17C281.298 206.353 281.33 206.547 281.323 206.743L278.869 276.655C278.855 277.036 278.692 277.397 278.415 277.66C278.139 277.922 277.77 278.066 277.389 278.061Z" fill="#FAFAFA"/>
<path d="M91.5421 211.921H79.0293V283.726H91.5421V211.921Z" fill="#F0F0F0"/>
<path d="M219.272 283.732H81.4292V287.525H219.272V283.732Z" fill="#F0F0F0"/>
<path d="M91.5419 283.732H221.672V211.928H91.5419V283.732Z" fill="#F5F5F5"/>
<path d="M90.244 208.615H77.4541V211.928H90.244V208.615Z" fill="#F0F0F0"/>
<path d="M90.2446 211.921L223.248 211.921V208.609L90.2446 208.609V211.921Z" fill="#FAFAFA"/>
<path d="M217.177 239.36H96.0376V218.877H217.177V239.36ZM96.8488 238.515H216.298V219.715H96.8826L96.8488 238.515Z" fill="#E0E0E0"/>
<path d="M217.177 276.776H96.0376V244.376H217.177V276.776ZM96.8488 275.938H216.298V245.221H96.8826L96.8488 275.938Z" fill="#E0E0E0"/>
<path d="M199.743 227.767H113.465C112.853 227.767 112.356 228.263 112.356 228.875V229.348C112.356 229.961 112.853 230.457 113.465 230.457H199.743C200.355 230.457 200.852 229.961 200.852 229.348V228.875C200.852 228.263 200.355 227.767 199.743 227.767Z" fill="#E0E0E0"/>
<path d="M199.743 253.272H113.465C112.853 253.272 112.356 253.768 112.356 254.381V254.854C112.356 255.466 112.853 255.962 113.465 255.962H199.743C200.355 255.962 200.852 255.466 200.852 254.854V254.381C200.852 253.768 200.355 253.272 199.743 253.272Z" fill="#E0E0E0"/>
<path d="M96.457 198.644C96.457 204.147 102.764 208.615 110.538 208.615C118.312 208.615 124.626 204.147 124.626 198.644H96.457Z" fill="#EBEBEB"/>
<path d="M149.874 205.235C149.874 207.101 156.174 208.615 163.955 208.615C171.736 208.615 178.036 207.101 178.036 205.235H149.874Z" fill="#F5F5F5"/>
<path d="M149.874 202.754C149.874 204.62 156.174 206.134 163.955 206.134C171.736 206.134 178.036 204.62 178.036 202.754H149.874Z" fill="#F5F5F5"/>
<path d="M182.249 205.235C182.249 207.101 188.549 208.615 196.33 208.615C204.11 208.615 210.411 207.101 210.411 205.235H182.249Z" fill="#F5F5F5"/>
<path d="M199.998 318.053C272.386 318.053 331.068 314.627 331.068 310.401C331.068 306.174 272.386 302.748 199.998 302.748C127.611 302.748 68.9287 306.174 68.9287 310.401C68.9287 314.627 127.611 318.053 199.998 318.053Z" fill="#F5F5F5"/>
<path d="M159.068 304.682H164.354L165.436 292.439H160.149L159.068 304.682Z" fill="#FFB573"/>
<path d="M165.213 304.067H158.764C158.657 304.069 158.554 304.106 158.47 304.171C158.386 304.237 158.325 304.329 158.297 304.432L157.087 309.13C157.057 309.242 157.053 309.359 157.076 309.473C157.099 309.587 157.148 309.694 157.219 309.785C157.291 309.876 157.383 309.95 157.488 309.999C157.593 310.048 157.708 310.073 157.824 310.07C159.9 310.036 161.421 309.914 164.03 309.914C165.639 309.914 170.472 310.076 172.696 310.076C174.92 310.076 175.279 307.886 174.379 307.683C170.323 306.798 167.315 305.567 166.051 304.391C165.823 304.181 165.523 304.065 165.213 304.067Z" fill="#263238"/>
<path opacity="0.2" d="M160.149 292.446H165.436L164.875 298.753H159.588L160.149 292.446Z" fill="black"/>
<path d="M170.039 182.954C170.039 182.954 173.419 223.981 172.473 239.468C171.405 256.422 167.349 297.53 167.349 297.53H157.668C157.668 297.53 158.513 259.248 158.02 242.774C157.466 223.974 151.794 183.211 151.794 183.211L170.039 182.954Z" fill="#263238"/>
<path d="M168.187 297.739H156.783L156.904 294.332L168.998 294.109L168.187 297.739Z" fill="#868686"/>
<path d="M166.93 304.992C167.293 305.019 167.654 304.924 167.957 304.722C168.057 304.642 168.135 304.538 168.184 304.42C168.232 304.302 168.25 304.173 168.234 304.046C168.24 303.975 168.224 303.903 168.189 303.841C168.154 303.778 168.102 303.727 168.038 303.695C167.457 303.39 165.72 304.438 165.524 304.56C165.502 304.573 165.485 304.592 165.474 304.615C165.463 304.638 165.459 304.663 165.463 304.688C165.466 304.712 165.476 304.734 165.491 304.752C165.507 304.77 165.528 304.783 165.551 304.79C166.001 304.909 166.464 304.977 166.93 304.992ZM167.754 303.897C167.81 303.897 167.865 303.909 167.917 303.931C167.917 303.931 167.984 303.978 167.984 304.08C167.992 304.164 167.98 304.25 167.948 304.328C167.916 304.407 167.866 304.477 167.802 304.533C167.21 304.803 166.538 304.837 165.922 304.627C166.482 304.271 167.103 304.023 167.754 303.897Z" fill="#868686"/>
<path d="M165.577 304.83C165.597 304.837 165.618 304.837 165.638 304.83C166.199 304.533 167.294 303.377 167.206 302.802C167.192 302.71 167.145 302.627 167.075 302.566C167.004 302.505 166.914 302.472 166.821 302.471C166.725 302.461 166.627 302.47 166.534 302.498C166.442 302.526 166.355 302.572 166.28 302.633C165.652 303.134 165.469 304.661 165.462 304.722C165.458 304.744 165.461 304.766 165.469 304.787C165.477 304.807 165.492 304.825 165.51 304.837C165.532 304.841 165.556 304.839 165.577 304.83ZM166.726 302.687H166.781C166.943 302.687 166.956 302.782 166.956 302.816C167.01 303.161 166.28 304.039 165.746 304.452C165.806 303.846 166.041 303.27 166.422 302.796C166.504 302.715 166.612 302.667 166.726 302.66V302.687Z" fill="#868686"/>
<path d="M119.359 295.4L124.301 297.097L129.885 285.929L124.943 284.233L119.359 295.4Z" fill="#FFB573"/>
<path d="M125.133 297.306L119.988 293.609C119.902 293.549 119.798 293.52 119.694 293.528C119.589 293.535 119.49 293.578 119.414 293.649L115.743 296.894C115.654 296.97 115.584 297.066 115.537 297.173C115.49 297.28 115.468 297.397 115.473 297.514C115.477 297.631 115.508 297.745 115.563 297.849C115.618 297.952 115.696 298.042 115.79 298.111C117.467 299.267 118.751 300.037 120.833 301.538C122.118 302.457 125.883 305.378 127.654 306.649C129.425 307.92 130.987 306.297 130.358 305.608C127.654 302.545 125.937 299.774 125.626 298.07C125.567 297.761 125.39 297.487 125.133 297.306Z" fill="#263238"/>
<path d="M162.766 138.46L164.051 138.176L165.403 137.858C166.302 137.635 167.201 137.392 168.107 137.135C169.891 136.614 171.649 136.04 173.346 135.384C175.011 134.752 176.633 134.009 178.199 133.16C179.649 132.382 180.998 131.428 182.215 130.321L182.62 129.929C182.728 129.8 182.837 129.692 182.951 129.557C183.181 129.273 183.425 128.962 183.661 128.61C184.148 127.934 184.635 127.164 185.094 126.366C186.007 124.764 186.913 123.074 187.798 121.343C189.515 117.896 191.178 114.313 192.828 110.778L196.607 111.994C195.764 115.947 194.678 119.844 193.355 123.662C192.679 125.582 192.003 127.509 191.097 129.435C190.658 130.395 190.185 131.362 189.617 132.356C189.333 132.849 189.015 133.349 188.657 133.863C188.481 134.12 188.258 134.39 188.062 134.647L187.46 135.323C186.663 136.196 185.802 137.01 184.885 137.757C183.996 138.458 183.071 139.113 182.113 139.717C180.266 140.87 178.329 141.872 176.32 142.712C174.375 143.54 172.381 144.252 170.351 144.841C169.346 145.139 168.332 145.409 167.309 145.652C166.802 145.781 166.288 145.903 165.768 146.011C165.247 146.119 164.76 146.207 164.145 146.315L162.766 138.46Z" fill="#FFB573"/>
<path d="M160.116 147.579C164.172 150.439 178.929 145.754 178.929 145.754L176.901 132.714C176.901 132.714 170.864 134.14 164.53 135.999C160.224 137.243 155.661 144.47 160.116 147.579Z" fill="#868686"/>
<path d="M192.171 112.894L193.172 107.317L198.255 110.568C198.056 111.353 197.698 112.089 197.204 112.731C196.71 113.372 196.09 113.906 195.382 114.3L192.171 112.894Z" fill="#FFB573"/>
<path d="M194.605 104.146L198.539 102.74L198.262 110.568L193.172 107.317L194.605 104.146Z" fill="#FFB573"/>
<path opacity="0.2" d="M124.943 284.233L129.884 285.936L127.004 291.689L122.056 289.992L124.943 284.233Z" fill="black"/>
<path d="M141.188 137.372C142.206 143.178 142.784 149.054 142.918 154.948C143.033 159.071 142.972 162.985 142.823 166.541C142.492 174.856 141.722 181.17 141.769 183.333L170.046 182.981C176.671 153.183 170.81 137.297 170.81 137.297C168.62 136.75 166.399 136.342 164.158 136.074C163.685 136.02 163.205 135.972 162.711 135.932C158.703 135.751 154.688 135.8 150.685 136.081C149.928 136.128 149.158 136.195 148.407 136.27C144.567 136.642 141.188 137.372 141.188 137.372Z" fill="#868686"/>
<path d="M150.652 136.053C154.654 135.773 158.669 135.724 162.678 135.905C163.164 135.945 163.651 135.993 164.124 136.047H164.293C164.969 137.858 165.057 141.766 161.089 142.083C155.681 142.516 150.652 138.981 148.374 136.229C149.144 136.168 149.922 136.101 150.652 136.053Z" fill="white"/>
<path opacity="0.2" d="M147.57 145.375C147.203 149.733 145.602 153.895 142.953 157.374C142.953 156.57 142.953 155.752 142.912 154.927C142.824 151.831 142.635 148.62 142.297 145.368L147.57 145.375Z" fill="black"/>
<path d="M152.192 122.506C152.868 126.366 153.45 133.444 150.678 136.026C151.854 137.259 153.286 138.218 154.874 138.835C156.462 139.451 158.166 139.711 159.865 139.596C163.198 139.487 163.414 137.155 162.704 135.878C158.412 134.904 158.601 131.7 159.426 128.685L152.192 122.506Z" fill="#FFB573"/>
<path opacity="0.2" d="M155.14 125.014L159.419 128.685C159.218 129.384 159.078 130.098 159 130.821C157.357 130.605 155.133 128.827 154.998 127.103C154.918 126.404 154.966 125.696 155.14 125.014Z" fill="black"/>
<path d="M166.835 111.683C170.066 110.068 168.586 105.113 168.586 105.113C168.586 105.113 166.875 105.072 165.01 107.141C165.855 104.585 164.435 100.421 163.962 98.8057C157.479 101.618 157.046 104.335 157.046 104.335C157.046 104.335 155.694 102.307 154.424 102.192C153.419 102.81 152.64 103.737 152.204 104.833C151.768 105.929 151.698 107.137 152.003 108.276C150.935 107.656 149.741 107.281 148.509 107.181C148.018 108.719 148.097 110.382 148.732 111.866C147.986 112.252 147.382 112.865 147.008 113.617C147.599 113.992 148.229 114.303 148.887 114.543C148.786 116.571 149.218 119.37 150.678 120.951L165.55 114.002C168.065 115.091 169.187 114.306 169.187 114.306C169.187 114.306 168.606 112.17 166.835 111.683Z" fill="#263238"/>
<path d="M151.868 116.693C152.064 121.925 151.915 125.008 154.498 127.664C158.385 131.653 164.901 129.178 166.274 123.933C167.511 119.201 166.95 111.454 161.9 109.433C156.85 107.411 151.665 111.494 151.868 116.693Z" fill="#FFB573"/>
<path d="M156.695 110.818C157.033 113.563 153.315 115.591 154.18 119.647C153.536 120.601 152.755 121.455 151.861 122.182L150.354 118.051L151.104 110.48L156.134 110.054L156.695 110.818Z" fill="#263238"/>
<path d="M153.207 110.48C157.148 113.036 163.759 112.583 165.598 111.947C164.678 108.642 160.981 107.702 160.981 107.702C160.981 107.702 154.782 107.141 153.207 110.48Z" fill="#263238"/>
<path d="M161.332 123.912C160.722 123.938 160.115 123.813 159.566 123.547C159.016 123.282 158.541 122.885 158.182 122.391C158.165 122.359 158.161 122.323 158.17 122.288C158.179 122.253 158.2 122.223 158.229 122.202C158.243 122.192 158.26 122.186 158.277 122.182C158.294 122.179 158.312 122.179 158.329 122.183C158.346 122.187 158.362 122.194 158.376 122.204C158.391 122.215 158.403 122.228 158.412 122.243C158.752 122.693 159.195 123.056 159.704 123.299C160.214 123.543 160.774 123.66 161.339 123.642C161.356 123.642 161.373 123.646 161.389 123.652C161.405 123.659 161.42 123.669 161.432 123.682C161.444 123.695 161.453 123.71 161.459 123.726C161.465 123.742 161.468 123.76 161.467 123.777C161.467 123.813 161.453 123.847 161.427 123.873C161.402 123.898 161.368 123.912 161.332 123.912Z" fill="#263238"/>
<path d="M149.368 122.493C149.703 123.042 150.147 123.517 150.672 123.889C151.198 124.261 151.794 124.522 152.423 124.656C154.12 125.014 154.918 123.453 154.397 121.898C153.924 120.498 152.477 118.633 150.794 118.977C150.428 119.056 150.087 119.222 149.8 119.463C149.513 119.703 149.29 120.01 149.149 120.357C149.008 120.704 148.955 121.08 148.993 121.452C149.031 121.824 149.16 122.182 149.368 122.493Z" fill="#FFB573"/>
<path opacity="0.2" d="M156.343 195.765L154.031 200.314C155.092 208.913 156.309 219.458 157.12 228.78C158.966 219.404 160.162 201.402 156.343 195.765Z" fill="black"/>
<path d="M161.041 183.069C161.041 183.069 154.471 220.56 151.537 235.865C148.319 252.623 129.695 291.31 129.695 291.31L120.644 288.201C120.644 288.201 135.603 249.669 137.226 233.134C139.071 214.334 141.735 183.299 141.735 183.299L161.041 183.069Z" fill="#263238"/>
<path d="M130.439 291.79L119.772 288.126L120.982 284.895L132.366 288.572L130.439 291.79Z" fill="#868686"/>
<path d="M159.777 118.058C159.777 118.484 159.987 118.829 160.264 118.822C160.541 118.815 160.778 118.471 160.785 118.045C160.791 117.619 160.582 117.274 160.298 117.281C160.014 117.288 159.784 117.632 159.777 118.058Z" fill="#263238"/>
<path d="M164.598 117.997C164.598 118.423 164.808 118.768 165.085 118.761C165.362 118.754 165.599 118.41 165.612 117.984C165.626 117.558 165.403 117.22 165.119 117.22C164.835 117.22 164.612 117.578 164.598 117.997Z" fill="#263238"/>
<path d="M163.063 118.254C163.539 119.547 164.195 120.767 165.01 121.878C164.239 122.594 162.914 122.182 162.914 122.182L163.063 118.254Z" fill="#ED893E"/>
<path d="M158.317 116.517C158.363 116.525 158.41 116.521 158.453 116.504C158.495 116.487 158.533 116.459 158.561 116.422C158.748 116.164 158.993 115.952 159.275 115.803C159.558 115.654 159.871 115.573 160.19 115.564C160.257 115.568 160.323 115.545 160.373 115.501C160.424 115.457 160.455 115.394 160.46 115.327C160.464 115.295 160.461 115.263 160.452 115.232C160.443 115.201 160.427 115.172 160.406 115.147C160.385 115.122 160.359 115.102 160.33 115.088C160.301 115.074 160.27 115.065 160.237 115.064C159.834 115.068 159.437 115.166 159.078 115.35C158.719 115.534 158.407 115.8 158.169 116.125C158.129 116.178 158.111 116.243 158.119 116.309C158.126 116.374 158.159 116.434 158.209 116.477C158.242 116.497 158.279 116.511 158.317 116.517Z" fill="#263238"/>
<path d="M166.706 116.314C166.755 116.33 166.807 116.33 166.855 116.314C166.915 116.286 166.962 116.236 166.986 116.174C167.01 116.113 167.009 116.044 166.983 115.983C166.822 115.629 166.577 115.321 166.268 115.085C165.959 114.849 165.596 114.693 165.212 114.631C165.146 114.623 165.08 114.641 165.027 114.682C164.974 114.722 164.938 114.781 164.928 114.847C164.924 114.879 164.925 114.912 164.933 114.943C164.941 114.975 164.956 115.004 164.975 115.03C164.995 115.056 165.019 115.077 165.047 115.094C165.075 115.11 165.106 115.12 165.138 115.124C165.436 115.188 165.715 115.323 165.95 115.517C166.186 115.711 166.371 115.959 166.49 116.24C166.517 116.269 166.551 116.292 166.589 116.305C166.626 116.318 166.667 116.321 166.706 116.314Z" fill="#263238"/>
<path d="M125.971 299.071C126.245 299.298 126.588 299.425 126.944 299.429C127.07 299.418 127.191 299.377 127.297 299.308C127.403 299.24 127.491 299.147 127.553 299.037C127.597 298.979 127.625 298.91 127.632 298.837C127.639 298.764 127.626 298.691 127.593 298.625C127.309 298.044 125.315 297.949 125.092 297.908C125.067 297.907 125.042 297.914 125.02 297.927C124.998 297.94 124.981 297.96 124.971 297.983C124.955 298.002 124.947 298.026 124.947 298.05C124.947 298.075 124.955 298.099 124.971 298.118C125.265 298.474 125.601 298.794 125.971 299.071ZM127.255 298.625C127.303 298.652 127.343 298.692 127.37 298.74C127.385 298.765 127.393 298.795 127.393 298.824C127.393 298.854 127.385 298.883 127.37 298.909C127.329 298.984 127.27 299.048 127.198 299.095C127.126 299.142 127.044 299.171 126.958 299.179C126.586 299.213 126.012 298.848 125.403 298.185C126.044 298.208 126.673 298.357 127.255 298.625Z" fill="#868686"/>
<path d="M125.004 298.138C125.021 298.145 125.04 298.145 125.058 298.138C125.673 298.212 127.221 297.868 127.485 297.32C127.525 297.237 127.535 297.142 127.513 297.051C127.49 296.961 127.438 296.882 127.363 296.827C127.293 296.763 127.211 296.714 127.121 296.683C127.032 296.653 126.937 296.642 126.843 296.651C126.052 296.712 125.031 297.888 124.984 297.935C124.972 297.955 124.966 297.977 124.966 297.999C124.966 298.022 124.972 298.044 124.984 298.064C124.981 298.09 124.988 298.117 125.004 298.138ZM127.147 296.996H127.187C127.309 297.111 127.275 297.178 127.262 297.205C127.106 297.53 126.038 297.881 125.355 297.881C125.746 297.411 126.265 297.063 126.849 296.881C126.96 296.879 127.066 296.92 127.147 296.996Z" fill="#868686"/>
<path d="M146.175 145.49L144.512 147.518C143.951 148.194 143.397 148.904 142.849 149.614C141.754 151.02 140.686 152.444 139.645 153.886C138.624 155.333 137.617 156.793 136.711 158.267C135.805 159.74 134.933 161.241 134.224 162.742L134.082 163.026L134.028 163.154C133.977 163.256 133.936 163.362 133.906 163.472C133.814 163.778 133.742 164.089 133.69 164.405C133.559 165.181 133.477 165.964 133.446 166.751C133.379 168.42 133.399 170.198 133.494 171.983C133.669 175.552 133.994 179.243 134.352 182.866L130.485 183.765C129.209 180.159 128.204 176.462 127.477 172.706C127.102 170.765 126.845 168.804 126.706 166.832C126.642 165.76 126.642 164.685 126.706 163.614C126.755 163.006 126.839 162.401 126.957 161.802C127.038 161.471 127.099 161.16 127.227 160.781L127.403 160.254L127.545 159.903C129.012 156.213 130.865 152.69 133.074 149.391C134.142 147.768 135.265 146.2 136.454 144.659C137.043 143.895 137.644 143.145 138.259 142.394C138.874 141.644 139.483 140.934 140.186 140.15L146.175 145.49Z" fill="#FFB573"/>
<path d="M141.186 137.372C136.157 138.088 130.702 149.932 130.702 149.932L140.22 158.936C140.22 158.936 144.168 152.981 147.419 147.201C150.955 140.907 147.27 136.506 141.186 137.372Z" fill="#868686"/>
<path d="M133.893 181.724L137.077 185.935L130.459 187.537C130.459 187.537 128.566 183.326 130.729 181.994L133.893 181.724Z" fill="#FFB573"/>
<path d="M136.97 190.35L131.447 191.418L130.46 187.538L137.078 185.936L136.97 190.35Z" fill="#FFB573"/>
<path d="M287.536 292.432L282.547 294.569L275.632 283.868L280.614 281.725L287.536 292.432Z" fill="#FFC3BD"/>
<path opacity="0.2" d="M280.621 281.725L275.632 283.868L279.201 289.384L284.19 287.248L280.621 281.725Z" fill="black"/>
<path d="M241.744 184.644C241.744 184.644 250.532 228.882 254.933 244.132C259.753 260.891 276.389 289.228 276.389 289.228L285.522 285.308C285.522 285.308 275.382 262.459 271.326 245.964C266.736 227.185 260.388 183.096 260.388 183.096L241.744 184.644Z" fill="#868686"/>
<path opacity="0.2" d="M249.017 197.346C250.146 209.643 250.416 218.302 250.883 227.821C248.571 217.721 246.103 206.013 244.312 197.346H249.017Z" fill="black"/>
<path d="M251.119 304.837L245.691 304.756L244.447 292.169L249.869 292.25L251.119 304.837Z" fill="#FFC3BD"/>
<path opacity="0.2" d="M244.447 292.169L245.089 298.659L250.518 298.746L249.876 292.257L244.447 292.169Z" fill="black"/>
<path d="M243.076 297.394L252.263 297.536C252.263 297.536 248.639 261.837 247.449 244.971C247.084 239.84 247.253 232.586 247.686 224.779C248.227 214.936 248.585 210.995 249.329 198.557C249.856 189.687 250.498 183.941 250.498 183.941L231.482 185.503C231.482 185.503 230.739 228.571 232.895 244.991C235.153 262.04 243.076 297.394 243.076 297.394Z" fill="#868686"/>
<path d="M245.738 304.154L251.667 304.249C251.774 304.249 251.878 304.285 251.96 304.353C252.043 304.421 252.099 304.516 252.12 304.621L253.12 309.461C253.146 309.578 253.145 309.7 253.117 309.816C253.088 309.933 253.033 310.042 252.956 310.134C252.879 310.226 252.782 310.299 252.672 310.348C252.562 310.396 252.443 310.419 252.323 310.414C250.187 310.346 247.097 310.171 244.414 310.13C241.27 310.083 240.912 310.211 237.228 310.13C235.004 310.096 234.422 307.839 235.355 307.649C239.614 306.784 240.723 306.737 244.427 304.533C244.822 304.29 245.275 304.159 245.738 304.154Z" fill="#263238"/>
<path d="M241.919 297.57L252.863 297.739L252.924 294.204L241.209 293.825L241.919 297.57Z" fill="#868686"/>
<path opacity="0.3" d="M241.919 297.57L252.863 297.739L252.924 294.204L241.209 293.825L241.919 297.57Z" fill="black"/>
<path d="M245.198 304.871C245.22 304.86 245.239 304.845 245.254 304.827C245.269 304.808 245.28 304.786 245.286 304.763C245.289 304.737 245.284 304.711 245.272 304.688C245.26 304.665 245.241 304.646 245.218 304.634C244.975 304.499 242.812 303.363 242.143 303.715C242.08 303.749 242.028 303.799 241.99 303.859C241.952 303.92 241.93 303.989 241.926 304.06C241.912 304.175 241.926 304.292 241.966 304.402C242.006 304.511 242.071 304.609 242.156 304.688C242.744 305.222 244.306 305.033 245.178 304.871H245.198ZM242.312 303.924C242.724 303.789 243.9 304.256 244.752 304.682C243.555 304.864 242.663 304.796 242.332 304.499C242.276 304.446 242.233 304.38 242.207 304.307C242.181 304.235 242.173 304.157 242.183 304.08C242.183 304.052 242.19 304.025 242.204 304.001C242.219 303.977 242.239 303.957 242.264 303.945L242.312 303.924Z" fill="#868686"/>
<path d="M245.198 304.871H245.232C245.249 304.857 245.263 304.84 245.273 304.82C245.282 304.8 245.287 304.778 245.286 304.756C245.286 304.695 245.158 303.228 244.475 302.654C244.379 302.568 244.266 302.504 244.144 302.464C244.022 302.424 243.893 302.411 243.765 302.424C243.414 302.424 243.305 302.626 243.278 302.775C243.17 303.384 244.455 304.58 245.104 304.884C245.136 304.89 245.169 304.886 245.198 304.871ZM243.657 302.681H243.785C243.88 302.672 243.975 302.683 244.064 302.713C244.154 302.743 244.236 302.792 244.306 302.856C244.702 303.333 244.938 303.922 244.982 304.54C244.306 304.127 243.454 303.188 243.522 302.823C243.535 302.802 243.549 302.714 243.657 302.681Z" fill="#868686"/>
<path d="M281.41 294.319L287.095 290.939C287.188 290.883 287.297 290.861 287.404 290.876C287.511 290.89 287.609 290.941 287.683 291.02L291.063 294.616C291.146 294.704 291.207 294.81 291.242 294.925C291.278 295.04 291.286 295.161 291.268 295.28C291.25 295.399 291.205 295.513 291.137 295.612C291.069 295.711 290.979 295.794 290.874 295.853C289.029 296.908 287.629 297.597 285.331 298.97C283.911 299.815 280.64 301.924 278.686 303.086C276.732 304.249 275.36 302.512 275.982 301.822C278.929 298.713 280.254 296.779 280.788 295.062C280.893 294.744 281.115 294.478 281.41 294.319Z" fill="#263238"/>
<path d="M201.352 113.232L202.407 108.5L196.803 106.871C196.803 106.871 195.099 111.447 198.392 113.631L201.352 113.232Z" fill="#FFC3BD"/>
<path d="M201.677 103.916L197.323 101.577L196.789 106.898L202.393 108.527L201.677 103.916Z" fill="#FFC3BD"/>
<path d="M228.608 147.775C226.526 147.194 224.64 146.552 222.687 145.849C220.733 145.146 218.84 144.382 216.941 143.543C215.041 142.705 213.162 141.826 211.296 140.839C210.363 140.366 209.437 139.825 208.511 139.298L207.159 138.453L206.814 138.244L206.3 137.906C205.962 137.667 205.645 137.423 205.347 137.175C204.287 136.259 203.365 135.193 202.609 134.012C201.95 132.995 201.371 131.928 200.879 130.821C199.997 128.792 199.3 126.688 198.797 124.534C197.826 120.449 197.312 116.268 197.262 112.069L202.244 111.393C203.293 115.062 204.536 118.672 205.969 122.209C206.641 123.857 207.436 125.453 208.349 126.981C208.749 127.653 209.201 128.293 209.701 128.894C210.08 129.349 210.519 129.752 211.005 130.091C211.086 130.145 211.169 130.195 211.255 130.24C211.299 130.25 211.34 130.269 211.377 130.294L211.688 130.436L212.918 131.031C213.77 131.409 214.608 131.795 215.474 132.16C217.197 132.896 218.969 133.579 220.753 134.255C222.538 134.931 224.343 135.607 226.161 136.202L231.569 138.048L228.608 147.775Z" fill="#868686"/>
<path d="M246.536 121.635C246.144 125.657 246.077 132.971 249.099 135.337C247.158 137.683 244.596 140.421 239.918 141.042C235.241 141.664 235.748 138.338 236.822 136.534C241.128 135.053 240.696 131.802 239.628 128.8L246.536 121.635Z" fill="#FFC3BD"/>
<path d="M234.274 117.727C234.227 118.166 233.963 118.498 233.679 118.471C233.395 118.444 233.199 118.065 233.24 117.626C233.28 117.186 233.551 116.862 233.835 116.889C234.118 116.916 234.315 117.294 234.274 117.727Z" fill="#263238"/>
<path d="M234.118 118.153C233.469 119.434 232.645 120.62 231.671 121.675C231.945 121.916 232.269 122.094 232.619 122.197C232.969 122.299 233.338 122.324 233.699 122.27L234.118 118.153Z" fill="#ED847E"/>
<path d="M235.436 116.098C235.397 116.083 235.362 116.058 235.335 116.027C235.308 115.995 235.289 115.956 235.28 115.915C235.217 115.599 235.08 115.301 234.879 115.049C234.678 114.796 234.419 114.595 234.124 114.462C234.093 114.451 234.063 114.433 234.038 114.41C234.013 114.387 233.993 114.359 233.978 114.329C233.964 114.298 233.955 114.265 233.954 114.231C233.952 114.197 233.957 114.163 233.969 114.131C233.981 114.099 233.998 114.069 234.021 114.044C234.044 114.019 234.072 113.999 234.102 113.984C234.133 113.97 234.166 113.962 234.2 113.96C234.234 113.959 234.268 113.964 234.3 113.975C234.674 114.14 235.003 114.392 235.261 114.709C235.518 115.027 235.696 115.401 235.781 115.801C235.795 115.867 235.782 115.936 235.745 115.993C235.709 116.05 235.651 116.09 235.585 116.105C235.536 116.12 235.483 116.117 235.436 116.098Z" fill="#263238"/>
<path d="M249.146 118.079C248.098 123.365 247.753 126.508 244.698 128.895C240.094 132.464 233.848 129.138 233.294 123.649C232.793 118.707 234.585 110.9 240.087 109.453C241.3 109.134 242.574 109.131 243.788 109.443C245.002 109.755 246.116 110.373 247.024 111.238C247.932 112.102 248.603 113.185 248.975 114.382C249.346 115.58 249.405 116.852 249.146 118.079Z" fill="#FFC3BD"/>
<path d="M238.418 119.552C236.897 117.801 237.464 114.029 238.418 112.224C237.295 112.941 233.476 112.684 233.456 109.689C233.422 105.302 240.797 104.281 244.84 105.052C249.497 105.971 253.675 110.338 255.284 108.831C256.94 111.751 254.04 112.772 254.04 112.772C254.04 112.772 256.92 120.039 246.381 127.157C244.935 126.954 243.464 127.016 242.041 127.34C241.715 127.339 241.402 127.21 241.169 126.981C240.101 125.913 237.18 122.614 238.418 119.552Z" fill="#263238"/>
<path d="M253.641 112.61C253.641 112.61 255.628 113.029 256.304 111.751C256.108 113.577 254.993 113.59 253.641 112.61Z" fill="#263238"/>
<path d="M241.914 121.229C241.246 122.408 240.137 123.274 238.831 123.635C237.1 124.095 236.249 122.54 236.749 120.931C237.195 119.465 238.642 117.464 240.372 117.714C242.103 117.964 242.704 119.782 241.914 121.229Z" fill="#FFC3BD"/>
<path d="M262.55 139.954C263.328 140.698 263.963 141.367 264.632 142.083C265.302 142.8 265.937 143.51 266.552 144.247C267.803 145.7 268.993 147.208 270.155 148.735C271.318 150.263 272.427 151.831 273.474 153.467L274.36 154.758C274.691 155.245 274.962 155.745 275.246 156.239C275.778 157.219 276.241 158.236 276.631 159.281C277.382 161.249 277.932 163.287 278.274 165.365C278.614 167.358 278.807 169.373 278.849 171.395C278.909 173.366 278.85 175.339 278.673 177.303C278.51 179.271 278.221 181.226 277.808 183.157L272.812 182.61C272.724 180.926 272.596 179.088 272.4 177.344C272.204 175.6 271.947 173.842 271.629 172.138C271.077 168.874 270.073 165.703 268.648 162.715C268.309 162.054 267.932 161.413 267.519 160.795C267.309 160.504 267.113 160.2 266.897 159.937C266.775 159.795 266.701 159.687 266.552 159.518L266.113 159.004C264.923 157.652 263.747 156.3 262.537 154.948C261.327 153.596 260.13 152.244 258.927 150.953L255.378 147.066L262.55 139.954Z" fill="#868686"/>
<path d="M249.172 144.247C248.307 148.161 260.319 155.286 260.319 155.286L269.824 147.174C267.412 143.719 264.697 140.486 261.712 137.514C256.784 132.606 250.578 137.906 249.172 144.247Z" fill="#263238"/>
<path opacity="0.2" d="M257.521 148.35C255.804 147.41 255.54 149.553 255.804 152.277C258.197 154.028 260.313 155.286 260.313 155.286L261.523 154.251C260.569 151.757 259.244 149.289 257.521 148.35Z" fill="black"/>
<path d="M272.704 181.758L270.203 185.097L276.213 187.578C276.213 187.578 277.781 184.874 277.45 182.846C277.374 182.46 277.187 182.104 276.912 181.822C276.637 181.54 276.286 181.344 275.902 181.258L274.807 181.001C274.421 180.907 274.016 180.929 273.642 181.064C273.268 181.198 272.942 181.44 272.704 181.758Z" fill="#FFC3BD"/>
<path d="M268.993 190.458L274.658 191.715L276.212 187.578L270.203 185.097L268.993 190.458Z" fill="#FFC3BD"/>
<path d="M259.691 138.372C257.23 159.152 263.855 184.8 264.017 189.072C259.772 189.424 238.789 191.357 230.075 192.067C225.019 155.069 229.676 137.521 229.676 137.521C229.676 137.521 231.481 136.939 233.962 136.378C234.74 136.202 235.585 136.033 236.464 135.878C236.943 135.79 237.444 135.716 237.944 135.641C242.038 135.223 246.152 135.038 250.267 135.087C251.045 135.087 251.843 135.087 252.613 135.148C253.384 135.209 254.026 135.229 254.688 135.276C255.709 135.357 256.656 135.452 257.46 135.54C257.793 135.577 258.116 135.681 258.409 135.844C258.702 136.007 258.959 136.227 259.167 136.49C259.374 136.754 259.527 137.056 259.617 137.379C259.707 137.702 259.732 138.039 259.691 138.372Z" fill="#263238"/>
<path opacity="0.2" d="M228.23 147.505C228.128 148.566 228.047 149.722 227.979 150.966C229.899 150.777 232.232 150.29 233.218 149.181C234.422 147.775 230.744 147.525 228.23 147.505Z" fill="black"/>
<path d="M235.471 149.398C230.827 151.696 222.032 147.775 222.032 147.775L222.174 134.14C222.174 134.14 231.671 135.668 238.398 135.601C245.293 135.533 240.561 146.869 235.471 149.398Z" fill="#263238"/>
<path d="M275.381 289.891L286.137 285.281L284.757 282.063L272.556 286.078L275.381 289.891Z" fill="#868686"/>
<path opacity="0.3" d="M275.381 289.891L286.137 285.281L284.757 282.063L272.556 286.078L275.381 289.891Z" fill="black"/>
<path d="M280.355 296.042C280.762 295.788 281.138 295.489 281.478 295.15C281.491 295.13 281.498 295.107 281.498 295.082C281.498 295.058 281.491 295.035 281.478 295.015C281.47 294.991 281.455 294.969 281.434 294.955C281.413 294.94 281.388 294.933 281.363 294.934C281.126 294.934 279.078 294.9 278.72 295.468C278.68 295.532 278.659 295.606 278.659 295.681C278.659 295.756 278.68 295.83 278.72 295.894C278.772 296.009 278.851 296.11 278.951 296.188C279.052 296.266 279.169 296.318 279.294 296.34C279.672 296.37 280.048 296.264 280.355 296.042ZM281.065 295.184C280.389 295.819 279.713 296.151 279.362 296.09C279.276 296.074 279.195 296.038 279.126 295.984C279.058 295.929 279.004 295.859 278.97 295.779C278.953 295.754 278.943 295.724 278.943 295.694C278.943 295.664 278.953 295.635 278.97 295.61C279.145 295.319 280.241 295.204 281.065 295.191V295.184Z" fill="#868686"/>
<path d="M281.452 295.177C281.473 295.163 281.491 295.144 281.506 295.123C281.517 295.103 281.523 295.081 281.523 295.059C281.523 295.036 281.517 295.014 281.506 294.994C281.465 294.94 280.553 293.642 279.748 293.541C279.652 293.522 279.552 293.524 279.456 293.547C279.36 293.571 279.271 293.615 279.194 293.676C279.111 293.727 279.049 293.804 279.017 293.895C278.985 293.986 278.985 294.086 279.018 294.177C279.228 294.758 280.769 295.218 281.404 295.197L281.452 295.177ZM279.383 293.825C279.48 293.772 279.592 293.753 279.701 293.771C280.215 293.852 280.83 294.542 281.12 294.907C280.444 294.825 279.37 294.406 279.241 294.068C279.241 294.035 279.207 293.96 279.336 293.859L279.383 293.825Z" fill="#868686"/>
<path opacity="0.9" d="M198.141 81H197.35V84.8329H198.141V81Z" fill="#868686"/>
<path opacity="0.9" d="M198.141 86.7053H197.35V96.3924H198.141V86.7053Z" fill="#868686"/>
<path opacity="0.9" d="M206.393 96.0744L202.246 100.217L202.805 100.776L206.952 96.634L206.393 96.0744Z" fill="#868686"/>
<path opacity="0.9" d="M213.446 104.904H207.328V105.694H213.446V104.904Z" fill="#868686"/>
<path opacity="0.9" d="M187.368 94.3668L186.809 94.926L192.674 100.791L193.233 100.232L187.368 94.3668Z" fill="#868686"/>
<path opacity="0.9" d="M188.163 104.904H185.425V105.694H188.163V104.904Z" fill="#868686"/>
</g>
</g>
<defs>
<filter id="filter0_d_304_785" x="6" y="56" width="388" height="287.053" filterUnits="userSpaceOnUse" color-interpolation-filters="sRGB">
<feFlood flood-opacity="0" result="BackgroundImageFix"/>
<feColorMatrix in="SourceAlpha" type="matrix" values="0 0 0 0 0 0 0 0 0 0 0 0 0 0 0 0 0 0 127 0" result="hardAlpha"/>
<feOffset/>
<feGaussianBlur stdDeviation="12.5"/>
<feComposite in2="hardAlpha" operator="out"/>
<feColorMatrix type="matrix" values="0 0 0 0 0 0 0 0 0 0 0 0 0 0 0 0 0 0 0.25 0"/>
<feBlend mode="normal" in2="BackgroundImageFix" result="effect1_dropShadow_304_785"/>
<feBlend mode="normal" in="SourceGraphic" in2="effect1_dropShadow_304_785" result="shape"/>
</filter>
<clipPath id="clip0_304_785">
<rect width="400" height="400" fill="white"/>
</clipPath>
</defs>
</svg>
