<svg width="400" height="400" viewBox="0 0 400 400" fill="none" xmlns="http://www.w3.org/2000/svg">
<g clip-path="url(#clip0_304_1244)">
<path d="M400 0H0V400H400V0Z" fill="#F64A89"/>
<path d="M334.627 240.816H253.178C252.478 240.814 251.807 240.536 251.312 240.041C250.817 239.546 250.538 238.875 250.537 238.175V119.523C250.538 118.823 250.817 118.152 251.312 117.657C251.807 117.162 252.478 116.884 253.178 116.882H334.627C335.328 116.882 336 117.16 336.496 117.656C336.992 118.151 337.271 118.822 337.272 119.523V238.175C337.271 238.876 336.992 239.547 336.496 240.042C336 240.538 335.328 240.816 334.627 240.816ZM253.178 116.995C252.507 116.995 251.864 117.261 251.39 117.735C250.916 118.21 250.65 118.853 250.65 119.523V238.175C250.65 238.845 250.916 239.488 251.39 239.962C251.864 240.437 252.507 240.703 253.178 240.703H334.627C335.298 240.703 335.941 240.437 336.416 239.963C336.891 239.489 337.159 238.846 337.16 238.175V119.523C337.159 118.852 336.891 118.209 336.416 117.735C335.941 117.261 335.298 116.995 334.627 116.995H253.178Z" fill="#E9E9E9"/>
<path d="M240.699 240.816H159.241C158.541 240.814 157.87 240.536 157.375 240.041C156.88 239.546 156.602 238.875 156.601 238.175V119.523C156.602 118.823 156.88 118.152 157.375 117.657C157.87 117.162 158.541 116.884 159.241 116.882H240.699C241.4 116.884 242.071 117.162 242.566 117.657C243.061 118.152 243.339 118.823 243.34 119.523V238.175C243.339 238.875 243.061 239.546 242.566 240.041C242.071 240.536 241.4 240.814 240.699 240.816ZM159.241 116.995C158.575 117.002 157.939 117.271 157.47 117.745C157.001 118.218 156.737 118.857 156.736 119.523V238.175C156.737 238.845 157.004 239.487 157.478 239.961C157.951 240.435 158.594 240.702 159.264 240.703H240.699C241.37 240.702 242.012 240.435 242.486 239.961C242.96 239.487 243.227 238.845 243.228 238.175V119.523C243.227 118.853 242.96 118.211 242.486 117.737C242.012 117.263 241.37 116.996 240.699 116.995H159.241Z" fill="#E9E9E9"/>
<path d="M146.822 240.816H65.373C64.6721 240.816 63.9999 240.538 63.504 240.042C63.008 239.547 62.7287 238.876 62.7275 238.175V119.523C62.7287 118.822 63.008 118.151 63.504 117.656C63.9999 117.16 64.6721 116.882 65.373 116.882H146.822C147.522 116.884 148.193 117.162 148.688 117.657C149.183 118.152 149.462 118.823 149.463 119.523V238.175C149.462 238.875 149.183 239.546 148.688 240.041C148.193 240.536 147.522 240.814 146.822 240.816ZM65.373 116.995C64.702 116.995 64.0585 117.261 63.5836 117.735C63.1088 118.209 62.8414 118.852 62.8402 119.523V238.175C62.8414 238.846 63.1088 239.489 63.5836 239.963C64.0585 240.437 64.702 240.703 65.373 240.703H146.822C147.492 240.703 148.136 240.437 148.61 239.962C149.084 239.488 149.35 238.845 149.35 238.175V119.523C149.35 118.853 149.084 118.21 148.61 117.735C148.136 117.261 147.492 116.995 146.822 116.995H65.373Z" fill="#E9E9E9"/>
<path d="M369 268.338H31V268.392H369V268.338Z" fill="#E9E9E9"/>
<path d="M350.685 281.579H325.569V281.768H350.685V281.579Z" fill="#EBEBEB"/>
<path d="M260.691 283.634H254.098V283.823H260.691V283.634Z" fill="#EBEBEB"/>
<path d="M82.0644 275.81H49.3145V275.999H82.0644V275.81Z" fill="#EBEBEB"/>
<path d="M93.6244 275.81H88.8203V275.999H93.6244V275.81Z" fill="#EBEBEB"/>
<path d="M180.26 279.01H109.23V279.199H180.26V279.01Z" fill="#EBEBEB"/>
<path d="M169.043 168.777C168.303 168.33 167.446 168.115 166.582 168.159C166.055 167.515 166.483 166.551 166.993 165.906C167.502 165.262 168.133 164.509 167.939 163.698C167.637 162.481 165.929 162.431 164.699 162.67C164.248 161.936 164.248 161.025 164.032 160.174C163.815 159.322 163.09 158.434 162.283 158.556C161.476 158.677 160.981 159.565 160.188 159.754C159.264 159.971 158.461 159.155 157.74 158.542C157.65 158.467 157.555 158.396 157.456 158.33C157.61 155.798 160.021 156.203 162.071 155.856C163.676 155.59 159.426 151.534 162.666 150.227C163.295 150.055 163.846 149.673 164.23 149.146C164.394 148.746 164.413 148.302 164.283 147.89C164.152 147.478 163.882 147.125 163.518 146.892C162.78 146.449 161.926 146.235 161.066 146.28C160.539 145.635 160.963 144.666 161.476 144.026C161.99 143.386 162.612 142.629 162.423 141.818C162.116 140.601 160.413 140.552 159.183 140.79C158.732 140.056 158.732 139.141 158.516 138.294C158.299 137.446 157.578 136.554 156.767 136.671C155.956 136.789 155.465 137.685 154.667 137.875C153.743 138.091 152.945 137.271 152.22 136.662C151.494 136.054 150.232 135.666 149.737 136.473C149.439 136.951 149.615 137.618 149.286 138.095C148.75 138.907 147.483 138.406 146.681 137.825C145.879 137.244 144.617 136.712 144.076 137.523C143.936 137.789 143.833 138.072 143.77 138.366C143.691 138.574 143.583 138.769 143.45 138.947C143.292 138.384 143.242 137.775 143.098 137.208C142.877 136.365 142.156 135.468 141.345 135.585C140.534 135.702 140.043 136.604 139.25 136.789C138.326 137.009 137.528 136.185 136.802 135.576C136.077 134.968 134.815 134.58 134.315 135.391C134.017 135.869 134.198 136.536 133.864 137.014C133.8 137.121 133.712 137.212 133.607 137.28C133.338 137.235 133.065 137.217 132.791 137.226C132.26 136.586 132.688 135.626 133.202 134.972C133.715 134.319 134.342 133.571 134.148 132.764C133.846 131.543 132.138 131.498 130.903 131.737C130.453 130.997 130.453 130.083 130.241 129.24C130.029 128.397 129.299 127.496 128.488 127.622C127.676 127.748 127.185 128.636 126.392 128.825C125.468 129.042 124.67 128.23 123.945 127.613C123.219 126.996 121.957 126.621 121.457 127.424C121.164 127.874 121.34 128.573 121.007 129.046C120.47 129.853 119.204 129.353 118.406 128.771C117.609 128.19 116.338 127.658 115.797 128.469C115.653 128.735 115.548 129.021 115.486 129.316C115.116 130.398 113.94 130.939 113.034 131.628C112.128 132.318 111.407 133.701 112.173 134.544C112.552 134.963 113.224 135.121 113.413 135.662C113.643 136.297 112.962 136.919 112.43 137.379C112.083 137.765 111.848 138.239 111.753 138.749C111.657 139.26 111.705 139.787 111.89 140.272C111.619 140.516 111.3 140.699 110.952 140.808C110.051 141.025 109.231 140.209 108.505 139.601C107.779 138.992 106.518 138.605 106.022 139.411C105.724 139.862 105.9 140.556 105.571 141.034C105.035 141.84 103.769 141.345 102.971 140.763C102.173 140.182 100.902 139.65 100.362 140.461C100.221 140.727 100.116 141.011 100.051 141.304C99.681 142.381 98.5048 142.922 97.5989 143.616C96.6931 144.31 95.972 145.685 96.7382 146.532C97.1032 146.956 97.7296 147.127 97.9459 147.614C97.306 147.361 96.5714 147.424 96.274 147.902C95.9765 148.38 96.1568 149.047 95.8233 149.52C95.2915 150.331 94.0206 149.835 93.2275 149.249C92.4343 148.664 91.1544 148.136 90.6136 148.947C90.4744 149.215 90.3714 149.5 90.3071 149.795C89.9331 150.876 88.7614 151.408 87.8555 152.102C86.9497 152.796 86.2286 154.18 86.9947 155.022C87.3733 155.437 88.0448 155.599 88.2341 156.14C88.4684 156.78 87.7834 157.402 87.2561 157.857C86.3548 158.614 86.1971 160.89 87.3778 161.517C87.8781 161.778 88.6171 161.913 88.7298 162.418C88.8425 162.923 88.3377 163.288 88.0087 163.666C87.9329 163.764 87.8651 163.868 87.8059 163.977C87.6571 164.247 87.5629 164.544 87.5288 164.85C87.4946 165.156 87.5213 165.466 87.6071 165.762C87.6929 166.058 87.8362 166.334 88.0289 166.575C88.2215 166.815 88.4597 167.015 88.7298 167.163C89.0137 167.29 89.3607 167.407 89.4689 167.704C89.5107 167.926 89.4856 168.155 89.3968 168.362C89.2851 168.776 89.247 169.206 89.2841 169.633C89.275 169.704 89.2828 169.776 89.3068 169.843C89.3308 169.91 89.3704 169.97 89.4223 170.019C89.4742 170.068 89.5369 170.104 89.6054 170.123C89.6738 170.143 89.7459 170.147 89.8159 170.133C91.5239 170.21 92.3442 169.606 93.3852 171.089C93.4775 171.239 93.6004 171.368 93.7457 171.467C93.8857 171.538 94.0397 171.576 94.1964 171.58C95.3681 171.679 96.1253 170.949 97.2069 170.809C98.7031 170.62 99.0095 171.386 100.325 172.004C102.381 172.977 103.381 172.378 103.773 170.972C103.874 170.573 103.934 170.165 103.953 169.755C103.95 169.448 104.012 169.145 104.137 168.865C104.261 168.585 104.445 168.335 104.674 168.132H104.706C105.801 168.227 106.545 167.601 107.505 167.407L108.117 167.339C109.258 167.339 109.636 168.015 110.821 168.556C111.368 168.837 111.97 168.991 112.584 169.007C112.755 169.647 112.133 170.219 111.588 170.661C110.686 171.422 110.538 173.698 111.718 174.32C112.21 174.581 112.958 174.726 113.07 175.221C113.183 175.717 112.678 176.091 112.349 176.465C112.272 176.561 112.205 176.664 112.146 176.772C111.847 177.318 111.776 177.961 111.949 178.56C112.122 179.159 112.525 179.665 113.07 179.967C113.35 180.102 113.701 180.21 113.805 180.503C113.851 180.727 113.827 180.96 113.737 181.17C113.621 181.582 113.583 182.011 113.625 182.437C113.616 182.507 113.623 182.579 113.647 182.646C113.671 182.713 113.711 182.774 113.763 182.822C113.815 182.871 113.877 182.907 113.946 182.927C114.014 182.947 114.086 182.95 114.156 182.937C115.864 183.013 116.685 182.409 117.726 183.892C117.814 184.044 117.936 184.174 118.082 184.271C118.23 184.342 118.391 184.383 118.555 184.392C119.727 184.487 120.484 183.752 121.565 183.617C123.057 183.428 123.368 184.194 124.675 184.812C126.739 185.78 127.74 185.186 128.127 183.78C128.231 183.38 128.293 182.971 128.312 182.558C128.465 180.03 130.876 180.431 132.931 180.089C133.003 180.084 133.072 180.06 133.132 180.02C133.191 179.979 133.239 179.924 133.269 179.859H133.4C134.572 179.953 135.329 179.223 136.406 179.084C137.907 178.894 138.209 179.66 139.524 180.278C141.584 181.251 142.584 180.652 142.972 179.246C143.076 178.846 143.138 178.437 143.157 178.025C143.292 176.06 144.779 175.866 146.397 175.713C146.422 176.096 146.544 176.466 146.753 176.789C146.961 177.111 147.248 177.375 147.587 177.556C147.875 177.687 148.222 177.799 148.33 178.097C148.37 178.318 148.345 178.547 148.258 178.755C148.144 179.166 148.106 179.596 148.146 180.021C148.142 180.167 148.196 180.309 148.294 180.418C148.406 180.493 148.538 180.531 148.673 180.526C150.381 180.602 151.201 179.998 152.247 181.486C152.338 181.634 152.459 181.762 152.603 181.86C152.742 181.932 152.896 181.972 153.053 181.977C154.225 182.071 154.982 181.341 156.064 181.202C157.56 181.012 157.867 181.779 159.183 182.396C161.242 183.369 162.243 182.77 162.63 181.364C162.732 180.966 162.794 180.558 162.815 180.147C162.964 177.614 165.379 178.02 167.434 177.673C169.039 177.407 164.78 173.351 168.025 172.044C168.652 171.871 169.202 171.49 169.584 170.963C169.75 170.59 169.786 170.173 169.688 169.777C169.59 169.381 169.363 169.029 169.043 168.777Z" fill="#E9E9E9"/>
<path d="M109.358 183.879C108.744 183.504 108.03 183.325 107.312 183.365C106.861 182.824 107.231 182.013 107.654 181.477C108.078 180.94 108.605 180.332 108.439 179.634C108.195 178.615 106.776 178.583 105.735 178.782C105.351 178.164 105.365 177.398 105.167 176.7C104.968 176.001 104.423 175.271 103.707 175.348C102.99 175.424 102.62 176.195 101.958 176.348C101.192 176.533 100.52 175.852 99.9209 175.343C99.3216 174.834 98.2625 174.514 97.8434 175.181C97.6 175.582 97.7487 176.15 97.4919 176.533C97.0412 177.222 95.9821 176.794 95.3196 176.308C94.6572 175.821 93.6026 175.379 93.1429 176.055C93.0301 176.279 92.9439 176.515 92.886 176.758C92.5796 177.66 91.6061 178.11 90.8445 178.683C90.0829 179.255 89.4925 180.4 90.1325 181.116C90.4479 181.463 91.0023 181.607 91.16 182.049C91.3538 182.617 90.7904 183.099 90.3443 183.478C89.6007 184.113 89.443 186.01 90.4479 186.524C90.8626 186.741 91.471 186.813 91.5881 187.268C91.7053 187.723 91.2682 187.993 91.0158 188.309C90.6989 188.719 90.5576 189.238 90.6226 189.753C90.6876 190.267 90.9538 190.735 91.3628 191.053C91.4439 191.116 91.5298 191.171 91.6197 191.22C91.854 191.333 92.1424 191.427 92.2281 191.671C92.273 191.862 92.254 192.063 92.174 192.243C92.0773 192.586 92.0452 192.943 92.0794 193.298C92.0793 193.419 92.1242 193.536 92.2055 193.627C92.297 193.693 92.4082 193.726 92.521 193.721C93.9406 193.784 94.6256 193.271 95.4954 194.515C95.5714 194.639 95.6727 194.747 95.7928 194.83C95.9147 194.891 96.0488 194.923 96.1849 194.925C97.1629 195.006 97.7983 194.402 98.6951 194.285C99.9345 194.127 100.196 194.767 101.286 195.281C103.004 196.087 103.842 195.592 104.148 194.415C104.233 194.085 104.285 193.747 104.301 193.406C104.428 191.297 106.438 191.603 108.15 191.342C109.502 191.117 105.946 187.737 108.641 186.65C109.167 186.51 109.627 186.192 109.944 185.749C110.082 185.418 110.099 185.049 109.992 184.707C109.884 184.365 109.66 184.072 109.358 183.879Z" fill="#E9E9E9"/>
<path d="M135.504 172.22L137.708 165.23L141.998 159.714L141.263 159.101L137.207 163.513L136.491 156.523H135.319C135.319 156.523 136.279 164.829 134.896 167.866C134.896 167.866 129.866 180.665 126.784 183.432C126.612 183.595 126.46 183.778 126.333 183.978C125.417 181.621 124.223 179.382 122.777 177.308C123.989 174.216 126.581 167.416 127.464 163.788C128.153 160.968 128.671 158.108 129.014 155.225L128.014 155.113C128.014 155.113 125.166 168.551 120.461 174.671C119.069 173.388 117.49 172.325 115.778 171.517C115.395 169.629 115.233 166.343 116.481 161.21L115.49 160.958C114.283 163.996 113.693 167.243 113.755 170.512C113.047 170.155 112.365 169.75 111.713 169.3C107.211 166.091 104.007 160.322 104.007 160.322L103.106 161.224C103.106 161.224 106.977 169.719 112.367 172.558C117.757 175.397 121.254 182.31 121.533 184.122C121.61 184.64 122.232 188.746 121.367 195.938C115.63 193.491 104.241 186.754 103.507 186.132L102.182 187.935L120.578 201.094C120.866 218.634 119.541 236.882 119.586 240.829H130.299C130.037 235.385 127.78 214.902 128.78 193.509C128.866 192.982 128.956 192.378 129.041 191.675C129.88 185.113 134.859 176.141 137.23 173.59C138.896 171.828 140.688 170.191 142.593 168.691L141.944 167.294L135.504 172.22Z" fill="#F7F7F7"/>
<path d="M220.279 118.005C220.278 117.332 220.01 116.687 219.534 116.212C219.059 115.736 218.414 115.469 217.742 115.467C217.496 115.467 217.251 115.503 217.016 115.576C217.052 115.317 217.07 115.057 217.07 114.796C217.07 113.374 216.507 112.011 215.503 111.004C214.5 109.997 213.138 109.429 211.716 109.424C211.385 109.424 211.055 109.455 210.729 109.514C210.2 108.644 209.401 107.969 208.455 107.593C207.508 107.216 206.465 107.157 205.482 107.425C204.499 107.693 203.63 108.274 203.006 109.079C202.382 109.884 202.037 110.87 202.022 111.889H201.941C200.817 111.925 199.752 112.397 198.97 113.205C198.187 114.013 197.75 115.093 197.75 116.218C197.75 117.342 198.187 118.423 198.97 119.23C199.752 120.038 200.817 120.51 201.941 120.546H217.832C218.49 120.524 219.114 120.246 219.571 119.772C220.028 119.297 220.282 118.663 220.279 118.005Z" fill="#F0F0F0"/>
<path d="M261.102 143.197C261.102 142.573 260.854 141.975 260.413 141.533C259.972 141.092 259.373 140.844 258.749 140.844C258.522 140.841 258.295 140.875 258.078 140.944C258.11 140.703 258.127 140.461 258.127 140.218C258.12 138.901 257.592 137.64 256.658 136.711C255.724 135.782 254.46 135.261 253.143 135.261C252.841 135.261 252.539 135.289 252.242 135.342C251.75 134.537 251.01 133.913 250.133 133.565C249.257 133.216 248.29 133.161 247.38 133.409C246.47 133.656 245.664 134.192 245.085 134.937C244.505 135.681 244.182 136.593 244.166 137.537H244.094C243.029 137.537 242.007 137.96 241.254 138.713C240.501 139.466 240.078 140.487 240.078 141.552C240.078 142.617 240.501 143.638 241.254 144.391C242.007 145.144 243.029 145.567 244.094 145.567H258.835C259.447 145.546 260.027 145.287 260.451 144.844C260.874 144.401 261.108 143.81 261.102 143.197Z" fill="#E9E9E9"/>
<path d="M125.915 109.992C125.915 109.616 125.766 109.257 125.501 108.991C125.235 108.726 124.875 108.577 124.5 108.577C124.362 108.573 124.225 108.593 124.094 108.635C124.113 108.486 124.122 108.335 124.121 108.185C124.118 107.394 123.802 106.637 123.242 106.079C122.682 105.521 121.924 105.207 121.133 105.206C120.948 105.204 120.762 105.221 120.579 105.255C120.284 104.771 119.838 104.395 119.311 104.185C118.783 103.975 118.202 103.943 117.654 104.092C117.106 104.242 116.622 104.565 116.274 105.014C115.926 105.463 115.734 106.013 115.725 106.58H115.68C115.058 106.607 114.471 106.873 114.04 107.323C113.61 107.772 113.369 108.371 113.369 108.994C113.369 109.616 113.61 110.215 114.04 110.664C114.471 111.114 115.058 111.38 115.68 111.407H124.541C124.909 111.396 125.258 111.243 125.515 110.978C125.772 110.714 125.915 110.36 125.915 109.992Z" fill="#F0F0F0"/>
<path d="M331.594 117.892C331.594 117.568 331.53 117.247 331.406 116.947C331.281 116.648 331.099 116.376 330.87 116.147C330.641 115.918 330.368 115.737 330.069 115.613C329.769 115.489 329.448 115.426 329.124 115.427C328.886 115.425 328.649 115.46 328.421 115.53C328.457 115.28 328.475 115.027 328.475 114.773C328.472 114.007 328.302 113.25 327.975 112.557C327.648 111.863 327.173 111.25 326.583 110.76C325.994 110.27 325.304 109.916 324.563 109.721C323.821 109.527 323.046 109.498 322.292 109.636C321.776 108.791 320.999 108.137 320.079 107.772C319.158 107.407 318.145 107.35 317.19 107.611C316.235 107.872 315.39 108.435 314.783 109.217C314.176 110 313.839 110.958 313.824 111.947H313.747C312.631 111.947 311.56 112.391 310.771 113.18C309.982 113.97 309.538 115.04 309.538 116.157C309.538 117.273 309.982 118.344 310.771 119.133C311.56 119.922 312.631 120.366 313.747 120.366H329.196C329.84 120.348 330.451 120.08 330.899 119.617C331.347 119.155 331.596 118.536 331.594 117.892Z" fill="#F0F0F0"/>
<path d="M198.936 147.87C198.936 147.13 198.642 146.421 198.119 145.898C197.596 145.374 196.886 145.081 196.146 145.081C195.876 145.081 195.607 145.121 195.349 145.198C195.391 144.914 195.41 144.628 195.407 144.341C195.406 143.475 195.214 142.619 194.845 141.834C194.476 141.05 193.939 140.356 193.272 139.802C192.605 139.248 191.824 138.848 190.985 138.629C190.146 138.41 189.27 138.379 188.417 138.537C187.835 137.581 186.958 136.839 185.918 136.425C184.878 136.011 183.732 135.947 182.652 136.241C181.572 136.536 180.617 137.173 179.931 138.058C179.245 138.943 178.866 140.027 178.85 141.146H178.76C177.533 141.2 176.375 141.724 175.526 142.611C174.677 143.498 174.203 144.678 174.203 145.905C174.203 147.133 174.677 148.313 175.526 149.2C176.375 150.086 177.533 150.611 178.76 150.664H196.227C196.954 150.644 197.644 150.341 198.151 149.819C198.657 149.297 198.938 148.597 198.936 147.87Z" fill="#E9E9E9"/>
<path d="M307.222 240.667H310.129V136.915C310.129 134.405 309.131 131.997 307.357 130.223C305.582 128.448 303.175 127.451 300.665 127.451H298.096V130.357H300.665C302.397 130.36 304.058 131.049 305.283 132.274C306.508 133.499 307.197 135.16 307.199 136.892L307.222 240.667Z" fill="#E9E9E9"/>
<path d="M279.511 131.029H300.44L299.962 127.874C299.884 127.358 299.642 126.881 299.272 126.512C298.902 126.144 298.423 125.904 297.907 125.828C296.528 125.625 294.725 125.378 293.878 125.378C291.404 125.323 285.315 125.959 282.314 126.279C281.817 126.333 281.349 126.539 280.974 126.869C280.599 127.199 280.335 127.636 280.218 128.122L279.511 131.029Z" fill="#EBEBEB"/>
<path d="M281.724 133.242H298.245C298.831 133.242 299.393 133.009 299.808 132.595C300.223 132.181 300.457 131.62 300.458 131.033H279.511C279.511 131.324 279.568 131.611 279.679 131.88C279.791 132.148 279.954 132.391 280.159 132.597C280.365 132.802 280.609 132.964 280.877 133.075C281.146 133.186 281.433 133.242 281.724 133.242Z" fill="#F5F5F5"/>
<path d="M297.277 147.208C297.255 147.207 297.233 147.2 297.215 147.187C297.196 147.174 297.182 147.156 297.173 147.136L293.248 137.879C293.242 137.865 293.239 137.85 293.239 137.835C293.239 137.82 293.242 137.805 293.248 137.791C293.254 137.777 293.263 137.765 293.274 137.754C293.284 137.744 293.297 137.736 293.311 137.73C293.324 137.724 293.339 137.72 293.353 137.719C293.368 137.719 293.383 137.721 293.397 137.727C293.41 137.732 293.422 137.741 293.433 137.751C293.443 137.762 293.451 137.775 293.455 137.789L297.381 147.05C297.387 147.064 297.39 147.078 297.39 147.093C297.39 147.108 297.388 147.123 297.382 147.137C297.377 147.15 297.369 147.163 297.358 147.174C297.348 147.184 297.336 147.193 297.322 147.199L297.277 147.208Z" fill="#E9E9E9"/>
<path d="M289.178 153.085C289.148 153.085 289.12 153.073 289.098 153.052C289.077 153.031 289.065 153.002 289.065 152.972C289.065 150.3 289.151 147.807 289.232 145.401C289.313 142.994 289.394 140.507 289.394 137.834C289.394 137.804 289.406 137.776 289.427 137.754C289.449 137.733 289.477 137.721 289.507 137.721C289.537 137.721 289.566 137.733 289.587 137.754C289.608 137.776 289.62 137.804 289.62 137.834C289.62 140.507 289.534 142.999 289.458 145.405C289.381 147.812 289.291 150.3 289.291 152.972C289.291 153.002 289.279 153.031 289.258 153.052C289.237 153.073 289.208 153.085 289.178 153.085Z" fill="#E9E9E9"/>
<path d="M280.507 145.067C280.481 145.067 280.456 145.059 280.435 145.045C280.424 145.035 280.415 145.022 280.409 145.009C280.403 144.995 280.4 144.981 280.4 144.966C280.4 144.951 280.403 144.936 280.409 144.923C280.415 144.909 280.424 144.897 280.435 144.887L286.144 137.338C286.153 137.326 286.164 137.316 286.177 137.309C286.19 137.301 286.204 137.296 286.219 137.294C286.233 137.292 286.248 137.293 286.263 137.297C286.277 137.3 286.29 137.307 286.302 137.316C286.313 137.326 286.322 137.338 286.327 137.352C286.333 137.365 286.336 137.38 286.336 137.395C286.336 137.409 286.333 137.424 286.327 137.438C286.322 137.451 286.313 137.463 286.302 137.473L280.574 145.004C280.568 145.019 280.559 145.032 280.548 145.043C280.536 145.054 280.522 145.062 280.507 145.067Z" fill="#E9E9E9"/>
<path d="M318.346 294.003C318.346 295.531 265.362 296.766 200.001 296.766C134.641 296.766 81.6562 295.522 81.6562 294.003C81.6562 292.485 134.655 291.241 200.001 291.241C265.348 291.241 318.346 292.48 318.346 294.003Z" fill="#F5F5F5"/>
<path d="M58.8868 123.724H103.336C104.907 123.724 106.413 124.348 107.523 125.458C108.634 126.569 109.258 128.075 109.258 129.646V224.853C109.258 226.885 108.451 228.834 107.014 230.271C105.577 231.708 103.628 232.515 101.596 232.515H60.6398C58.6079 232.515 56.6592 231.708 55.2225 230.271C53.7857 228.834 52.9785 226.885 52.9785 224.853V129.646C52.9785 128.077 53.6006 126.573 54.7082 125.463C55.8158 124.353 57.3186 123.727 58.8868 123.724Z" fill="#263238"/>
<path d="M92.781 126.167L91.8796 127.969H69.8511L68.5441 126.167H58.1292C57.7357 126.164 57.3455 126.239 56.981 126.388C56.6164 126.536 56.2847 126.755 56.0048 127.032C55.7248 127.308 55.5021 127.637 55.3493 128C55.1965 128.363 55.1166 128.752 55.1143 129.145V225.137C55.1214 226.339 55.6053 227.489 56.4597 228.334C57.314 229.179 58.4689 229.65 59.6705 229.644H102.551C103.147 229.648 103.737 229.534 104.288 229.309C104.839 229.085 105.34 228.754 105.764 228.335C106.187 227.917 106.523 227.419 106.754 226.87C106.984 226.321 107.105 225.733 107.108 225.137V129.145C107.105 128.752 107.025 128.363 106.873 128C106.72 127.637 106.497 127.308 106.217 127.032C105.937 126.755 105.605 126.536 105.241 126.388C104.876 126.239 104.486 126.164 104.093 126.167H92.781Z" fill="#111114"/>
<path d="M80.1812 126.901C80.6815 126.901 81.0871 126.495 81.0871 125.995C81.0871 125.495 80.6815 125.089 80.1812 125.089C79.6809 125.089 79.2754 125.495 79.2754 125.995C79.2754 126.495 79.6809 126.901 80.1812 126.901Z" fill="white"/>
<path d="M82.4257 125.995C82.4257 126.084 82.3993 126.171 82.3498 126.245C82.3003 126.32 82.2299 126.377 82.1475 126.411C82.0652 126.446 81.9746 126.454 81.8872 126.437C81.7997 126.42 81.7194 126.377 81.6564 126.314C81.5934 126.251 81.5505 126.17 81.5331 126.083C81.5157 125.996 81.5246 125.905 81.5587 125.823C81.5928 125.74 81.6506 125.67 81.7247 125.62C81.7988 125.571 81.8859 125.544 81.9751 125.544C82.0946 125.544 82.2092 125.592 82.2938 125.676C82.3783 125.761 82.4257 125.876 82.4257 125.995Z" fill="white"/>
<path d="M104.093 126.167H92.781L91.8796 127.969H69.8511L68.5441 126.167H58.1292C57.7357 126.164 57.3455 126.239 56.981 126.388C56.6164 126.536 56.2847 126.755 56.0048 127.032C55.7248 127.308 55.5021 127.637 55.3493 128C55.1965 128.363 55.1166 128.752 55.1143 129.145V153.702H107.108V129.145C107.105 128.752 107.025 128.363 106.873 128C106.72 127.637 106.497 127.308 106.217 127.032C105.937 126.755 105.605 126.536 105.241 126.388C104.876 126.239 104.486 126.164 104.093 126.167Z" fill="#111114"/>
<path opacity="0.6" d="M100.372 128.055H99.9668V128.97H100.372V128.055Z" fill="white"/>
<path opacity="0.6" d="M103.896 127.721H100.651V129.308H103.896V127.721Z" fill="white"/>
<path opacity="0.4" d="M107.092 149.592H55.1748V226.467H107.092V149.592Z" fill="white"/>
<path opacity="0.2" d="M107.091 161.418V157.569L94.878 168.836L81.9799 164.541L90.0604 149.597H86.8111L83.368 155.951L58.3785 149.588H55.1833V151.656L64.5887 154.04L56.9544 167.484L74.8594 171.693L72.7322 175.645L55.1562 171.242V174.122L71.3397 178.178L66.121 187.849L57.8467 185.524L55.1743 187.21V190.549L58.3289 188.562L64.769 190.364L55.1743 208.093V214.11L61.4431 202.519L69.9697 204.939V215.516L87.3339 226.467H93.0123L72.8539 213.758V205.745L107.105 215.448V212.546L96.888 209.639L100.011 193.032L107.123 194.835V191.96L87.9197 187.101L96.4328 171.265L107.091 161.418ZM61.2898 165.632L67.473 154.784L82.0115 158.489L76.2429 169.151L61.2898 165.632ZM97.1809 192.32L94.0939 208.86L62.8041 199.981L71.565 183.757L74.918 187.363L85.4546 189.35L97.1809 192.32ZM85.0129 186.434L76.4502 184.807L73.0162 181.135L80.646 167.02L93.1925 171.206L85.0129 186.434Z" fill="black"/>
<path opacity="0.6" d="M98.0776 145.297H67.9551C67.4415 145.297 66.9488 145.094 66.5848 144.732C66.2208 144.369 66.0151 143.877 66.0127 143.364C66.0139 142.85 66.2184 142.358 66.5816 141.995C66.9448 141.632 67.437 141.427 67.9506 141.426H98.0776C98.3321 141.427 98.5839 141.479 98.8185 141.577C99.0532 141.675 99.2662 141.819 99.4453 142C99.6244 142.181 99.7661 142.395 99.8624 142.631C99.9587 142.866 100.008 143.118 100.006 143.373C100.003 143.883 99.7984 144.371 99.4373 144.731C99.0762 145.092 98.5877 145.295 98.0776 145.297Z" fill="white"/>
<path d="M63.66 141.99C63.5223 141.851 63.3586 141.742 63.1784 141.667C62.9982 141.592 62.805 141.554 62.6099 141.554C62.4148 141.554 62.2217 141.592 62.0415 141.667C61.8613 141.742 61.6976 141.851 61.5599 141.99C61.2874 142.268 61.1348 142.641 61.1348 143.031C61.1348 143.42 61.2874 143.794 61.5599 144.072L62.6009 145.113L63.642 144.072C63.9169 143.796 64.0728 143.424 64.0761 143.034C64.0795 142.645 63.9301 142.27 63.66 141.99ZM63.0786 143.508C62.986 143.601 62.8679 143.664 62.7394 143.689C62.6109 143.715 62.4778 143.702 62.3568 143.652C62.2358 143.601 62.1323 143.517 62.0596 143.408C61.9868 143.299 61.948 143.171 61.948 143.04C61.948 142.909 61.9868 142.781 62.0596 142.672C62.1323 142.563 62.2358 142.478 62.3568 142.428C62.4778 142.378 62.6109 142.364 62.7394 142.39C62.8679 142.415 62.986 142.478 63.0786 142.571C63.1408 142.632 63.1901 142.705 63.2238 142.786C63.2575 142.866 63.2748 142.952 63.2748 143.04C63.2748 143.127 63.2575 143.213 63.2238 143.294C63.1901 143.374 63.1408 143.447 63.0786 143.508Z" fill="white"/>
<path d="M95.1625 208.287C94.7922 208.3 94.434 208.422 94.1325 208.638C93.831 208.853 93.5995 209.153 93.4669 209.498C93.3343 209.844 93.3064 210.222 93.3867 210.584C93.467 210.945 93.652 211.275 93.9185 211.533C94.1851 211.79 94.5215 211.963 94.8859 212.031C95.2502 212.098 95.6263 212.057 95.9675 211.913C96.3086 211.768 96.5996 211.526 96.8042 211.217C97.0089 210.908 97.1181 210.546 97.1184 210.176C97.1143 209.923 97.0604 209.674 96.9598 209.442C96.8592 209.21 96.7139 209.001 96.5323 208.826C96.3506 208.65 96.1361 208.512 95.901 208.42C95.666 208.328 95.415 208.282 95.1625 208.287ZM95.1625 211.401C94.9208 211.393 94.6869 211.314 94.4899 211.174C94.2929 211.034 94.1415 210.839 94.0547 210.613C93.968 210.388 93.9496 210.141 94.0019 209.905C94.0542 209.669 94.1749 209.454 94.3489 209.286C94.5229 209.118 94.7426 209.005 94.9803 208.962C95.2181 208.918 95.4635 208.945 95.6859 209.04C95.9083 209.135 96.0978 209.293 96.2307 209.495C96.3636 209.697 96.4341 209.934 96.4334 210.176C96.4304 210.339 96.3952 210.501 96.3298 210.652C96.2643 210.802 96.1699 210.938 96.0519 211.052C95.9338 211.166 95.7946 211.255 95.642 211.315C95.4894 211.375 95.3264 211.404 95.1625 211.401Z" fill="white"/>
<path d="M95.9365 210.175C95.9419 210.33 95.9011 210.482 95.8193 210.613C95.7374 210.744 95.6183 210.847 95.4772 210.91C95.3362 210.973 95.1795 210.992 95.0274 210.966C94.8753 210.939 94.7347 210.867 94.6236 210.76C94.5124 210.653 94.4359 210.515 94.4037 210.364C94.3716 210.213 94.3852 210.055 94.443 209.912C94.5008 209.769 94.6001 209.646 94.7281 209.56C94.8561 209.473 95.007 209.427 95.1614 209.427C95.3631 209.425 95.5575 209.502 95.7027 209.642C95.8478 209.782 95.9318 209.974 95.9365 210.175Z" fill="white"/>
<path opacity="0.4" d="M88.4605 156.217L84.3369 163.901L94.8825 167.024L100.705 161.224C96.5283 159.798 92.4395 158.126 88.4605 156.217Z" fill="white"/>
<path opacity="0.4" d="M107.091 149.588V154.834L101.931 160.007C98.461 158.813 95.036 157.524 91.701 156.028C90.8583 155.654 90.02 155.262 89.1953 154.856L92.003 149.588H107.091Z" fill="white"/>
<path opacity="0.4" d="M81.1338 168.723L90.9268 171.909L86.028 181.797L76.0908 178.714L81.1338 168.723Z" fill="white"/>
<path opacity="0.4" d="M90.9385 185.745C91.0241 185.479 95.7516 176.037 95.7516 176.037L102.755 178.142L103.99 188.818L90.9385 185.745Z" fill="white"/>
<path opacity="0.4" d="M97.4561 174.145L104.793 176.037L105.383 167.998L98.7585 171.495L97.4561 174.145Z" fill="white"/>
<path opacity="0.4" d="M76.5898 200.387C76.7386 200.27 79.9924 190.594 79.9924 190.594L95.1618 193.172L92.6336 206.088L76.5898 200.387Z" fill="white"/>
<path opacity="0.4" d="M68.4292 194.857L73.0035 196.313L70.7141 200.369C70.7141 200.369 65.8965 199.301 65.8965 198.99C65.8965 198.679 68.4292 194.857 68.4292 194.857Z" fill="white"/>
<path opacity="0.4" d="M68.6813 207.107C68.5686 207.373 65.788 226.485 65.788 226.485H55.1748L55.4903 219.982L61.9168 205.696L68.6813 207.107Z" fill="white"/>
<path opacity="0.4" d="M107.091 216.534V224.597L95.4863 225.048L85.4004 217.796C85.4004 217.796 87.1355 212.974 87.6537 211.442L107.091 216.534Z" fill="white"/>
<path opacity="0.4" d="M86.1031 211.009L77.3917 208.72L76.1523 212.852L84.039 216.967C84.039 216.967 86.1031 211.401 86.1031 211.009Z" fill="white"/>
<path opacity="0.4" d="M107.092 199.99V208.797L99.0742 207.107L100.706 198.774L107.092 199.99Z" fill="white"/>
<path opacity="0.4" d="M59.1221 183.113L61.6638 177.507L68.7438 179.521L65.8956 185.38L59.1221 183.113Z" fill="white"/>
<path opacity="0.4" d="M65.5713 163.608L69.064 157.506L78.5325 160.156L75.3553 166.673L65.5713 163.608Z" fill="white"/>
<path opacity="0.4" d="M84.4954 149.588C83.5941 151.3 82.4854 153.477 82.3052 153.617C82.1249 153.757 70.4166 150.89 65.252 149.588H84.4954Z" fill="white"/>
<path opacity="0.4" d="M61.6599 155.717L55.1748 168.795V154.09L61.6599 155.717Z" fill="white"/>
<path d="M95.9364 207.904H95.8643C95.7614 207.886 95.6693 207.829 95.6072 207.746C95.5451 207.662 95.5177 207.557 95.5308 207.453L98.3475 191.752C91.0147 189.594 83.5652 187.855 76.035 186.542C75.9459 186.528 75.8638 186.485 75.8007 186.421L71.0461 181.463C70.9894 181.405 70.9528 181.329 70.9415 181.248C70.9301 181.167 70.9447 181.085 70.983 181.013L76.5172 170.742L59.0719 166.934C59.0197 166.924 58.9701 166.903 58.926 166.873C58.8819 166.844 58.8442 166.806 58.8152 166.761C58.7862 166.716 58.7664 166.666 58.7571 166.614C58.7478 166.562 58.7491 166.508 58.761 166.456C58.7698 166.42 58.7834 166.385 58.8015 166.353L64.6602 156.014C64.7208 155.925 64.8115 155.86 64.9157 155.832C65.0199 155.804 65.1307 155.814 65.228 155.861C65.2753 155.886 65.317 155.92 65.3506 155.962C65.3843 156.003 65.4093 156.051 65.424 156.102C65.4387 156.154 65.4429 156.207 65.4364 156.26C65.4298 156.313 65.4126 156.365 65.3858 156.411L59.7479 166.289L77.1842 170.098C77.2361 170.108 77.2854 170.129 77.3292 170.159C77.373 170.189 77.4104 170.227 77.4393 170.272C77.4682 170.316 77.488 170.366 77.4976 170.418C77.5072 170.47 77.5064 170.523 77.4952 170.575C77.4892 170.609 77.477 170.641 77.4591 170.67L71.8303 181.121L76.2919 185.776C83.932 187.112 91.4887 188.888 98.9244 191.094C99.0192 191.121 99.1008 191.181 99.1532 191.265C99.2057 191.348 99.2253 191.448 99.2083 191.545L96.3466 207.57C96.3285 207.666 96.2774 207.751 96.2024 207.812C96.1274 207.873 96.0332 207.906 95.9364 207.904Z" fill="white"/>
<path d="M66.8779 150.858C66.4567 150.446 65.8904 150.214 65.3006 150.214C64.7107 150.214 64.1444 150.446 63.7232 150.858C63.3104 151.28 63.0791 151.846 63.0791 152.436C63.0791 153.026 63.3104 153.592 63.7232 154.013L65.3006 155.59L66.8779 154.013C67.2908 153.592 67.522 153.026 67.522 152.436C67.522 151.846 67.2908 151.28 66.8779 150.858ZM65.9766 153.148C65.8361 153.289 65.657 153.385 65.462 153.424C65.267 153.463 65.0648 153.443 64.8811 153.367C64.6973 153.291 64.5402 153.162 64.4296 152.997C64.3191 152.831 64.2601 152.637 64.2601 152.438C64.2601 152.239 64.3191 152.045 64.4296 151.879C64.5402 151.714 64.6973 151.585 64.8811 151.509C65.0648 151.433 65.267 151.414 65.462 151.453C65.657 151.492 65.8361 151.587 65.9766 151.728C66.0729 151.821 66.1498 151.931 66.2029 152.054C66.256 152.176 66.2843 152.308 66.2859 152.441C66.2876 152.574 66.2627 152.707 66.2127 152.831C66.1627 152.954 66.0885 153.067 65.9946 153.161L65.9766 153.148Z" fill="white"/>
<path d="M92.0016 151.602H73.0691C72.1308 151.602 71.3701 152.363 71.3701 153.301V159.741C71.3701 160.679 72.1308 161.44 73.0691 161.44H92.0016C92.94 161.44 93.7007 160.679 93.7007 159.741V153.301C93.7007 152.363 92.94 151.602 92.0016 151.602Z" fill="white"/>
<path d="M76.6026 156.366C77.3518 156.366 77.9591 155.758 77.9591 155.009C77.9591 154.26 77.3518 153.653 76.6026 153.653C75.8534 153.653 75.2461 154.26 75.2461 155.009C75.2461 155.758 75.8534 156.366 76.6026 156.366Z" fill="#111114"/>
<path d="M76.6027 156.523C76.0285 156.525 75.4783 156.754 75.0728 157.16C74.6672 157.566 74.4395 158.117 74.4395 158.691H78.7704C78.7704 158.406 78.7143 158.125 78.6054 157.862C78.4964 157.599 78.3367 157.36 78.1355 157.158C77.9342 156.957 77.6952 156.797 77.4322 156.688C77.1692 156.58 76.8873 156.523 76.6027 156.523Z" fill="#111114"/>
<path d="M82.6635 156.366C82.9309 156.366 83.1923 156.286 83.4147 156.138C83.637 155.989 83.8103 155.778 83.9126 155.531C84.0149 155.284 84.0417 155.012 83.9895 154.75C83.9374 154.488 83.8086 154.247 83.6195 154.058C83.4305 153.869 83.1895 153.74 82.9273 153.688C82.665 153.635 82.3932 153.662 82.1461 153.765C81.8991 153.867 81.6879 154.04 81.5394 154.262C81.3908 154.485 81.3115 154.746 81.3115 155.014C81.3115 155.372 81.454 155.716 81.7075 155.97C81.9611 156.223 82.305 156.366 82.6635 156.366Z" fill="#111114"/>
<path d="M82.6638 156.523C82.0893 156.525 81.5386 156.753 81.1323 157.16C80.726 157.566 80.4973 158.117 80.4961 158.691H84.8315C84.8315 158.116 84.6031 157.565 84.1966 157.158C83.7901 156.752 83.2387 156.523 82.6638 156.523Z" fill="#111114"/>
<path d="M88.725 156.478C88.4345 156.478 88.1504 156.392 87.9088 156.231C87.6672 156.069 87.4789 155.84 87.3677 155.571C87.2565 155.303 87.2274 155.007 87.2841 154.722C87.3408 154.437 87.4807 154.176 87.6862 153.97C87.8916 153.765 88.1534 153.625 88.4384 153.568C88.7234 153.511 89.0188 153.54 89.2873 153.652C89.5557 153.763 89.7852 153.951 89.9466 154.193C90.108 154.434 90.1942 154.718 90.1942 155.009C90.1942 155.399 90.0394 155.772 89.7639 156.048C89.4884 156.323 89.1147 156.478 88.725 156.478ZM88.725 153.774C88.479 153.774 88.2385 153.847 88.034 153.984C87.8294 154.12 87.67 154.315 87.5759 154.542C87.4817 154.769 87.4571 155.019 87.5051 155.261C87.5531 155.502 87.6716 155.724 87.8455 155.898C88.0195 156.071 88.2411 156.19 88.4824 156.238C88.7237 156.286 88.9738 156.261 89.201 156.167C89.4283 156.073 89.6226 155.914 89.7592 155.709C89.8959 155.504 89.9689 155.264 89.9689 155.018C89.9695 154.854 89.9378 154.692 89.8756 154.54C89.8134 154.388 89.7219 154.25 89.6064 154.134C89.4909 154.018 89.3536 153.925 89.2024 153.862C89.0512 153.799 88.889 153.766 88.725 153.765V153.774Z" fill="#111114"/>
<path d="M91.0059 158.804H86.4316V158.691C86.4316 158.086 86.6719 157.506 87.0995 157.079C87.5272 156.651 88.1072 156.411 88.712 156.411C89.3168 156.411 89.8968 156.651 90.3245 157.079C90.7521 157.506 90.9924 158.086 90.9924 158.691L91.0059 158.804ZM86.675 158.579H90.7761C90.7415 158.058 90.5105 157.57 90.1298 157.214C89.749 156.858 89.247 156.66 88.7255 156.66C88.204 156.66 87.7021 156.858 87.3213 157.214C86.9406 157.57 86.7095 158.058 86.675 158.579Z" fill="#111114"/>
<path d="M72.4072 151.602H68.5225C68.5225 151.602 71.7763 154.216 71.8529 154.216C71.9295 154.216 72.4072 151.602 72.4072 151.602Z" fill="white"/>
<path opacity="0.4" d="M68.6805 226.467C68.347 226.467 71.3124 220.099 71.2943 219.977C71.2132 219.468 82.25 226.467 82.25 226.467H68.6805Z" fill="white"/>
<path d="M198.945 137.586C202.132 134.495 206.406 132.782 210.845 132.816C215.285 132.849 219.533 134.628 222.672 137.767C225.812 140.905 227.591 145.153 227.625 149.592C227.66 154.032 225.947 158.307 222.857 161.494L213.308 171.048C212.67 171.685 211.806 172.043 210.906 172.043C210.005 172.043 209.141 171.685 208.503 171.048L198.945 161.489C195.777 158.319 193.997 154.02 193.997 149.538C193.997 145.056 195.777 140.757 198.945 137.586ZM210.901 157.415C212.454 157.415 213.972 156.955 215.263 156.092C216.554 155.23 217.56 154.004 218.154 152.569C218.748 151.135 218.904 149.556 218.601 148.033C218.298 146.51 217.55 145.112 216.452 144.014C215.354 142.916 213.955 142.168 212.433 141.865C210.91 141.562 209.331 141.718 207.897 142.312C206.462 142.906 205.236 143.912 204.373 145.203C203.511 146.494 203.05 148.012 203.05 149.565C203.055 151.644 203.884 153.637 205.356 155.106C206.827 156.575 208.822 157.401 210.901 157.402V157.415Z" fill="#111114"/>
<path d="M299.855 169.885H299.404V153.513H227.401V153.062H299.855V169.885Z" fill="#111114"/>
<path d="M299.628 170.76C300.621 170.76 301.426 169.955 301.426 168.961C301.426 167.968 300.621 167.163 299.628 167.163C298.635 167.163 297.83 167.968 297.83 168.961C297.83 169.955 298.635 170.76 299.628 170.76Z" fill="#111114"/>
<path d="M351.323 160.097C355.661 157.611 357.162 152.078 354.675 147.74C352.189 143.402 346.656 141.901 342.318 144.387C337.98 146.874 336.479 152.406 338.965 156.744C341.452 161.083 346.984 162.584 351.323 160.097Z" fill="#111114"/>
<path d="M340.76 155.996L338.443 155.735L337.492 158.52L340.376 158.371L340.76 155.996Z" fill="#111114"/>
<path d="M357.832 151.913C357.803 151.911 357.776 151.897 357.756 151.875C357.737 151.853 357.727 151.825 357.728 151.796C357.79 150.34 357.494 148.891 356.865 147.577C356.236 146.262 355.295 145.122 354.123 144.256C354.108 144.249 354.096 144.238 354.086 144.226C354.076 144.213 354.068 144.198 354.065 144.182C354.061 144.166 354.061 144.15 354.064 144.134C354.067 144.118 354.073 144.103 354.083 144.09C354.093 144.077 354.105 144.066 354.119 144.058C354.133 144.05 354.149 144.045 354.165 144.044C354.181 144.042 354.198 144.044 354.213 144.05C354.228 144.056 354.242 144.064 354.254 144.076C355.458 144.963 356.425 146.132 357.071 147.48C357.717 148.829 358.022 150.315 357.958 151.809C357.957 151.825 357.953 151.839 357.946 151.853C357.939 151.867 357.929 151.879 357.917 151.888C357.905 151.898 357.892 151.905 357.877 151.909C357.862 151.914 357.847 151.915 357.832 151.913Z" fill="#111114"/>
<path d="M357.461 154.572C357.447 154.577 357.431 154.577 357.416 154.572C357.402 154.567 357.39 154.559 357.379 154.549C357.368 154.539 357.36 154.527 357.354 154.513C357.349 154.499 357.346 154.485 357.347 154.47C357.347 154.455 357.351 154.441 357.358 154.428C357.522 154.024 357.603 153.592 357.596 153.157C357.595 153.142 357.597 153.127 357.602 153.113C357.607 153.099 357.615 153.087 357.625 153.076C357.635 153.065 357.648 153.057 357.661 153.051C357.675 153.046 357.69 153.043 357.705 153.044C357.72 153.043 357.735 153.045 357.749 153.05C357.763 153.054 357.776 153.062 357.787 153.072C357.798 153.083 357.807 153.095 357.813 153.109C357.819 153.122 357.822 153.137 357.822 153.152C357.828 153.616 357.741 154.076 357.565 154.504C357.556 154.524 357.542 154.542 357.523 154.554C357.505 154.566 357.483 154.572 357.461 154.572Z" fill="#111114"/>
<path d="M347.043 152.273C347.399 152.273 347.748 152.168 348.044 151.969C348.341 151.771 348.572 151.49 348.708 151.16C348.845 150.831 348.88 150.469 348.811 150.119C348.741 149.769 348.57 149.448 348.318 149.196C348.065 148.944 347.744 148.772 347.395 148.703C347.045 148.633 346.682 148.669 346.353 148.805C346.024 148.942 345.742 149.173 345.544 149.469C345.346 149.766 345.24 150.114 345.24 150.471C345.24 150.949 345.43 151.407 345.768 151.745C346.106 152.083 346.565 152.273 347.043 152.273Z" fill="white"/>
<path d="M347.042 152.485C346.661 152.485 346.284 152.56 345.932 152.706C345.58 152.852 345.261 153.066 344.992 153.335C344.723 153.605 344.509 153.925 344.364 154.277C344.218 154.629 344.144 155.006 344.145 155.387H349.945C349.945 154.618 349.639 153.879 349.095 153.335C348.55 152.791 347.812 152.485 347.042 152.485Z" fill="white"/>
<path d="M164.868 172.295C166.714 167.648 164.443 162.384 159.795 160.539C155.148 158.693 149.885 160.964 148.039 165.612C146.193 170.259 148.465 175.522 153.112 177.368C157.759 179.214 163.023 176.942 164.868 172.295Z" fill="#111114"/>
<path d="M160.013 175.1L159.387 177.348L161.983 178.727L162.298 175.857L160.013 175.1Z" fill="#111114"/>
<path d="M167.472 168.641C167.442 168.639 167.414 168.625 167.394 168.602C167.373 168.58 167.363 168.55 167.364 168.52C167.427 167.064 167.131 165.616 166.502 164.302C165.873 162.988 164.931 161.849 163.759 160.985C163.734 160.967 163.718 160.941 163.713 160.911C163.707 160.882 163.714 160.851 163.732 160.827C163.749 160.802 163.775 160.786 163.805 160.781C163.835 160.776 163.865 160.782 163.889 160.8C165.094 161.686 166.062 162.855 166.708 164.204C167.354 165.552 167.658 167.039 167.594 168.533C167.592 168.564 167.578 168.592 167.555 168.612C167.532 168.632 167.503 168.643 167.472 168.641Z" fill="#111114"/>
<path d="M167.102 171.3H167.057C167.03 171.287 167.009 171.265 166.998 171.237C166.988 171.21 166.988 171.179 166.998 171.151C167.164 170.75 167.246 170.319 167.237 169.885C167.237 169.855 167.249 169.827 167.27 169.805C167.291 169.784 167.32 169.772 167.35 169.772C167.38 169.772 167.408 169.784 167.43 169.805C167.451 169.827 167.463 169.855 167.463 169.885C167.47 170.349 167.382 170.809 167.206 171.237C167.196 171.256 167.181 171.273 167.163 171.284C167.145 171.295 167.124 171.301 167.102 171.3Z" fill="#111114"/>
<path d="M156.457 169.223C157.46 169.223 158.273 168.41 158.273 167.407C158.273 166.403 157.46 165.59 156.457 165.59C155.454 165.59 154.641 166.403 154.641 167.407C154.641 168.41 155.454 169.223 156.457 169.223Z" fill="white"/>
<path d="M156.458 169.434C155.69 169.434 154.953 169.74 154.409 170.283C153.866 170.827 153.561 171.564 153.561 172.332H159.361C159.361 171.951 159.286 171.574 159.14 171.222C158.994 170.87 158.78 170.551 158.51 170.281C158.241 170.012 157.921 169.799 157.569 169.654C157.217 169.508 156.839 169.434 156.458 169.434Z" fill="white"/>
<path d="M349.08 267.743L353.515 264.25C356.345 267.473 358.63 270.681 360.351 272.597L359.283 275.107L356.381 274.53C354.083 272.126 351.645 269.86 349.08 267.743Z" fill="#B97964"/>
<path d="M353.33 272.371L355.056 271.272C356.822 272.173 357.174 271.452 357.39 269.866C357.841 269.487 358.355 269.978 358.494 270.104L361.608 272.921C361.735 273.034 361.811 273.192 361.822 273.361C361.832 273.53 361.775 273.696 361.663 273.822C361.62 273.869 361.571 273.91 361.518 273.944L357.377 276.594L351.572 280.289C349.99 281.299 348.647 279.915 349.206 279.352C351.725 276.837 353.262 274.656 353.614 273.223C353.677 272.953 353.442 272.948 353.33 272.371Z" fill="#111114"/>
<path d="M354.578 274.016C354.562 274.02 354.545 274.02 354.529 274.016C354.308 273.915 354.068 273.863 353.825 273.863C353.583 273.863 353.343 273.915 353.122 274.016C353.109 274.022 353.094 274.025 353.079 274.026C353.064 274.026 353.05 274.023 353.036 274.018C353.022 274.012 353.009 274.004 352.999 273.994C352.988 273.984 352.98 273.971 352.974 273.958C352.967 273.944 352.963 273.93 352.962 273.915C352.961 273.9 352.963 273.885 352.968 273.872C352.973 273.858 352.981 273.845 352.992 273.834C353.002 273.823 353.014 273.815 353.028 273.809C353.279 273.694 353.552 273.635 353.828 273.635C354.104 273.635 354.377 273.694 354.628 273.809C354.654 273.822 354.675 273.844 354.685 273.872C354.695 273.9 354.694 273.931 354.682 273.958C354.671 273.975 354.655 273.99 354.637 274C354.619 274.01 354.599 274.016 354.578 274.016Z" fill="#263238"/>
<path d="M354.173 275.098H354.123C353.903 274.997 353.663 274.944 353.42 274.944C353.178 274.944 352.938 274.997 352.717 275.098C352.704 275.105 352.69 275.109 352.675 275.11C352.66 275.111 352.645 275.108 352.631 275.103C352.617 275.098 352.604 275.09 352.594 275.08C352.583 275.07 352.574 275.058 352.568 275.044C352.562 275.031 352.558 275.016 352.557 275.001C352.556 274.987 352.558 274.972 352.563 274.958C352.568 274.944 352.576 274.931 352.586 274.92C352.597 274.91 352.609 274.901 352.623 274.895C352.873 274.779 353.146 274.719 353.422 274.719C353.699 274.719 353.972 274.779 354.222 274.895C354.249 274.908 354.27 274.931 354.28 274.958C354.29 274.986 354.289 275.017 354.276 275.044C354.265 275.061 354.25 275.075 354.232 275.084C354.213 275.094 354.193 275.098 354.173 275.098Z" fill="#263238"/>
<path d="M353.514 276.211C353.5 276.215 353.484 276.215 353.469 276.211C353.248 276.111 353.007 276.059 352.764 276.059C352.521 276.059 352.28 276.111 352.059 276.211C352.045 276.217 352.03 276.221 352.015 276.221C352 276.222 351.986 276.219 351.972 276.214C351.958 276.209 351.945 276.201 351.934 276.191C351.923 276.181 351.914 276.168 351.908 276.155C351.902 276.141 351.898 276.126 351.898 276.111C351.897 276.096 351.899 276.082 351.905 276.068C351.91 276.054 351.918 276.041 351.928 276.03C351.938 276.019 351.95 276.01 351.964 276.004C352.215 275.889 352.488 275.83 352.764 275.83C353.04 275.83 353.313 275.889 353.564 276.004C353.578 276.01 353.59 276.018 353.6 276.029C353.61 276.04 353.618 276.052 353.623 276.066C353.628 276.08 353.631 276.095 353.63 276.11C353.629 276.125 353.625 276.139 353.618 276.152C353.608 276.171 353.593 276.187 353.575 276.197C353.557 276.208 353.536 276.212 353.514 276.211Z" fill="#263238"/>
<path opacity="0.7" d="M361.663 273.818C361.62 273.864 361.572 273.905 361.519 273.94L357.377 276.594L351.573 280.289C351.272 280.513 350.909 280.638 350.534 280.646C350.159 280.654 349.791 280.545 349.481 280.335C349.725 280.181 361.311 272.926 361.429 272.777L361.654 272.993C361.755 273.106 361.812 273.252 361.813 273.404C361.815 273.556 361.762 273.703 361.663 273.818Z" fill="white"/>
<path d="M322.91 267.617L329.792 271.858C329.278 277.018 327.989 281.705 328.489 284.238L326.272 285.828L323.248 282.674C323.248 282.674 323.505 273.44 322.91 267.617Z" fill="#B97964"/>
<path d="M322.972 280.398L325.018 280.357C326.064 282.034 326.736 281.61 327.722 280.357C328.317 280.276 328.489 280.952 328.543 281.137L329.741 285.157C329.791 285.318 329.775 285.492 329.696 285.642C329.618 285.791 329.483 285.904 329.322 285.954C329.262 285.972 329.2 285.981 329.138 285.981L324.225 286.085L317.348 286.234C315.473 286.27 315.045 284.391 315.816 284.201C319.272 283.359 321.706 282.286 322.761 281.249C322.972 281.101 322.765 280.952 322.972 280.398Z" fill="#111114"/>
<path d="M323.243 282.453C323.224 282.453 323.206 282.449 323.189 282.44C323.173 282.432 323.159 282.419 323.148 282.403C323.014 282.201 322.837 282.031 322.63 281.904C322.423 281.777 322.191 281.697 321.95 281.669C321.935 281.667 321.92 281.662 321.907 281.655C321.894 281.648 321.883 281.638 321.874 281.626C321.864 281.614 321.858 281.601 321.854 281.587C321.85 281.572 321.849 281.557 321.851 281.542C321.852 281.527 321.856 281.513 321.863 281.499C321.87 281.486 321.88 281.474 321.892 281.465C321.903 281.455 321.917 281.449 321.932 281.445C321.947 281.441 321.962 281.441 321.977 281.443C322.249 281.478 322.511 281.57 322.744 281.715C322.977 281.86 323.177 282.053 323.329 282.281C323.344 282.306 323.35 282.336 323.344 282.364C323.338 282.393 323.321 282.418 323.297 282.435C323.281 282.446 323.262 282.452 323.243 282.453Z" fill="#263238"/>
<path d="M322.333 283.183C322.315 283.183 322.297 283.178 322.28 283.169C322.264 283.161 322.249 283.148 322.239 283.133C322.104 282.931 321.927 282.761 321.72 282.633C321.513 282.506 321.281 282.424 321.04 282.394C321.011 282.391 320.984 282.376 320.966 282.353C320.947 282.331 320.938 282.302 320.941 282.272C320.942 282.257 320.946 282.243 320.953 282.229C320.96 282.216 320.97 282.204 320.982 282.195C320.994 282.185 321.008 282.179 321.022 282.175C321.037 282.171 321.052 282.171 321.067 282.173C321.339 282.208 321.6 282.3 321.833 282.444C322.067 282.587 322.266 282.78 322.419 283.007C322.435 283.032 322.44 283.063 322.435 283.092C322.429 283.121 322.412 283.147 322.388 283.165C322.372 283.176 322.353 283.182 322.333 283.183Z" fill="#263238"/>
<path d="M321.197 283.805C321.178 283.806 321.159 283.801 321.142 283.792C321.125 283.782 321.111 283.768 321.103 283.751C320.968 283.549 320.791 283.379 320.584 283.252C320.377 283.125 320.145 283.045 319.904 283.016C319.889 283.014 319.875 283.01 319.861 283.002C319.848 282.995 319.837 282.985 319.828 282.974C319.819 282.962 319.812 282.948 319.808 282.934C319.804 282.92 319.803 282.905 319.805 282.89C319.805 282.875 319.809 282.86 319.815 282.847C319.822 282.834 319.831 282.822 319.843 282.812C319.854 282.803 319.868 282.796 319.882 282.792C319.897 282.789 319.912 282.788 319.926 282.791C320.199 282.825 320.46 282.918 320.694 283.062C320.927 283.207 321.126 283.4 321.278 283.629C321.288 283.646 321.294 283.665 321.294 283.685C321.295 283.704 321.29 283.724 321.281 283.741C321.272 283.759 321.259 283.774 321.243 283.785C321.227 283.796 321.208 283.803 321.188 283.805H321.197Z" fill="#263238"/>
<path opacity="0.7" d="M329.341 285.963C329.281 285.981 329.219 285.99 329.157 285.99L324.244 286.094L317.367 286.243C316.994 286.276 316.621 286.192 316.298 286.003C315.975 285.814 315.718 285.529 315.564 285.188C315.848 285.188 329.535 285.003 329.697 284.936L329.778 285.238C329.807 285.391 329.778 285.55 329.697 285.683C329.617 285.817 329.49 285.916 329.341 285.963Z" fill="white"/>
<path d="M332.203 169.097C332.203 169.097 331.432 166.555 332.243 161.814L331.987 161.724C332.099 161.061 332.225 160.444 332.352 159.921C332.352 159.913 332.352 159.906 332.352 159.898L326.493 164.491C326.808 165.942 326.601 168.84 326.425 170.074C326.425 170.074 325.876 172.328 328.773 172.102C330.91 171.922 332.203 169.097 332.203 169.097Z" fill="#B97964"/>
<path opacity="0.2" d="M326.637 166.559L330.161 165.333C329.958 166.496 329.115 167.943 326.614 168.335C326.67 167.744 326.677 167.151 326.637 166.559Z" fill="black"/>
<path d="M332.045 156.834C332.072 160.863 332.167 163.143 330.274 165.316C327.43 168.592 322.464 167.118 321.229 163.179C320.12 159.619 320.26 153.63 324.091 151.8C324.94 151.395 325.877 151.213 326.816 151.269C327.754 151.325 328.663 151.618 329.458 152.121C330.252 152.624 330.906 153.32 331.359 154.144C331.811 154.968 332.047 155.894 332.045 156.834Z" fill="#B97964"/>
<path d="M332.239 151.971C331.536 149.799 325.993 150.168 324.524 151.385C324.303 151.57 327.679 152.999 327.494 152.94L329.076 153.368C329.31 153.301 329.797 153.544 330.09 154.27C330.09 154.27 330.333 160.435 332.199 162.098C333.551 161.318 333.47 158.871 333.812 157.393C334.322 155.18 334.898 151.958 332.239 151.971Z" fill="#263238"/>
<path d="M333.87 160.07C333.751 160.556 333.536 161.013 333.238 161.416C332.94 161.818 332.565 162.157 332.135 162.413C330.977 163.089 330.441 161.809 330.468 160.538C330.495 159.394 330.734 157.983 332.036 157.834C333.339 157.686 334.159 158.862 333.87 160.07Z" fill="#B97964"/>
<path d="M326.394 158.384C326.421 158.794 326.227 159.137 325.943 159.155C325.659 159.173 325.434 158.848 325.407 158.438C325.38 158.028 325.574 157.681 325.857 157.668C326.141 157.654 326.367 157.974 326.394 158.384Z" fill="#263238"/>
<path d="M322.37 158.736C322.397 159.146 322.204 159.493 321.92 159.511C321.636 159.529 321.41 159.205 321.383 158.794C321.356 158.384 321.55 158.037 321.834 158.024C322.118 158.01 322.343 158.326 322.37 158.736Z" fill="#263238"/>
<path d="M323.667 158.42C323.667 158.42 322.504 160.548 322.144 161.408C322.752 161.886 323.721 161.58 323.721 161.58L323.667 158.42Z" fill="#A24E3F"/>
<path d="M327.263 156.379C327.234 156.396 327.2 156.405 327.166 156.405C327.132 156.405 327.098 156.396 327.069 156.379C326.872 156.237 326.645 156.144 326.405 156.106C326.166 156.069 325.921 156.088 325.69 156.162C325.643 156.182 325.59 156.182 325.543 156.163C325.495 156.143 325.458 156.106 325.438 156.059C325.427 156.036 325.422 156.011 325.421 155.986C325.42 155.96 325.425 155.935 325.434 155.912C325.443 155.888 325.457 155.867 325.475 155.849C325.492 155.831 325.514 155.816 325.537 155.806C325.828 155.708 326.138 155.68 326.442 155.724C326.746 155.769 327.035 155.885 327.285 156.063C327.307 156.077 327.325 156.095 327.339 156.116C327.354 156.137 327.364 156.16 327.369 156.185C327.374 156.21 327.374 156.235 327.369 156.26C327.364 156.285 327.354 156.308 327.339 156.329C327.318 156.351 327.292 156.368 327.263 156.379Z" fill="#263238"/>
<path d="M325.154 162.967C325.114 162.961 325.078 162.94 325.051 162.909C325.025 162.878 325.011 162.839 325.011 162.798C325.011 162.758 325.025 162.719 325.051 162.688C325.078 162.657 325.114 162.636 325.154 162.629C325.457 162.592 325.749 162.493 326.012 162.338C326.275 162.182 326.503 161.975 326.682 161.728C326.698 161.712 326.716 161.7 326.737 161.691C326.757 161.682 326.779 161.678 326.801 161.678C326.824 161.678 326.846 161.682 326.866 161.691C326.887 161.7 326.905 161.712 326.921 161.728C326.952 161.76 326.969 161.803 326.969 161.848C326.969 161.892 326.952 161.935 326.921 161.967C326.71 162.243 326.446 162.473 326.144 162.644C325.842 162.815 325.508 162.924 325.163 162.963L325.154 162.967Z" fill="#263238"/>
<path opacity="0.2" d="M331.144 160.462C331.129 160.462 331.114 160.459 331.1 160.453C331.086 160.447 331.074 160.438 331.064 160.427C331.054 160.416 331.046 160.403 331.041 160.389C331.036 160.375 331.034 160.36 331.036 160.345C331.049 159.976 331.161 159.618 331.36 159.308C331.523 159.034 331.774 158.822 332.072 158.709C332.23 158.657 332.399 158.652 332.559 158.695C332.72 158.738 332.864 158.828 332.973 158.952C332.994 158.973 333.006 159.001 333.006 159.031C333.006 159.06 332.994 159.089 332.973 159.11C332.963 159.121 332.951 159.129 332.937 159.135C332.924 159.141 332.909 159.144 332.895 159.144C332.88 159.144 332.865 159.141 332.852 159.135C332.838 159.129 332.826 159.121 332.816 159.11C332.734 159.019 332.626 158.955 332.508 158.925C332.389 158.895 332.264 158.902 332.149 158.943C331.902 159.037 331.695 159.214 331.563 159.443C331.384 159.721 331.283 160.042 331.27 160.372C331.264 160.4 331.248 160.425 331.225 160.442C331.201 160.459 331.172 160.466 331.144 160.462Z" fill="black"/>
<path d="M320.477 157.127C320.439 157.119 320.403 157.102 320.373 157.077C320.338 157.041 320.318 156.993 320.318 156.942C320.318 156.892 320.338 156.843 320.373 156.807C320.57 156.574 320.82 156.393 321.101 156.278C321.383 156.162 321.688 156.117 321.991 156.144C322.017 156.148 322.041 156.156 322.063 156.169C322.085 156.182 322.104 156.199 322.12 156.22C322.135 156.241 322.146 156.264 322.151 156.289C322.157 156.314 322.158 156.34 322.153 156.365C322.15 156.39 322.142 156.414 322.129 156.435C322.116 156.457 322.099 156.476 322.079 156.49C322.059 156.505 322.036 156.516 322.011 156.521C321.987 156.527 321.962 156.527 321.937 156.523C321.697 156.503 321.455 156.542 321.233 156.636C321.01 156.73 320.814 156.877 320.662 157.064C320.639 157.089 320.61 157.109 320.578 157.12C320.545 157.131 320.511 157.133 320.477 157.127Z" fill="#263238"/>
<path d="M332.947 150.173C332.573 149.299 331.392 149.2 330.527 149.457C330.473 148.357 328.99 147.843 328.093 147.951C327.631 147.958 327.189 148.142 326.858 148.465C326.93 148.465 326.525 147.947 326.286 147.744C325.851 147.376 325.315 147.148 324.749 147.088C324.183 147.027 323.611 147.138 323.109 147.406C322.609 147.707 322.205 148.143 321.942 148.664C321.679 149.184 321.568 149.768 321.621 150.349C321.464 150.22 321.283 150.124 321.089 150.066C320.894 150.008 320.69 149.989 320.488 150.011C320.287 150.033 320.091 150.095 319.913 150.193C319.736 150.291 319.58 150.424 319.454 150.583C319.218 150.933 319.118 151.358 319.172 151.776C319.226 152.195 319.43 152.58 319.747 152.859C319.397 152.932 319.09 153.14 318.894 153.438C318.697 153.736 318.626 154.1 318.697 154.45C318.771 154.796 318.979 155.099 319.275 155.294C319.571 155.488 319.931 155.559 320.278 155.491C320.391 156.298 320.562 157.294 320.675 158.114L321.5 155.036C322.041 154.792 322.126 154.527 322.185 153.909C322.662 154.639 323.302 154.522 324.127 154.418C324.549 154.354 324.945 154.176 325.272 153.901C325.599 153.627 325.843 153.268 325.979 152.864C326.21 153.251 326.541 153.568 326.938 153.78C327.335 153.993 327.783 154.094 328.233 154.071C328.678 154.011 329.084 153.787 329.373 153.443C329.661 153.098 329.811 152.659 329.792 152.21C330.079 152.569 330.486 152.813 330.938 152.895C331.39 152.978 331.857 152.895 332.253 152.661C332.63 152.384 332.904 151.988 333.03 151.537C333.155 151.086 333.126 150.606 332.947 150.173Z" fill="#263238"/>
<path d="M339.044 168.84C339.044 168.84 342.649 168.939 344.069 172.936C345.421 176.618 348.774 184.739 348.774 184.739L340.703 187.101L337.489 177.488L339.044 168.84Z" fill="#111114"/>
<path d="M325.867 207.192L330.729 217.557C330.729 217.557 323.005 240.807 322.541 243.245C322.077 245.683 321.86 276.198 321.86 276.198H330.455L333.848 246.4C333.848 246.4 344.281 221.108 345.047 219.053C346.48 215.205 344.98 210.04 344.98 210.04L342.321 206.209L325.867 207.192Z" fill="#263238"/>
<path d="M321.143 212.388C321.143 213.329 324.496 245.534 325.046 245.651C325.596 245.768 349.887 272.331 349.887 272.331L356.782 266.274L338.963 242.109L337.002 220.396L336.295 206.741L320.778 207.899L321.143 212.388Z" fill="#263238"/>
<path opacity="0.4" d="M332.934 254.052L333.362 246.485L338.355 235.421L334.606 247.121L334.25 255.129L332.934 254.052Z" fill="black"/>
<path opacity="0.4" d="M323.928 238.305L330.729 217.561L328.358 215.398L329.111 218.372L323.631 235.845L323.928 238.305Z" fill="black"/>
<path d="M300.421 178.926L310.944 188.583L315.847 179.453C315.847 179.453 321.201 184.739 321.017 184.816C320.832 184.892 314.707 198.286 310.304 195.884C305.901 193.482 298.434 181.395 298.434 181.395L300.421 178.926Z" fill="#B97964"/>
<path opacity="0.2" d="M310.945 188.583C310.945 188.583 311.847 190.043 311.743 191.423C312.018 190.875 312.117 190.257 312.027 189.651C311.953 188.99 311.728 188.355 311.369 187.795L310.945 188.583Z" fill="black"/>
<path d="M320.629 171.237C323.505 172.711 324.658 177.948 318.484 190.576L311.111 184.884C312.292 181.729 313.491 180.098 315.384 176.271C318.381 170.336 320.629 171.237 320.629 171.237Z" fill="#111114"/>
<path d="M320.54 171.048C322.568 170.597 330.626 168.488 339.242 168.849L343.799 200.954C343.799 200.954 344.7 205.163 345.894 209.332C337.683 214.087 326.29 214.853 320.179 212.261C320.26 212.388 320.067 208.832 319.805 203.622C319.354 194.442 318.66 180.12 318.872 171.76C318.881 171.557 320.328 171.093 320.54 171.048Z" fill="#111114"/>
<path opacity="0.2" d="M319.151 189.178L318.862 178.795L317.551 189.854L318.484 190.575L319.151 189.178Z" fill="black"/>
<path opacity="0.2" d="M341.153 186.97L340.702 187.1L337.764 179.227L339.967 188.236L341.468 188.245L341.153 186.97Z" fill="black"/>
<path d="M301.436 180.602C301.436 180.602 302.242 179.327 301.954 178.114C301.666 176.902 301.76 175.861 301.503 174.96C301.246 174.058 300.724 175.221 300.602 175.888C300.48 176.555 300.291 177.308 299.804 177.123C299.318 176.938 296.523 173.463 295.825 173.279C295.126 173.094 295.401 173.797 295.401 173.797C295.401 173.797 294.698 172.972 294.297 173.162C294.193 173.211 294.031 173.495 294.297 173.919C294.883 174.879 296.221 176.825 296.221 176.825C296.145 176.713 294.324 174.428 294.004 174.121C293.59 173.72 293.193 173.743 292.968 173.991C292.648 174.342 294.811 177.254 294.815 177.443C294.815 177.443 293.626 175.721 293.013 175.789C292.4 175.857 293.094 176.974 293.887 177.848C294.617 178.651 295.838 180.413 296.659 181.152C297.673 182.053 298.556 182.454 299.728 181.945C300.403 181.651 300.991 181.189 301.436 180.602Z" fill="#B97964"/>
<path opacity="0.3" d="M297.024 176.041C297.014 176.042 297.005 176.039 296.997 176.034C296.989 176.029 296.983 176.023 296.979 176.014C296.496 175.293 295.978 174.59 295.437 173.923C295.432 173.918 295.427 173.912 295.424 173.905C295.421 173.898 295.419 173.89 295.419 173.883C295.419 173.875 295.421 173.867 295.424 173.86C295.427 173.853 295.432 173.847 295.437 173.842C295.442 173.837 295.448 173.833 295.455 173.83C295.461 173.828 295.468 173.826 295.476 173.826C295.483 173.826 295.49 173.828 295.496 173.83C295.503 173.833 295.509 173.837 295.514 173.842C296.059 174.514 296.577 175.221 297.064 175.942C297.074 175.954 297.079 175.968 297.079 175.983C297.079 175.998 297.074 176.012 297.064 176.023L297.024 176.041Z" fill="black"/>
<path opacity="0.3" d="M295.212 178.182C295.201 178.185 295.19 178.185 295.18 178.182C295.175 178.177 295.171 178.171 295.168 178.164C295.165 178.158 295.164 178.151 295.164 178.144C295.164 178.137 295.165 178.129 295.168 178.123C295.171 178.116 295.175 178.11 295.18 178.105C295.85 177.181 296.776 176.473 297.843 176.068C297.857 176.067 297.87 176.07 297.881 176.078C297.892 176.085 297.9 176.096 297.904 176.108C297.908 176.121 297.908 176.134 297.904 176.147C297.899 176.159 297.891 176.17 297.879 176.177C296.835 176.573 295.928 177.265 295.27 178.168C295.263 178.177 295.254 178.183 295.243 178.185C295.233 178.188 295.221 178.186 295.212 178.182Z" fill="black"/>
<path opacity="0.3" d="M299.502 180.246C299.494 180.246 299.485 180.243 299.478 180.239C299.47 180.236 299.463 180.23 299.457 180.224C299.172 179.843 299.029 179.375 299.052 178.901C299.075 178.426 299.263 177.974 299.584 177.623C299.595 177.614 299.609 177.608 299.624 177.608C299.639 177.608 299.653 177.614 299.665 177.623C299.675 177.634 299.681 177.649 299.681 177.664C299.681 177.679 299.675 177.693 299.665 177.704C299.361 178.035 299.183 178.462 299.16 178.91C299.138 179.359 299.273 179.801 299.543 180.16C299.548 180.165 299.552 180.171 299.555 180.178C299.558 180.185 299.559 180.192 299.559 180.199C299.559 180.206 299.558 180.213 299.555 180.219C299.552 180.226 299.548 180.232 299.543 180.237C299.531 180.245 299.517 180.248 299.502 180.246Z" fill="black"/>
<path d="M348.166 184.915C348.166 184.915 350.595 190.666 351.622 195.826C352.073 198.169 350.216 199.674 348.301 200.134C342.262 201.594 328.652 201.599 328.652 201.599L328.296 197.448L343.97 194.059L341.153 186.97L348.166 184.915Z" fill="#B97964"/>
<path d="M328.62 202.487L323.482 203.063C323.395 203.073 323.307 203.063 323.225 203.034C323.142 203.005 323.067 202.958 323.004 202.897L315.185 195.168C315.112 195.095 315.059 195.005 315.032 194.905C315.005 194.805 315.005 194.701 315.031 194.601C315.058 194.501 315.11 194.41 315.183 194.337C315.256 194.264 315.347 194.212 315.447 194.185L319.953 193.023C320.051 192.996 320.153 192.996 320.251 193.022C320.348 193.049 320.437 193.1 320.508 193.171L328.949 201.486C329.027 201.563 329.083 201.66 329.109 201.766C329.135 201.873 329.131 201.985 329.097 202.089C329.063 202.193 329 202.286 328.915 202.356C328.831 202.427 328.729 202.472 328.62 202.487Z" fill="#263238"/>
<path d="M329.097 197.471C329.097 197.471 328.953 196.867 326.681 196.173C324.955 195.645 323.238 194.032 322.959 194.086C322.679 194.14 322.377 195.023 323.094 195.799C323.811 196.574 324.554 197.015 324.365 197.313C323.914 198.029 318.29 197.444 318.191 198.056C318.092 198.669 319.169 200.427 322.175 201.599C325.181 202.77 329.309 201.599 329.309 201.599L329.097 197.471Z" fill="#B97964"/>
<path d="M300.743 265.806L63.7598 271.358V230.825H303.023L300.743 265.806Z" fill="#263238"/>
<path opacity="0.5" d="M300.743 265.806L63.7598 271.358V230.825H303.023L300.743 265.806Z" fill="black"/>
<path d="M54.6426 241.226V261.781C54.6429 263.926 55.33 266.015 56.6032 267.742C57.8763 269.468 59.6688 270.742 61.718 271.376L63.3945 271.885C64.425 272.208 65.5012 272.36 66.5807 272.336L77.6491 272.074C76.4713 267.955 76.2531 263.621 77.0112 259.404C77.7693 255.187 79.4836 251.2 82.0225 247.749C84.5614 244.298 87.8573 241.475 91.6572 239.496C95.4572 237.517 99.6601 236.435 103.943 236.333C108.226 236.231 112.476 237.112 116.366 238.909C120.255 240.705 123.681 243.369 126.381 246.695C129.081 250.022 130.983 253.923 131.94 258.099C132.898 262.275 132.886 266.615 131.905 270.785L244.526 268.108C244.346 266.793 244.257 265.466 244.261 264.138C244.232 260.428 244.941 256.749 246.345 253.314C247.749 249.88 249.821 246.758 252.441 244.13C255.06 241.502 258.175 239.42 261.605 238.005C265.035 236.59 268.712 235.869 272.422 235.886C276.132 235.902 279.803 236.654 283.22 238.099C286.638 239.544 289.734 241.653 292.331 244.303C294.927 246.954 296.972 250.093 298.346 253.54C299.721 256.987 300.397 260.672 300.337 264.381C300.337 264.927 300.296 265.463 300.296 266.004C300.45 265.947 300.6 265.882 300.747 265.81L304.6 264.093C306.46 263.253 308.039 261.894 309.146 260.179C310.253 258.465 310.842 256.467 310.842 254.426V212.559C310.843 210.628 310.316 208.732 309.317 207.078C308.319 205.425 306.887 204.075 305.177 203.176L276.231 187.953C275.971 187.814 275.757 187.603 275.614 187.346C275.471 187.088 275.406 186.795 275.426 186.501C275.446 186.208 275.551 185.926 275.727 185.69C275.903 185.454 276.144 185.274 276.42 185.172L279.962 183.901C280.139 183.842 280.291 183.724 280.392 183.567C280.493 183.409 280.538 183.223 280.519 183.037C280.5 182.851 280.419 182.677 280.288 182.543C280.158 182.41 279.986 182.325 279.8 182.302C266.041 180.373 212.547 173.392 184.426 176.817C151.978 180.787 120.904 208.936 120.904 208.936C97.0188 208.035 74.7513 216.349 65.1566 220.518C63.6257 221.188 62.2516 222.17 61.1224 223.401C59.9932 224.633 59.1338 226.087 58.5994 227.67L55.3366 237.387C54.9002 238.621 54.6659 239.917 54.6426 241.226Z" fill="#111114"/>
<path d="M244.558 268.1C244.392 266.864 244.31 265.619 244.315 264.373C244.315 263.737 244.315 263.111 244.373 262.484L224.008 254.151C222.815 253.668 221.529 253.459 220.245 253.539L149.409 258.189C148.251 258.257 147.121 258.564 146.088 259.091L132.631 266.013C132.536 267.617 132.308 269.21 131.95 270.777L244.558 268.1Z" fill="#263238"/>
<path d="M310.864 254.417V253.349L299.345 256.873C300.018 259.316 300.357 261.839 300.354 264.372C300.354 264.918 300.314 265.454 300.314 265.995C300.467 265.938 300.618 265.873 300.764 265.801L304.627 264.084C306.486 263.243 308.063 261.884 309.169 260.169C310.276 258.455 310.864 256.458 310.864 254.417Z" fill="#263238"/>
<path d="M57.9141 269.159C59.0128 270.177 60.3267 270.935 61.7582 271.376L63.4482 271.885C64.4801 272.209 65.5579 272.361 66.639 272.336L77.6893 272.088C77.2887 270.691 76.9994 269.264 76.824 267.82L57.9141 269.159Z" fill="#263238"/>
<path d="M272.374 233.7C268.025 233.696 263.724 234.617 259.758 236.403C255.793 238.189 252.253 240.799 249.373 244.059C246.494 247.319 244.342 251.154 243.06 255.31C241.777 259.466 241.394 263.847 241.936 268.163L244.595 268.1C244.062 264.284 244.32 260.399 245.355 256.688C246.389 252.977 248.178 249.519 250.608 246.529C253.039 243.54 256.059 241.083 259.481 239.313C262.903 237.543 266.653 236.496 270.497 236.24C274.341 235.983 278.197 236.521 281.824 237.821C285.451 239.12 288.771 241.154 291.577 243.793C294.384 246.433 296.616 249.623 298.135 253.163C299.654 256.704 300.427 260.52 300.405 264.373C300.405 264.918 300.36 265.454 300.36 265.995C300.514 265.938 300.664 265.873 300.811 265.801L303.024 264.801V264.373C303.015 256.24 299.781 248.442 294.029 242.692C288.278 236.941 280.48 233.707 272.347 233.7H272.374Z" fill="#263238"/>
<path d="M104.649 233.7C99.9594 233.699 95.3318 234.773 91.1221 236.839C86.9124 238.906 83.2327 241.91 80.3658 245.622C77.4989 249.333 75.5211 253.652 74.5846 258.247C73.6481 262.843 73.7778 267.591 74.9636 272.129L77.6676 272.065C76.5021 267.95 76.2939 263.622 77.0589 259.413C77.824 255.204 79.5419 251.226 82.0812 247.784C84.6205 244.342 87.9139 241.526 91.7092 239.553C95.5045 237.579 99.701 236.5 103.977 236.399C108.254 236.297 112.497 237.176 116.382 238.967C120.266 240.758 123.689 243.414 126.389 246.732C129.089 250.05 130.994 253.942 131.958 258.109C132.922 262.277 132.919 266.61 131.95 270.777L134.654 270.709C135.598 266.242 135.533 261.62 134.463 257.181C133.393 252.743 131.346 248.599 128.47 245.052C125.594 241.506 121.963 238.646 117.841 236.682C113.719 234.718 109.21 233.699 104.645 233.7H104.649Z" fill="#263238"/>
<path d="M131.341 210.112C131.073 210.352 130.87 210.655 130.752 210.995C130.634 211.335 130.604 211.699 130.666 212.053C130.728 212.407 130.879 212.74 131.105 213.019C131.331 213.299 131.625 213.516 131.959 213.65L143.676 216.931C144.708 217.224 145.789 217.305 146.853 217.17L233.652 206.417C235.823 206.11 237.803 205.009 239.208 203.325L250.606 190.067C250.993 189.61 251.23 189.045 251.286 188.449C251.444 186.939 250.493 185.578 249.173 185.407C228.392 182.644 202.105 180.152 185.511 182.162C163.762 184.816 141.864 201.167 131.341 210.112Z" fill="#111114"/>
<path opacity="0.8" d="M131.733 210.112C131.465 210.352 131.262 210.655 131.144 210.995C131.026 211.335 130.996 211.699 131.058 212.053C131.12 212.407 131.271 212.74 131.497 213.019C131.723 213.299 132.017 213.516 132.35 213.65L144.068 216.931C145.1 217.223 146.18 217.305 147.245 217.17L232.105 211.356C234.219 211.086 237.482 207.206 239.789 204.051L250.993 190.067C251.383 189.611 251.622 189.046 251.678 188.449C251.831 186.939 250.885 185.578 249.564 185.407C228.775 182.653 202.497 180.147 185.903 182.171C164.149 184.816 142.256 201.167 131.733 210.112Z" fill="white"/>
<g opacity="0.3">
<path d="M188.436 218.386C188.174 218.289 187.96 218.093 187.84 217.841C187.72 217.588 187.702 217.299 187.791 217.034C187.913 216.698 188.131 216.405 188.419 216.193C188.707 215.981 189.052 215.86 189.409 215.845L199.739 215.394C199.878 215.386 200.017 215.406 200.149 215.453C200.417 215.55 200.636 215.75 200.758 216.008C200.881 216.266 200.896 216.562 200.802 216.832C200.68 217.169 200.459 217.461 200.17 217.672C199.88 217.884 199.534 218.003 199.175 218.017L188.846 218.468C188.705 218.468 188.566 218.441 188.436 218.386Z" fill="black"/>
</g>
<path d="M265.257 188.787C264.82 189.179 264.556 189.727 264.522 190.313C264.488 190.899 264.688 191.475 265.077 191.914L267.524 194.578C267.808 194.876 268.166 195.092 268.561 195.204L298.566 203.528C299.09 203.668 299.629 203.739 300.171 203.74H306.133C305.822 203.533 305.502 203.343 305.173 203.168L276.227 187.93C275.877 187.757 275.61 187.452 275.485 187.082C275.359 186.711 275.386 186.307 275.56 185.957L266.159 188.309C265.826 188.397 265.517 188.561 265.257 188.787Z" fill="#111114"/>
<path d="M78.3923 224.439L68.1531 223.321L62.2945 225.728C61.684 225.976 61.1405 226.365 60.7076 226.862C60.2747 227.359 59.9646 227.951 59.8023 228.59C59.608 229.34 59.7165 230.136 60.1042 230.807L60.2079 230.983C60.5292 231.536 61.008 231.982 61.5835 232.263C62.1589 232.544 62.8048 232.647 63.4392 232.56L69.3429 231.749C69.912 231.659 70.4497 231.428 70.9067 231.077L77.7163 225.908L78.3923 224.439Z" fill="white"/>
<path d="M120.927 208.923L122.558 209.373C123.182 209.551 123.84 209.573 124.475 209.436C125.109 209.299 125.7 209.008 126.195 208.589C135.686 200.563 152.185 188.246 169.986 182.509C170.048 182.489 170.102 182.451 170.143 182.4C170.184 182.35 170.208 182.289 170.215 182.224C170.221 182.159 170.208 182.094 170.178 182.037C170.148 181.98 170.102 181.932 170.045 181.901L167.832 180.765C142.149 189.684 120.927 208.923 120.927 208.923Z" fill="#111114"/>
<path opacity="0.8" d="M120.927 208.923L122.558 209.373C123.182 209.551 123.84 209.573 124.475 209.436C125.109 209.299 125.7 209.008 126.195 208.589C135.686 200.563 152.185 188.246 169.986 182.509C170.048 182.489 170.102 182.451 170.143 182.4C170.184 182.35 170.208 182.289 170.215 182.224C170.221 182.159 170.208 182.094 170.178 182.037C170.148 181.98 170.102 181.932 170.045 181.901L167.832 180.765C142.149 189.684 120.927 208.923 120.927 208.923Z" fill="white"/>
<path opacity="0.2" d="M218.235 219.761L131.95 225.931L133.577 236.576C134.074 239.836 135.282 242.947 137.115 245.688L144.326 256.468L217.973 246.508L252.796 219.761H218.235Z" fill="white"/>
<path d="M272.347 287.731C285.25 287.731 295.709 277.271 295.709 264.368C295.709 251.465 285.25 241.006 272.347 241.006C259.444 241.006 248.984 251.465 248.984 264.368C248.984 277.271 259.444 287.731 272.347 287.731Z" fill="#263238"/>
<path opacity="0.4" d="M272.347 278.691C280.257 278.691 286.669 272.278 286.669 264.368C286.669 256.458 280.257 250.046 272.347 250.046C264.437 250.046 258.024 256.458 258.024 264.368C258.024 272.278 264.437 278.691 272.347 278.691Z" fill="white"/>
<g opacity="0.3">
<path d="M272.351 251.488H272.347C271.715 251.488 271.202 252 271.202 252.632V259.974C271.202 260.606 271.715 261.119 272.347 261.119H272.351C272.984 261.119 273.496 260.606 273.496 259.974V252.632C273.496 252 272.984 251.488 272.351 251.488Z" fill="white"/>
</g>
<g opacity="0.3">
<path d="M272.351 267.626H272.347C271.715 267.626 271.202 268.139 271.202 268.771V276.113C271.202 276.745 271.715 277.257 272.347 277.257H272.351C272.984 277.257 273.496 276.745 273.496 276.113V268.771C273.496 268.139 272.984 267.626 272.351 267.626Z" fill="white"/>
</g>
<g opacity="0.3">
<path d="M276.722 263.169C276.459 263.319 276.147 263.358 275.854 263.278C275.562 263.197 275.313 263.004 275.163 262.741C275.013 262.478 274.972 262.167 275.051 261.875C275.129 261.583 275.321 261.333 275.582 261.182L281.937 257.491C282.202 257.339 282.516 257.298 282.811 257.378C283.105 257.457 283.357 257.65 283.51 257.914C283.659 258.178 283.698 258.491 283.618 258.783C283.539 259.076 283.348 259.325 283.086 259.478L276.736 263.165L276.722 263.169Z" fill="white"/>
</g>
<g opacity="0.3">
<path d="M262.747 271.186C262.484 271.337 262.173 271.377 261.88 271.299C261.588 271.22 261.339 271.029 261.187 270.767C261.112 270.637 261.063 270.494 261.044 270.345C261.024 270.197 261.034 270.046 261.073 269.901C261.112 269.756 261.179 269.62 261.271 269.501C261.362 269.382 261.476 269.283 261.606 269.208L267.961 265.517C268.091 265.441 268.234 265.392 268.383 265.371C268.532 265.351 268.684 265.36 268.829 265.399C268.974 265.437 269.111 265.504 269.23 265.596C269.349 265.687 269.45 265.801 269.525 265.932C269.601 266.062 269.65 266.206 269.671 266.355C269.691 266.504 269.682 266.656 269.643 266.802C269.605 266.948 269.538 267.084 269.446 267.204C269.355 267.324 269.24 267.424 269.11 267.5L262.751 271.186H262.747Z" fill="white"/>
</g>
<g opacity="0.3">
<path d="M281.935 271.232L275.581 267.545C275.317 267.392 275.125 267.14 275.047 266.846C274.968 266.551 275.01 266.237 275.162 265.973C275.317 265.711 275.569 265.52 275.863 265.443C276.158 265.365 276.471 265.407 276.735 265.558L283.085 269.249C283.346 269.402 283.538 269.651 283.617 269.944C283.696 270.237 283.657 270.549 283.508 270.813C283.433 270.944 283.332 271.059 283.212 271.151C283.092 271.243 282.955 271.31 282.809 271.349C282.663 271.388 282.51 271.397 282.36 271.377C282.211 271.357 282.066 271.308 281.935 271.232Z" fill="white"/>
</g>
<g opacity="0.3">
<path d="M269.525 262.745C269.372 263.008 269.122 263.199 268.828 263.276C268.535 263.354 268.223 263.312 267.961 263.16L261.606 259.469C261.476 259.394 261.362 259.295 261.271 259.176C261.179 259.057 261.112 258.921 261.073 258.776C261.034 258.632 261.024 258.48 261.044 258.332C261.063 258.183 261.112 258.04 261.187 257.91C261.34 257.648 261.59 257.457 261.883 257.378C262.176 257.3 262.488 257.34 262.751 257.491L269.11 261.182C269.24 261.257 269.354 261.357 269.445 261.477C269.536 261.597 269.602 261.733 269.64 261.878C269.678 262.024 269.687 262.175 269.667 262.324C269.646 262.473 269.596 262.616 269.52 262.745H269.525Z" fill="white"/>
</g>
<path d="M270.426 264.363C270.426 263.854 270.629 263.366 270.989 263.006C271.349 262.646 271.837 262.444 272.346 262.444C272.728 262.443 273.101 262.555 273.419 262.766C273.737 262.978 273.985 263.279 274.131 263.631C274.278 263.984 274.317 264.372 274.243 264.746C274.169 265.12 273.986 265.465 273.716 265.735C273.447 266.005 273.103 266.189 272.729 266.264C272.354 266.339 271.966 266.301 271.614 266.155C271.261 266.009 270.959 265.762 270.747 265.445C270.535 265.127 270.422 264.754 270.422 264.372L270.426 264.363Z" fill="#263238"/>
<path d="M104.649 287.735C117.551 287.735 128.011 277.276 128.011 264.373C128.011 251.47 117.551 241.01 104.649 241.01C91.7459 241.01 81.2861 251.47 81.2861 264.373C81.2861 277.276 91.7459 287.735 104.649 287.735Z" fill="#263238"/>
<path opacity="0.4" d="M104.648 278.695C112.558 278.695 118.971 272.283 118.971 264.373C118.971 256.463 112.558 250.051 104.648 250.051C96.7384 250.051 90.3262 256.463 90.3262 264.373C90.3262 272.283 96.7384 278.695 104.648 278.695Z" fill="white"/>
<g opacity="0.3">
<path d="M104.648 251.488H104.644C104.012 251.488 103.499 252.001 103.499 252.633V259.974C103.499 260.606 104.012 261.119 104.644 261.119H104.648C105.28 261.119 105.793 260.606 105.793 259.974V252.633C105.793 252.001 105.28 251.488 104.648 251.488Z" fill="white"/>
</g>
<g opacity="0.3">
<path d="M104.648 267.626H104.644C104.012 267.626 103.499 268.139 103.499 268.771V276.113C103.499 276.745 104.012 277.257 104.644 277.257H104.648C105.28 277.257 105.793 276.745 105.793 276.113V268.771C105.793 268.139 105.28 267.626 104.648 267.626Z" fill="white"/>
</g>
<g opacity="0.3">
<path d="M109.017 263.169C108.887 263.243 108.744 263.29 108.596 263.309C108.448 263.327 108.298 263.316 108.155 263.276C108.011 263.237 107.877 263.169 107.759 263.077C107.642 262.985 107.544 262.871 107.471 262.741C107.395 262.612 107.345 262.468 107.324 262.319C107.304 262.171 107.313 262.019 107.351 261.874C107.389 261.729 107.455 261.592 107.546 261.473C107.637 261.353 107.751 261.253 107.881 261.177L114.244 257.486C114.375 257.411 114.519 257.363 114.668 257.343C114.817 257.324 114.969 257.334 115.114 257.374C115.259 257.413 115.395 257.481 115.514 257.573C115.634 257.665 115.733 257.779 115.808 257.91C115.883 258.04 115.932 258.184 115.951 258.334C115.97 258.483 115.96 258.634 115.921 258.78C115.881 258.925 115.814 259.061 115.722 259.18C115.63 259.299 115.515 259.399 115.385 259.474L109.035 263.16L109.017 263.169Z" fill="white"/>
</g>
<g opacity="0.3">
<path d="M93.4861 270.785C93.411 270.656 93.3623 270.512 93.3427 270.364C93.3232 270.215 93.3332 270.064 93.3721 269.919C93.411 269.774 93.4782 269.638 93.5696 269.519C93.6611 269.401 93.7752 269.301 93.9052 269.226L100.26 265.535C100.39 265.459 100.534 265.409 100.684 265.389C100.834 265.369 100.986 265.378 101.132 265.416C101.278 265.455 101.415 265.522 101.535 265.613C101.656 265.705 101.756 265.819 101.832 265.95C101.984 266.214 102.025 266.528 101.945 266.822C101.866 267.116 101.673 267.366 101.409 267.518L95.0589 271.187C94.7968 271.34 94.4845 271.384 94.19 271.309C93.8955 271.234 93.6426 271.046 93.4861 270.785Z" fill="white"/>
</g>
<g opacity="0.3">
<path d="M115.803 270.817C115.728 270.947 115.628 271.061 115.509 271.152C115.39 271.244 115.254 271.311 115.109 271.349C114.964 271.388 114.813 271.397 114.665 271.377C114.516 271.357 114.373 271.307 114.243 271.231L107.88 267.545C107.618 267.39 107.428 267.138 107.351 266.843C107.274 266.548 107.317 266.235 107.47 265.972C107.622 265.71 107.873 265.519 108.166 265.441C108.459 265.364 108.771 265.405 109.034 265.558L115.383 269.249C115.646 269.401 115.837 269.651 115.915 269.944C115.994 270.237 115.953 270.549 115.803 270.812V270.817Z" fill="white"/>
</g>
<g opacity="0.3">
<path d="M101.823 262.755C101.748 262.884 101.647 262.997 101.527 263.088C101.407 263.179 101.271 263.245 101.126 263.282C100.98 263.32 100.829 263.329 100.681 263.308C100.532 263.287 100.389 263.237 100.26 263.16L93.9052 259.469C93.7752 259.395 93.6611 259.295 93.5696 259.176C93.4782 259.057 93.411 258.921 93.3721 258.777C93.3332 258.632 93.3232 258.481 93.3427 258.332C93.3623 258.183 93.411 258.04 93.4861 257.91C93.6388 257.646 93.8902 257.453 94.185 257.373C94.4798 257.294 94.7941 257.334 95.0589 257.486L101.409 261.177C101.671 261.33 101.862 261.58 101.941 261.873C102.019 262.166 101.979 262.478 101.828 262.741L101.823 262.755Z" fill="white"/>
</g>
<path d="M104.649 262.444C105.031 262.443 105.404 262.555 105.722 262.766C106.04 262.978 106.288 263.279 106.434 263.631C106.581 263.984 106.62 264.372 106.546 264.746C106.472 265.12 106.289 265.465 106.019 265.735C105.749 266.005 105.406 266.189 105.031 266.264C104.657 266.339 104.269 266.301 103.916 266.155C103.564 266.009 103.262 265.762 103.05 265.445C102.838 265.127 102.725 264.754 102.725 264.372C102.725 263.862 102.927 263.372 103.288 263.01C103.649 262.649 104.138 262.445 104.649 262.444Z" fill="#263238"/>
<path opacity="0.3" d="M308.395 220.302C308.58 220.244 308.751 220.151 308.9 220.027C309.049 219.903 309.172 219.751 309.262 219.579C309.352 219.407 309.408 219.22 309.425 219.027C309.442 218.834 309.421 218.639 309.363 218.454C309.093 213.533 308.047 209.157 305.033 206.147C304.934 205.825 304.729 205.547 304.451 205.358C304.174 205.168 303.84 205.08 303.505 205.106L285.703 206.786C285.392 206.818 285.1 206.949 284.87 207.161C284.726 207.29 284.609 207.447 284.525 207.622C284.442 207.797 284.394 207.986 284.385 208.18C284.375 208.374 284.404 208.567 284.469 208.749C284.535 208.932 284.636 209.099 284.766 209.243L289.863 214.741C290.04 214.93 290.264 215.07 290.512 215.146L307.556 220.311C307.831 220.387 308.122 220.384 308.395 220.302Z" fill="black"/>
<path d="M130.683 211.248C130.555 211.736 130.615 212.254 130.851 212.7C131.087 213.146 131.483 213.487 131.959 213.655L143.676 216.935C144.732 217.259 145.826 217.447 146.93 217.494L150.616 217.246L147.137 198.467C139.111 203.74 138.574 203.983 131.364 210.121C131.017 210.41 130.777 210.807 130.683 211.248Z" fill="#263238"/>
<path d="M206.946 181.558L199.591 213.628L209.213 212.934L213.602 181.838C211.355 181.723 209.136 181.63 206.946 181.558Z" fill="#263238"/>
<path d="M237.469 206.935L250.989 190.058C251.388 189.597 251.632 189.024 251.687 188.417C251.827 186.912 250.881 185.56 249.574 185.38C246.807 185.006 243.859 184.645 240.916 184.289" fill="#263238"/>
<path d="M141.329 214.493C140.774 214.499 140.222 214.396 139.706 214.19C139.19 213.983 138.72 213.677 138.323 213.288C137.925 212.9 137.608 212.437 137.389 211.926C137.17 211.415 137.055 210.866 137.048 210.311C137.037 209.345 137.356 208.404 137.951 207.644C138.547 206.883 139.384 206.349 140.324 206.128L145.967 204.808L147.404 214.272L141.442 214.502L141.329 214.493Z" fill="#111114"/>
<path opacity="0.3" d="M145.749 214.326L147.403 214.263L145.965 204.808L144.356 205.186L145.749 214.326Z" fill="black"/>
<path opacity="0.6" d="M201.663 254.872H201.64C201.626 254.87 201.612 254.864 201.6 254.856C201.588 254.848 201.577 254.837 201.569 254.825C201.561 254.813 201.556 254.799 201.553 254.785C201.551 254.771 201.551 254.756 201.555 254.742C201.613 254.449 207.783 225.498 208.571 221.554C208.873 220.04 208.986 217.147 208.896 212.942C208.896 212.912 208.908 212.884 208.929 212.863C208.95 212.841 208.979 212.83 209.009 212.83C209.038 212.83 209.066 212.841 209.087 212.861C209.108 212.881 209.12 212.909 209.121 212.938C209.211 217.156 209.099 220.072 208.792 221.6C208.004 225.543 201.834 254.498 201.771 254.787C201.766 254.811 201.752 254.833 201.732 254.849C201.712 254.865 201.688 254.873 201.663 254.872Z" fill="black"/>
<path opacity="0.6" d="M146.087 259.217C146.069 259.217 146.05 259.212 146.034 259.203C146.017 259.195 146.003 259.182 145.993 259.167C145.916 259.05 137.957 247.27 135.222 242.344C132.401 237.274 130.598 212.978 130.517 211.946C130.515 211.917 130.525 211.888 130.545 211.865C130.564 211.842 130.591 211.828 130.62 211.825C130.635 211.823 130.65 211.825 130.664 211.83C130.678 211.834 130.691 211.841 130.703 211.851C130.714 211.861 130.723 211.873 130.73 211.886C130.737 211.899 130.741 211.913 130.742 211.928C130.742 212.181 132.635 237.206 135.42 242.236C138.147 247.152 146.101 258.91 146.182 259.041C146.19 259.053 146.196 259.067 146.199 259.082C146.202 259.097 146.202 259.112 146.199 259.126C146.196 259.141 146.19 259.155 146.182 259.167C146.174 259.18 146.163 259.19 146.15 259.199C146.131 259.209 146.109 259.215 146.087 259.217Z" fill="black"/>
<path opacity="0.6" d="M68.1531 223.416C68.1275 223.415 68.1028 223.406 68.0833 223.389C68.0638 223.372 68.0506 223.349 68.0459 223.324C68.0411 223.299 68.0452 223.273 68.0573 223.25C68.0694 223.227 68.0889 223.21 68.1126 223.2C74.2146 220.703 93.8006 215.989 98.3703 215.263C104.152 214.335 123.91 209.459 124.108 209.405C124.122 209.401 124.137 209.401 124.152 209.403C124.167 209.406 124.181 209.411 124.193 209.419C124.206 209.427 124.217 209.438 124.225 209.45C124.234 209.462 124.24 209.476 124.243 209.49C124.247 209.505 124.248 209.519 124.246 209.534C124.244 209.549 124.239 209.563 124.232 209.575C124.224 209.588 124.214 209.599 124.202 209.608C124.19 209.616 124.176 209.622 124.162 209.626C123.964 209.675 104.197 214.551 98.4019 215.484C93.9448 216.201 74.147 220.973 68.2072 223.407C68.1906 223.415 68.1717 223.419 68.1531 223.416Z" fill="black"/>
<path opacity="0.8" d="M265.257 188.786C264.82 189.178 264.556 189.727 264.522 190.313C264.488 190.899 264.688 191.475 265.077 191.914L267.524 194.578C267.808 194.875 268.166 195.092 268.561 195.204L298.566 203.528C299.09 203.668 299.629 203.739 300.171 203.74H306.133C305.822 203.532 305.502 203.343 305.173 203.167L276.227 187.93C275.877 187.757 275.61 187.451 275.485 187.081C275.359 186.711 275.386 186.307 275.56 185.956L266.159 188.309C265.826 188.397 265.517 188.56 265.257 188.786Z" fill="white"/>
<path d="M152.549 207.967C152.279 208.13 149.093 211.424 149.093 211.424L149.715 215.507L153.721 211.37L152.549 207.967Z" fill="#263238"/>
<path d="M157.349 216.48C157.011 216.647 156.62 216.673 156.262 216.552C155.905 216.431 155.61 216.174 155.443 215.836L149.075 202.956C148.992 202.788 148.943 202.607 148.931 202.42C148.919 202.234 148.943 202.048 149.003 201.871C149.063 201.694 149.157 201.531 149.28 201.391C149.403 201.251 149.552 201.136 149.719 201.054C149.886 200.97 150.069 200.921 150.255 200.908C150.442 200.896 150.629 200.92 150.806 200.98C150.983 201.04 151.147 201.134 151.287 201.257C151.428 201.381 151.543 201.53 151.625 201.698L157.98 214.578C158.148 214.914 158.175 215.303 158.057 215.659C157.939 216.016 157.684 216.311 157.349 216.48Z" fill="#263238"/>
<path d="M164.285 200.977C164.285 200.977 167.44 213.56 169.283 214.047C172.636 214.907 184.155 213.943 183.93 213.573L183.443 207.787C183.443 207.787 171.829 209.707 171.919 209.504L167.552 199.711L164.285 200.977Z" fill="#EBB373"/>
<path d="M167.183 200.473C167.183 200.473 168.219 199.508 168.246 198.336C168.273 197.165 168.611 196.241 168.571 195.371C168.53 194.501 167.805 195.425 167.516 195.993C167.228 196.561 166.894 197.21 166.502 196.921C166.11 196.633 164.398 192.82 163.798 192.487C163.199 192.153 163.294 192.856 163.294 192.856C163.294 192.856 162.843 191.955 162.442 192.018C162.334 192.018 162.117 192.257 162.257 192.703C162.559 193.713 163.307 195.799 163.307 195.799C163.267 195.677 162.158 193.172 161.955 192.816C161.671 192.365 161.306 192.279 161.054 192.451C160.68 192.694 161.955 195.849 161.91 196.02C161.91 196.02 161.239 194.181 160.671 194.091C160.103 194.001 160.459 195.186 160.973 196.169C161.423 197.07 162.131 198.958 162.699 199.828C163.397 200.896 164.105 201.46 165.29 201.279C165.98 201.178 166.632 200.9 167.183 200.473Z" fill="#EBB373"/>
<path opacity="0.3" d="M164.285 195.29C164.273 195.29 164.262 195.287 164.252 195.281C164.242 195.274 164.235 195.265 164.231 195.254C163.965 194.488 163.663 193.726 163.329 193C163.326 192.993 163.324 192.986 163.323 192.978C163.323 192.97 163.324 192.962 163.327 192.955C163.33 192.947 163.335 192.941 163.341 192.935C163.347 192.93 163.353 192.926 163.361 192.924C163.367 192.921 163.374 192.919 163.382 192.919C163.389 192.918 163.396 192.92 163.403 192.922C163.409 192.925 163.416 192.928 163.421 192.933C163.426 192.938 163.43 192.944 163.433 192.951C163.767 193.694 164.073 194.456 164.334 195.227C164.337 195.233 164.339 195.241 164.339 195.248C164.339 195.255 164.337 195.263 164.334 195.269C164.331 195.276 164.327 195.282 164.322 195.287C164.316 195.292 164.31 195.296 164.303 195.299L164.285 195.29Z" fill="black"/>
<path opacity="0.3" d="M162.145 196.8C162.138 196.803 162.13 196.804 162.122 196.804C162.115 196.804 162.107 196.803 162.1 196.8C162.09 196.788 162.085 196.774 162.085 196.759C162.085 196.744 162.09 196.73 162.1 196.719C162.927 196.042 163.934 195.621 164.998 195.506C165.005 195.506 165.013 195.507 165.02 195.509C165.028 195.511 165.034 195.515 165.04 195.52C165.046 195.525 165.051 195.531 165.054 195.538C165.058 195.545 165.06 195.553 165.061 195.56C165.061 195.567 165.06 195.575 165.058 195.581C165.056 195.588 165.053 195.595 165.048 195.6C165.043 195.605 165.038 195.61 165.031 195.613C165.025 195.616 165.018 195.618 165.011 195.619C163.969 195.73 162.982 196.143 162.172 196.809L162.145 196.8Z" fill="black"/>
<path opacity="0.3" d="M165.529 199.697C165.517 199.697 165.506 199.694 165.497 199.687C165.487 199.681 165.479 199.672 165.475 199.661C165.308 199.248 165.291 198.789 165.426 198.363C165.561 197.938 165.839 197.573 166.214 197.331C166.219 197.326 166.225 197.322 166.232 197.32C166.238 197.317 166.245 197.315 166.252 197.315C166.259 197.315 166.267 197.317 166.273 197.32C166.28 197.322 166.286 197.326 166.291 197.331C166.296 197.336 166.3 197.342 166.302 197.349C166.305 197.355 166.307 197.363 166.307 197.37C166.307 197.377 166.305 197.384 166.302 197.39C166.3 197.397 166.296 197.403 166.291 197.408C165.938 197.635 165.676 197.978 165.55 198.378C165.423 198.778 165.44 199.209 165.597 199.598C165.603 199.612 165.604 199.628 165.599 199.642C165.594 199.656 165.583 199.668 165.57 199.675L165.529 199.697Z" fill="black"/>
<path d="M197.18 206.904C195.071 204.119 191.722 204.398 189.546 204.781L185.237 205.489C185.099 205.51 184.964 205.543 184.832 205.588L183.849 205.89L174.624 208.846L176.85 214.75L179.865 214.38L179.361 215.196L182.317 215.007L198.455 214.164V210.892C198.475 209.459 198.027 208.059 197.18 206.904Z" fill="#263238"/>
<path d="M196.305 211.55C196.305 211.55 194.282 225.119 192.848 226.557C189.432 229.991 176.782 220.545 176.782 220.545L177.174 216.899L188.098 221.406L190.144 209.896L196.305 211.55Z" fill="#EBB373"/>
<path d="M197.968 210.626C197.869 210.96 196.999 220.428 196.999 220.428L187.733 219.563C187.733 219.563 188.216 216.935 188.914 212.352C189.649 207.562 190.072 205.142 192.447 204.754C196.941 204.001 197.968 210.626 197.968 210.626Z" fill="#263238"/>
<path d="M183.286 196.903C182.01 194.699 180.744 188.76 186.057 186.93C192.686 184.641 195.652 188.868 196.224 193.059C196.797 197.25 194.422 200.414 190.05 200.098C185.679 199.783 184.164 198.431 183.286 196.903Z" fill="#263238"/>
<path d="M192.488 197.201L188.572 200.806L187.832 201.608C188.051 202.157 188.202 202.731 188.283 203.316C188.339 203.934 188.164 204.551 187.792 205.047L186.913 207.048C188.873 205.511 193.34 204.686 193.34 204.686C192.595 202.265 192.306 199.727 192.488 197.201Z" fill="#EBB373"/>
<path opacity="0.2" d="M188.283 203.532C189.337 202.969 190.536 201.964 190.437 200.747C190.413 200.301 190.336 199.859 190.207 199.431L187.985 202.099C188.135 202.565 188.235 203.046 188.283 203.532Z" fill="black"/>
<path d="M193.736 193.221C193.204 197.052 193.06 198.679 190.982 200.603C187.859 203.496 183.321 202.261 182.703 198.417C182.149 194.952 183.109 189.273 186.958 187.836C187.774 187.5 188.664 187.388 189.538 187.512C190.412 187.635 191.236 187.99 191.927 188.539C192.618 189.088 193.15 189.811 193.468 190.634C193.786 191.457 193.878 192.35 193.736 193.221Z" fill="#EBB373"/>
<path d="M188.852 194.37C188.811 194.758 188.559 195.064 188.289 195.055C188.018 195.046 187.838 194.731 187.865 194.343C187.892 193.956 188.158 193.649 188.428 193.658C188.699 193.667 188.893 193.983 188.852 194.37Z" fill="#263238"/>
<path d="M184.858 194.122C184.818 194.492 184.57 194.785 184.304 194.78C184.038 194.776 183.853 194.465 183.889 194.1C183.925 193.735 184.178 193.437 184.444 193.442C184.709 193.446 184.894 193.744 184.858 194.122Z" fill="#263238"/>
<path d="M189.459 192.973C189.433 192.979 189.406 192.979 189.38 192.972C189.355 192.966 189.331 192.954 189.31 192.937C189.116 192.786 188.89 192.682 188.65 192.632C188.409 192.582 188.16 192.588 187.922 192.649C187.898 192.658 187.873 192.662 187.848 192.661C187.823 192.66 187.798 192.654 187.775 192.643C187.752 192.632 187.732 192.617 187.715 192.598C187.699 192.578 187.686 192.556 187.679 192.532C187.667 192.481 187.676 192.427 187.703 192.382C187.73 192.337 187.772 192.303 187.823 192.288C188.123 192.204 188.438 192.192 188.743 192.252C189.048 192.312 189.335 192.444 189.58 192.635C189.6 192.652 189.615 192.672 189.625 192.695C189.636 192.718 189.641 192.743 189.641 192.768C189.641 192.794 189.636 192.819 189.625 192.842C189.615 192.864 189.6 192.885 189.58 192.901C189.549 192.939 189.506 192.964 189.459 192.973Z" fill="#263238"/>
<path d="M183.583 192.185C183.542 192.163 183.511 192.126 183.497 192.081C183.485 192.033 183.492 191.981 183.517 191.938C183.543 191.895 183.584 191.864 183.632 191.851C183.922 191.757 184.23 191.73 184.532 191.774C184.833 191.818 185.121 191.931 185.372 192.104C185.39 192.12 185.405 192.14 185.415 192.162C185.425 192.184 185.43 192.208 185.43 192.232C185.43 192.256 185.425 192.28 185.415 192.303C185.405 192.325 185.39 192.344 185.372 192.361C185.334 192.394 185.285 192.413 185.234 192.413C185.184 192.413 185.135 192.394 185.097 192.361C184.896 192.228 184.667 192.142 184.429 192.11C184.19 192.078 183.947 192.1 183.718 192.176C183.675 192.195 183.627 192.198 183.583 192.185Z" fill="#263238"/>
<path d="M190.68 189.616C189.401 190.842 189.779 195.722 193.186 196.515C197.184 195.785 194.511 185.97 190.68 189.616Z" fill="#263238"/>
<path d="M185.705 197.75C185.946 198.217 186.154 198.701 186.327 199.197L186.602 199.152C187.837 198.922 188.337 198.404 188.513 197.904C188.594 197.657 188.616 197.394 188.576 197.137C188.556 196.992 188.517 196.849 188.459 196.714C187.877 197.228 186.737 197.53 186.124 197.665C185.867 197.728 185.705 197.75 185.705 197.75Z" fill="#263238"/>
<path d="M186.125 197.665L186.319 198.088C187.486 197.868 188.275 197.557 188.572 197.137C188.553 196.992 188.513 196.849 188.455 196.714C187.878 197.228 186.738 197.53 186.125 197.665Z" fill="white"/>
<path d="M186.603 199.152C187.837 198.922 188.338 198.404 188.513 197.904C188.046 198 187.599 198.179 187.193 198.431C186.925 198.603 186.718 198.855 186.603 199.152Z" fill="#DC5753"/>
<path d="M185.949 193.893C185.523 194.795 184.986 195.64 184.349 196.408C184.799 196.903 185.701 196.696 185.701 196.696L185.949 193.893Z" fill="#E4873E"/>
<path d="M187.67 193.438L188.544 193.69C188.121 194.123 187.67 193.438 187.67 193.438Z" fill="#263238"/>
<path d="M183.731 193.221L184.601 193.474C184.182 193.897 183.731 193.221 183.731 193.221Z" fill="#263238"/>
<path d="M187.025 186.989C185.479 187.439 183.749 189.986 183.42 190.986C185.561 191.437 191.473 189.684 191.473 189.684C191.473 189.684 195.309 190.936 193.429 188.877C191.55 186.817 187.025 186.989 187.025 186.989Z" fill="#263238"/>
<path d="M194.755 196.376C194.312 197.064 193.616 197.55 192.817 197.728C191.79 197.935 191.339 196.272 191.731 195.272C191.915 194.82 192.255 194.448 192.689 194.225C193.123 194.002 193.622 193.941 194.097 194.055C195.044 194.321 195.314 195.511 194.755 196.376Z" fill="#EBB373"/>
<path opacity="0.1" d="M192.465 196.376C192.451 196.375 192.436 196.371 192.423 196.364C192.41 196.357 192.398 196.348 192.388 196.337C192.379 196.325 192.371 196.312 192.367 196.298C192.362 196.284 192.36 196.269 192.362 196.254C192.378 196.061 192.438 195.874 192.537 195.707C192.635 195.54 192.771 195.398 192.933 195.29C193.094 195.183 193.278 195.114 193.47 195.088C193.663 195.063 193.858 195.081 194.043 195.141C194.071 195.151 194.094 195.172 194.108 195.199C194.121 195.226 194.124 195.257 194.115 195.285C194.11 195.3 194.103 195.313 194.093 195.324C194.083 195.336 194.071 195.345 194.058 195.352C194.044 195.358 194.03 195.362 194.015 195.363C194 195.364 193.985 195.362 193.971 195.357C193.82 195.307 193.66 195.292 193.503 195.312C193.345 195.332 193.194 195.388 193.061 195.474C192.928 195.561 192.817 195.676 192.734 195.812C192.652 195.948 192.602 196.101 192.587 196.259C192.588 196.275 192.585 196.291 192.579 196.305C192.573 196.32 192.564 196.334 192.553 196.345C192.541 196.356 192.527 196.364 192.512 196.37C192.497 196.375 192.481 196.377 192.465 196.376Z" fill="black"/>
<path d="M181.474 219.423L177.174 216.899L176.003 215.398C176.003 215.398 174.795 213.974 173.822 213.88C173.333 213.864 172.847 213.966 172.406 214.177C172.406 214.177 171.28 214.889 171.956 215.98C171.956 215.98 170.843 216.552 171.6 217.783C171.6 217.783 170.532 217.805 171.447 218.923C171.799 219.345 172.233 219.693 172.722 219.946C173.211 220.198 173.746 220.35 174.295 220.392C174.929 220.452 175.569 220.395 176.183 220.225L180.929 223.344L181.474 219.423Z" fill="#EBB373"/>
<path d="M188.544 214.696L189.319 209.833L186.953 214.75L188.544 214.696Z" fill="black"/>
<path d="M179.864 214.38L181.797 210.455L178.084 214.601L179.864 214.38Z" fill="black"/>
<path d="M194.277 187.102C193.903 186.227 192.722 186.128 191.857 186.385C191.803 185.285 190.32 184.772 189.423 184.88C188.961 184.886 188.519 185.07 188.188 185.394C188.26 185.394 187.855 184.875 187.616 184.672C187.181 184.305 186.646 184.076 186.079 184.016C185.513 183.956 184.941 184.067 184.439 184.334C183.939 184.636 183.535 185.072 183.272 185.592C183.009 186.113 182.898 186.697 182.951 187.277C182.795 187.149 182.614 187.052 182.419 186.994C182.224 186.936 182.02 186.918 181.818 186.94C181.617 186.962 181.421 187.023 181.244 187.122C181.066 187.22 180.91 187.352 180.784 187.512C180.548 187.862 180.448 188.286 180.502 188.705C180.556 189.123 180.76 189.508 181.077 189.788C180.727 189.86 180.42 190.068 180.224 190.366C180.027 190.664 179.956 191.028 180.027 191.378C180.101 191.724 180.309 192.027 180.605 192.222C180.901 192.417 181.261 192.488 181.609 192.419C181.721 193.226 181.892 194.222 182.005 195.042L182.83 191.964C183.371 191.721 183.456 191.455 183.515 190.838C183.993 191.568 184.632 191.45 185.457 191.347C185.879 191.283 186.275 191.104 186.602 190.83C186.929 190.555 187.173 190.196 187.309 189.792C187.54 190.179 187.871 190.496 188.268 190.709C188.665 190.922 189.113 191.022 189.563 191C190.008 190.94 190.414 190.715 190.703 190.371C190.991 190.027 191.141 189.587 191.122 189.139C191.409 189.498 191.816 189.741 192.268 189.824C192.72 189.907 193.187 189.823 193.583 189.589C193.96 189.312 194.234 188.916 194.36 188.465C194.486 188.014 194.456 187.534 194.277 187.102Z" fill="#263238"/>
</g>
<defs>
<clipPath id="clip0_304_1244">
<rect width="400" height="400" fill="white"/>
</clipPath>
</defs>
</svg>
