<svg width="45" height="45" viewBox="0 0 45 45" fill="none" xmlns="http://www.w3.org/2000/svg">
<g clip-path="url(#clip0_259_689)">
<path d="M6.88366 5.31047H6.87987C6.67027 5.31002 6.46266 5.3511 6.26902 5.43132C6.07538 5.51155 5.89955 5.62934 5.75168 5.7779C5.60093 5.92752 5.4814 6.10559 5.40004 6.30179C5.31868 6.49798 5.27711 6.70839 5.27774 6.92078V31.0671C5.27774 31.9525 6.00093 32.6747 6.89002 32.6769C10.6382 32.6859 16.9179 33.4671 21.2501 38.0006V12.7308C21.2501 12.4306 21.1734 12.1487 21.0287 11.9153C17.4731 6.18926 10.6403 5.31926 6.88366 5.31047ZM39.7224 31.0671V6.92063C39.7224 6.48851 39.5541 6.0826 39.2485 5.77775C39.1006 5.62923 38.9248 5.51146 38.7312 5.43124C38.5376 5.35101 38.33 5.30991 38.1204 5.31032H38.1165C34.36 5.31926 27.5272 6.18926 23.9714 11.9153C23.8267 12.1487 23.7502 12.4306 23.7502 12.7308V38.0004C28.0824 33.4669 34.3621 32.6857 38.1103 32.6768C38.9992 32.6745 39.7224 31.9524 39.7224 31.0671Z" fill="#8D37FF"/>
<path d="M43.39 10.879H42.2224V31.0671C42.2224 33.3278 40.3804 35.1713 38.1162 35.1769C34.9369 35.1845 29.6948 35.8062 25.9822 39.32C32.4031 37.7479 39.1719 38.7698 43.0295 39.6489C43.2658 39.7034 43.5114 39.7038 43.7479 39.6499C43.9843 39.596 44.2055 39.4892 44.3948 39.3377C44.5841 39.1874 44.7369 38.9961 44.8417 38.7783C44.9465 38.5604 45.0006 38.3217 45 38.08V12.489C45.0002 11.6013 44.2777 10.879 43.39 10.879ZM2.77759 31.0671V10.879H1.61001C0.722427 10.879 0 11.6013 0 12.489V38.0795C0 38.572 0.220607 39.0304 0.605154 39.3373C0.794451 39.4889 1.01563 39.5956 1.2521 39.6495C1.48856 39.7034 1.73416 39.7031 1.97046 39.6485C5.82805 38.7692 12.597 37.7474 19.0176 39.3195C15.3052 35.8059 10.0631 35.1844 6.88381 35.1768C4.61971 35.1713 2.77759 33.3278 2.77759 31.0671Z" fill="#8D37FF"/>
</g>
<defs>
<clipPath id="clip0_259_689">
<rect width="45" height="45" fill="white"/>
</clipPath>
</defs>
</svg>
