<svg width="45" height="45" viewBox="0 0 45 45" fill="none" xmlns="http://www.w3.org/2000/svg">
<path d="M13.6518 5.02225C9.12269 5.02225 5.43806 8.92899 5.43806 13.731C5.43806 18.533 9.12269 22.4397 13.6518 22.4397C18.1809 22.4397 21.8656 18.533 21.8656 13.731C21.8656 8.92899 18.181 5.02225 13.6518 5.02225ZM32.326 6.26845L32.2701 6.26862C30.3694 6.28436 28.594 7.08689 27.2711 8.52856C25.9713 9.94474 25.2646 11.813 25.2809 13.7892C25.2972 15.7653 26.0347 17.6216 27.3575 19.0163C28.6908 20.4217 30.457 21.1936 32.3366 21.1936L32.3934 21.1934C34.2941 21.1777 36.0695 20.3751 37.3925 18.9335C38.6922 17.5173 39.3989 15.649 39.3826 13.6728C39.3488 9.57762 36.1887 6.26845 32.326 6.26845ZM32.6725 22.6194H31.9904C28.8141 22.6194 25.9154 23.827 23.727 25.8063C24.2773 26.229 24.7993 26.6873 25.2896 27.1782C26.7469 28.6355 27.8912 30.3335 28.691 32.2249C29.4117 33.9282 29.823 35.723 29.9188 37.5713H45V34.946C45 28.1494 39.4699 22.6194 32.6725 22.6194ZM27.2769 37.5713C27.0281 33.5644 24.997 30.04 21.9656 27.7812C19.7604 26.1376 17.0253 25.1647 14.0625 25.1647H13.2416C5.92822 25.1648 0 31.0929 0 38.4063V39.9778H27.3032V38.4063C27.3032 38.1259 27.2944 37.8473 27.2769 37.5713Z" fill="#4286EA"/>
</svg>
