<svg width="45" height="45" viewBox="0 0 45 45" fill="none" xmlns="http://www.w3.org/2000/svg">
<path d="M41.8985 19.8324L41.8957 19.8296L25.1674 3.10195C24.4543 2.38846 23.5063 1.99559 22.498 1.99559C21.4896 1.99559 20.5415 2.38822 19.8282 3.10163L3.10855 19.8208C3.10294 19.8264 3.09734 19.8323 3.09173 19.838C1.62743 21.3107 1.62999 23.7001 3.09894 25.169C3.76998 25.8405 4.65639 26.2293 5.60408 26.27C5.64253 26.2738 5.68137 26.2756 5.72046 26.2756H6.38717V38.5863C6.38717 41.0224 8.36921 43.0044 10.8059 43.0044H17.3505C18.0138 43.0044 18.5519 42.4666 18.5519 41.803V32.1515C18.5519 31.0398 19.4562 30.1357 20.5678 30.1357H24.428C25.5397 30.1357 26.4438 31.0399 26.4438 32.1515V41.803C26.4438 42.4666 26.9817 43.0044 27.6453 43.0044H34.1899C36.6266 43.0044 38.6087 41.0224 38.6087 38.5863V26.2757H39.2269C40.235 26.2757 41.183 25.8831 41.8966 25.1697C43.3672 23.6983 43.3678 21.3048 41.8985 19.8324Z" fill="#FBBE49"/>
</svg>
