<svg width="105" height="35" viewBox="0 0 105 35" fill="none" xmlns="http://www.w3.org/2000/svg">
<path d="M51.1419 26.6256C51.1419 25.686 51.3518 24.8467 51.7714 24.1078C52.2001 23.3598 52.7794 22.7805 53.5092 22.37C54.2481 21.9504 55.0737 21.7406 55.9859 21.7406C57.0533 21.7406 57.9883 22.0142 58.7911 22.5616C59.5939 23.1089 60.1549 23.8661 60.4742 24.8331H58.2711C58.0522 24.3769 57.742 24.0349 57.3406 23.8068C56.9484 23.5787 56.4922 23.4647 55.9723 23.4647C55.4158 23.4647 54.9186 23.597 54.4807 23.8615C54.052 24.117 53.7145 24.4818 53.4682 24.9562C53.231 25.4306 53.1124 25.9871 53.1124 26.6256C53.1124 27.2551 53.231 27.8115 53.4682 28.295C53.7145 28.7694 54.052 29.1388 54.4807 29.4034C54.9186 29.6588 55.4158 29.7865 55.9723 29.7865C56.4922 29.7865 56.9484 29.6725 57.3406 29.4444C57.742 29.2073 58.0522 28.8606 58.2711 28.4045H60.4742C60.1549 29.3806 59.5939 30.1423 58.7911 30.6897C57.9974 31.2279 57.0624 31.497 55.9859 31.497C55.0737 31.497 54.2481 31.2917 53.5092 30.8812C52.7794 30.4616 52.2001 29.8823 51.7714 29.1434C51.3518 28.4045 51.1419 27.5652 51.1419 26.6256Z" fill="#8D37FF"/>
<path d="M65.4766 31.538C64.7468 31.538 64.09 31.3784 63.5062 31.0591C62.9223 30.7307 62.4616 30.27 62.1241 29.6771C61.7957 29.0841 61.6315 28.3999 61.6315 27.6245C61.6315 26.8491 61.8003 26.1649 62.1378 25.572C62.4845 24.979 62.9543 24.5229 63.5472 24.2036C64.1402 23.8752 64.8015 23.711 65.5313 23.711C66.2611 23.711 66.9225 23.8752 67.5155 24.2036C68.1084 24.5229 68.5737 24.979 68.9112 25.572C69.2579 26.1649 69.4312 26.8491 69.4312 27.6245C69.4312 28.3999 69.2533 29.0841 68.8975 29.6771C68.5509 30.27 68.0765 30.7307 67.4744 31.0591C66.8815 31.3784 66.2155 31.538 65.4766 31.538ZM65.4766 29.8686C65.8233 29.8686 66.1471 29.7865 66.4481 29.6223C66.7583 29.449 67.0046 29.1936 67.1871 28.856C67.3695 28.5185 67.4607 28.108 67.4607 27.6245C67.4607 26.9039 67.2692 26.3519 66.886 25.9688C66.512 25.5765 66.0513 25.3804 65.504 25.3804C64.9566 25.3804 64.496 25.5765 64.1219 25.9688C63.757 26.3519 63.5746 26.9039 63.5746 27.6245C63.5746 28.3452 63.7525 28.9017 64.1082 29.2939C64.4731 29.6771 64.9293 29.8686 65.4766 29.8686Z" fill="#8D37FF"/>
<path d="M77.993 23.8342V31.4149H76.0636V30.457C75.8173 30.7854 75.4934 31.0454 75.092 31.237C74.6998 31.4195 74.271 31.5107 73.8058 31.5107C73.2128 31.5107 72.6883 31.3875 72.2321 31.1412C71.776 30.8858 71.4157 30.5163 71.1511 30.0328C70.8957 29.5402 70.768 28.9564 70.768 28.2813V23.8342H72.6837V28.0077C72.6837 28.6097 72.8342 29.075 73.1353 29.4034C73.4363 29.7227 73.8468 29.8823 74.3668 29.8823C74.8959 29.8823 75.311 29.7227 75.612 29.4034C75.913 29.075 76.0636 28.6097 76.0636 28.0077V23.8342H77.993Z" fill="#8D37FF"/>
<path d="M84.084 23.7247C84.9871 23.7247 85.7169 24.012 86.2734 24.5868C86.8298 25.1524 87.1081 25.946 87.1081 26.9677V31.4149H85.1924V27.2277C85.1924 26.6256 85.0418 26.1649 84.7408 25.8457C84.4398 25.5172 84.0293 25.353 83.5093 25.353C82.9802 25.353 82.5605 25.5172 82.2504 25.8457C81.9493 26.1649 81.7988 26.6256 81.7988 27.2277V31.4149H79.8831V23.8342H81.7988V24.7783C82.0542 24.4499 82.3781 24.1945 82.7704 24.012C83.1717 23.8205 83.6096 23.7247 84.084 23.7247Z" fill="#8D37FF"/>
<path d="M91.1602 25.4078V29.075C91.1602 29.3304 91.2195 29.5174 91.3381 29.636C91.4658 29.7455 91.6756 29.8002 91.9676 29.8002H92.857V31.4149H91.6528C90.0382 31.4149 89.2308 30.6304 89.2308 29.0613V25.4078H88.3277V23.8342H89.2308V21.9595H91.1602V23.8342H92.857V25.4078H91.1602Z" fill="#8D37FF"/>
<path d="M101.487 23.8342L96.7937 35H94.7549L96.3969 31.2233L93.3591 23.8342H95.5075L97.4642 29.1297L99.4483 23.8342H101.487Z" fill="#8D37FF"/>
<path d="M103.368 31.5107C103.022 31.5107 102.734 31.4058 102.506 31.196C102.287 30.977 102.178 30.7079 102.178 30.3886C102.178 30.0693 102.287 29.8048 102.506 29.595C102.734 29.376 103.022 29.2666 103.368 29.2666C103.706 29.2666 103.984 29.376 104.203 29.595C104.422 29.8048 104.531 30.0693 104.531 30.3886C104.531 30.7079 104.422 30.977 104.203 31.196C103.984 31.4058 103.706 31.5107 103.368 31.5107Z" fill="#8D37FF"/>
<path d="M5.67049 16.3547C4.605 16.3547 3.64167 16.1722 2.78051 15.8073C1.93395 15.4424 1.26254 14.917 0.766283 14.231C0.270023 13.545 0.0145958 12.7349 0 11.8008H3.28407C3.32786 12.4284 3.5468 12.9246 3.94088 13.2895C4.34957 13.6544 4.90421 13.8369 5.60481 13.8369C6.32001 13.8369 6.88195 13.669 7.29063 13.3333C7.69932 12.983 7.90366 12.5305 7.90366 11.9759C7.90366 11.5234 7.765 11.1512 7.48768 10.8593C7.21036 10.5674 6.86006 10.3412 6.43678 10.1806C6.02809 10.0055 5.45885 9.81572 4.72906 9.61138C3.73654 9.31946 2.92647 9.03484 2.29885 8.75752C1.68582 8.4656 1.15307 8.03502 0.700602 7.46578C0.262726 6.88195 0.0437876 6.10837 0.0437876 5.14504C0.0437876 4.2401 0.270024 3.45192 0.722495 2.78051C1.17497 2.1091 1.80989 1.59825 2.62726 1.24795C3.44462 0.88305 4.37876 0.700602 5.42966 0.700602C7.00602 0.700602 8.28315 1.08739 9.26108 1.86097C10.2536 2.61996 10.8009 3.68546 10.9031 5.05747H7.53147C7.50228 4.53202 7.27604 4.10144 6.85276 3.76573C6.44407 3.41543 5.89673 3.24028 5.21072 3.24028C4.61229 3.24028 4.13063 3.39354 3.76573 3.70005C3.41543 4.00656 3.24028 4.45174 3.24028 5.03557C3.24028 5.44426 3.37165 5.78726 3.63437 6.06458C3.91169 6.32731 4.2474 6.54625 4.64149 6.7214C5.05017 6.88195 5.61941 7.0717 6.3492 7.29063C7.34172 7.58255 8.15179 7.87447 8.77941 8.16639C9.40704 8.4583 9.94708 8.89618 10.3996 9.48001C10.852 10.0638 11.0783 10.8301 11.0783 11.7789C11.0783 12.5962 10.8666 13.3552 10.4433 14.0558C10.0201 14.7564 9.39974 15.3184 8.58237 15.7416C7.765 16.1503 6.79438 16.3547 5.67049 16.3547Z" fill="#09072F"/>
<path d="M17.3043 6.59003V12.4576C17.3043 12.8663 17.3992 13.1655 17.5889 13.3552C17.7933 13.5304 18.129 13.6179 18.596 13.6179H20.0191V16.2014H18.0925C15.509 16.2014 14.2173 14.9462 14.2173 12.4357V6.59003H12.7723V4.07225H14.2173V1.0728H17.3043V4.07225H20.0191V6.59003H17.3043Z" fill="#09072F"/>
<path d="M33.6742 4.07225V16.2014H30.5872V14.6688C30.1931 15.1943 29.6749 15.6103 29.0327 15.9168C28.4051 16.2087 27.7191 16.3547 26.9747 16.3547C26.026 16.3547 25.1867 16.1576 24.4569 15.7635C23.7271 15.3549 23.1506 14.7637 22.7273 13.9901C22.3186 13.202 22.1143 12.2678 22.1143 11.1877V4.07225H25.1794V10.7499C25.1794 11.7132 25.4202 12.4576 25.9019 12.983C26.3836 13.4939 27.0404 13.7493 27.8723 13.7493C28.7189 13.7493 29.383 13.4939 29.8647 12.983C30.3463 12.4576 30.5872 11.7132 30.5872 10.7499V4.07225H33.6742Z" fill="#09072F"/>
<path d="M35.9103 10.093C35.9103 8.86699 36.1511 7.7796 36.6328 6.83086C37.129 5.88213 37.8004 5.15234 38.647 4.64149C39.4936 4.13063 40.435 3.8752 41.4713 3.8752C42.2595 3.8752 43.0112 4.05035 43.7264 4.40065C44.4416 4.73636 45.0108 5.18883 45.4341 5.75807V0H48.543V16.2014H45.4341V14.4061C45.0546 15.0045 44.5218 15.4862 43.8358 15.8511C43.1498 16.216 42.3544 16.3985 41.4494 16.3985C40.4277 16.3985 39.4936 16.1357 38.647 15.6103C37.8004 15.0848 37.129 14.3477 36.6328 13.399C36.1511 12.4357 35.9103 11.3337 35.9103 10.093ZM45.456 10.1368C45.456 9.39244 45.31 8.75752 45.0181 8.23207C44.7262 7.69202 44.3321 7.28334 43.8358 7.00602C43.3396 6.7141 42.8068 6.56814 42.2376 6.56814C41.6683 6.56814 41.1429 6.7068 40.6612 6.98412C40.1796 7.26144 39.7855 7.67013 39.479 8.21017C39.187 8.73563 39.0411 9.36325 39.0411 10.093C39.0411 10.8228 39.187 11.4651 39.479 12.0197C39.7855 12.5597 40.1796 12.9757 40.6612 13.2676C41.1575 13.5596 41.6829 13.7055 42.2376 13.7055C42.8068 13.7055 43.3396 13.5669 43.8358 13.2895C44.3321 12.9976 44.7262 12.5889 45.0181 12.0635C45.31 11.5234 45.456 10.8812 45.456 10.1368Z" fill="#09072F"/>
<path d="M62.8119 9.8741C62.8119 10.312 62.7827 10.7061 62.7244 11.0564H53.8574C53.9304 11.9321 54.2369 12.6181 54.7769 13.1144C55.317 13.6106 55.9811 13.8588 56.7692 13.8588C57.9077 13.8588 58.7178 13.3698 59.1995 12.3919H62.5054C62.1551 13.5596 61.4837 14.5229 60.4912 15.2819C59.4987 16.0263 58.2799 16.3985 56.8349 16.3985C55.6673 16.3985 54.6164 16.143 53.6822 15.6322C52.7627 15.1067 52.0402 14.3696 51.5147 13.4209C51.0039 12.4722 50.7485 11.3775 50.7485 10.1368C50.7485 8.88158 51.0039 7.7796 51.5147 6.83086C52.0256 5.88213 52.7408 5.15234 53.6603 4.64149C54.5799 4.13063 55.6381 3.8752 56.8349 3.8752C57.988 3.8752 59.017 4.12333 59.922 4.61959C60.8415 5.11585 61.5494 5.82375 62.0457 6.74329C62.5565 7.64823 62.8119 8.69184 62.8119 9.8741ZM59.6373 8.99835C59.6227 8.21017 59.3381 7.58255 58.7835 7.11548C58.2288 6.63382 57.5501 6.39299 56.7474 6.39299C55.9884 6.39299 55.3462 6.62652 54.8207 7.09359C54.3098 7.54606 53.996 8.18098 53.8793 8.99835H59.6373Z" fill="#09072F"/>
<path d="M71.7706 3.8971C73.2156 3.8971 74.3833 4.35687 75.2736 5.27641C76.164 6.18135 76.6091 7.45119 76.6091 9.08593V16.2014H73.544V9.50191C73.544 8.53858 73.3032 7.80149 72.8215 7.29063C72.3398 6.76518 71.683 6.50246 70.8511 6.50246C70.0045 6.50246 69.3331 6.76518 68.8368 7.29063C68.3552 7.80149 68.1143 8.53858 68.1143 9.50191V16.2014H65.0492V4.07225H68.1143V5.58292C68.523 5.05747 69.0412 4.64878 69.6688 4.35687C70.311 4.05035 71.0116 3.8971 71.7706 3.8971Z" fill="#09072F"/>
<path d="M83.0926 6.59003V12.4576C83.0926 12.8663 83.1875 13.1655 83.3772 13.3552C83.5816 13.5304 83.9173 13.6179 84.3843 13.6179H85.8074V16.2014H83.8808C81.2973 16.2014 80.0056 14.9462 80.0056 12.4357V6.59003H78.5606V4.07225H80.0056V1.0728H83.0926V4.07225H85.8074V6.59003H83.0926Z" fill="#09072F"/>
</svg>
