<svg width="40" height="40" viewBox="0 0 40 40" fill="none" xmlns="http://www.w3.org/2000/svg">
<path d="M2.5 21.875C14.1381 24.5063 15 36.25 15 36.25C15 36.25 15.8619 24.5063 27.5 21.875C15.8619 19.2437 15 7.5 15 7.5C15 7.5 14.1381 19.2437 2.5 21.875ZM23.75 30C30.1506 31.375 30.625 37.5 30.625 37.5C30.625 37.5 31.0994 31.375 37.5 30C31.0994 28.625 30.625 22.5 30.625 22.5C30.625 22.5 30.1506 28.625 23.75 30ZM19.375 10C25.7756 11.375 26.25 17.5 26.25 17.5C26.25 17.5 26.7244 11.375 33.125 10C26.7244 8.625 26.25 2.5 26.25 2.5C26.25 2.5 25.7756 8.625 19.375 10Z" fill="white"/>
</svg>
