<svg width="572" height="572" viewBox="0 0 572 572" fill="none" xmlns="http://www.w3.org/2000/svg">
<rect width="572" height="572" fill="#7640DB"/>
<path d="M143.991 198.022C124.924 197.378 99.4357 211.02 91.7593 220.338C75.763 239.772 88.5609 255.966 125.887 253.806C149.76 252.43 158.356 234.278 161.461 221.365C164.26 209.725 155.818 198.423 143.991 198.022Z" fill="#D9D9D9"/>
<path d="M495.547 270.414C455.616 249.273 450.577 205.117 445.084 187.737C418.7 104.294 238.817 97.8797 190.711 206.324C169.141 254.95 143.581 267.835 113.371 279.639C50.6803 304.136 18.5447 351.83 65.1381 387.32C90.7739 406.85 148.706 424.837 212.252 425.1C302.629 425.474 429.701 440.091 478.126 416.972C533.372 390.597 550.119 299.295 495.547 270.414Z" fill="#D9D9D9"/>
<g filter="url(#filter0_d_303_241)">
<path d="M115.268 324.516C98.7816 315.208 93.5484 348.937 99.7457 370.46C105.943 391.981 105.766 402.802 105.766 402.802C105.766 402.802 108.718 415.252 109.129 426.449L124.051 426.494C123.172 413.222 124.712 400.442 124.712 400.442V400.431C124.81 399.501 131.64 333.757 115.268 324.516Z" fill="#B449FB"/>
<path d="M175.152 344.782C171.079 342.311 164.995 342.498 158.364 345.765C153.339 348.24 148.002 352.482 142.986 358.672C135.447 367.98 128.636 381.697 124.712 400.44C124.712 400.44 123.179 413.222 124.051 426.494L141.004 426.549C141.004 426.549 147.056 403.926 161.921 385.749C176.786 367.569 186.947 351.938 175.152 344.782Z" fill="#A332EF"/>
<path d="M64.0525 354.257C64.0525 354.257 55.2122 358.216 63.2653 378.176C71.3183 398.136 88.5111 410.151 92.0195 426.395L109.126 426.449C108.708 415.252 105.763 402.801 105.763 402.801C105.763 402.801 86.5774 346.923 64.0525 354.257Z" fill="#D089FF"/>
<path d="M151.374 370.398C145.94 378.321 141.343 387.085 137.702 396.453C131.507 412.397 130.237 424.736 130.224 424.861L131.33 424.969C131.343 424.848 132.604 412.631 138.751 396.826C142.357 387.547 146.918 378.864 152.303 371.018C159.03 361.214 167.072 352.695 176.208 345.697L175.532 344.815C166.298 351.88 158.17 360.491 151.374 370.398Z" fill="#B449FB"/>
<path d="M148.851 374.332L149.433 375.281C160.548 368.473 175.698 367.156 175.848 367.144L175.757 366.03C175.603 366.053 160.199 367.388 148.851 374.332ZM135.703 370.625L134.588 370.608C134.58 373.63 134.726 376.649 135.026 379.656C135.69 386.283 136.986 391.155 138.878 394.137L139.816 393.541C135.513 386.752 135.7 370.788 135.703 370.625ZM145.044 401.385C140.065 402.673 136.545 404.135 134.577 405.727L135.274 406.591C139.695 403.008 151.954 401.048 152.079 401.028L151.905 399.931C151.88 399.934 148.721 400.436 145.044 401.385ZM80.1313 371.775C71.9181 359.888 64.478 353.882 64.4041 353.822L63.7075 354.691C63.78 354.749 71.0918 360.652 79.2145 372.407C84.0541 379.44 88.1466 386.957 91.4251 394.839C95.6379 404.995 98.5765 415.632 100.173 426.511L101.274 426.348C99.6147 415.201 96.6457 404.457 92.4505 394.41C89.1426 386.457 85.0139 378.871 80.1313 371.775Z" fill="#B449FB"/>
<path d="M95.2284 380.279C95.2022 380.228 95.1842 380.174 95.1756 380.117C95.2507 380.835 94.5166 393.611 93.3643 399.512L94.4552 399.726C95.1352 396.259 95.6325 390.697 95.868 387.69C96.0156 385.801 96.1467 383.91 96.2204 382.367C96.3431 380 96.2971 379.911 96.2204 379.757L95.2284 380.279ZM79.2393 402.839L79.0095 403.928C79.0792 403.942 86.1068 405.435 88.3946 406.08C90.4357 406.656 96.5367 408.865 96.5981 408.887L96.977 407.842C96.7249 407.75 90.7757 405.596 88.6955 405.009C86.3729 404.355 79.5291 402.896 79.2393 402.839ZM62.1162 375.736C62.2444 375.736 75.1055 376.446 85.5828 382.546L86.1402 381.586C75.4247 375.347 62.3001 374.633 62.1762 374.62L62.1162 375.736ZM77.3975 357.147C77.6329 359.96 78.0941 367.647 77.3975 369.407L78.4328 369.815C79.3467 367.493 78.5971 358.111 78.5094 357.055L77.3975 357.147Z" fill="#B449FB"/>
<path d="M111.006 322.808L109.921 323.049C109.957 323.208 113.469 339.194 115.41 359.832C116.55 371.942 116.933 383.262 116.549 393.474C116.069 406.219 114.388 417.262 111.55 426.295L112.61 426.628C115.479 417.5 117.177 406.355 117.66 393.506C118.046 383.244 117.66 371.875 116.517 359.714C114.562 339.01 111.037 322.969 111.006 322.808Z" fill="#9825E5"/>
<path d="M99.4875 335.356L98.6265 336.054C100.096 337.785 101.692 339.406 103.401 340.904C107.258 344.304 110.94 346.45 114.347 347.287L114.611 346.207C106.887 344.318 99.5614 335.445 99.4875 335.356ZM123.23 340.767C123.343 341.554 121.654 348.611 115.371 358.194L116.3 358.803C122.513 349.33 124.582 341.806 124.32 340.551L123.23 340.767ZM99.8317 369.214L99.2227 370.145C99.3162 370.206 108.655 376.37 116.625 386.321L117.493 385.626C109.408 375.531 99.9264 369.277 99.8317 369.214ZM118.788 392.541C117.232 395.799 116.28 398.638 116.26 398.902L117.374 398.976C117.373 398.998 117.37 399.02 117.365 399.043C117.388 398.945 120.772 388.389 126.281 383.619L125.554 382.784C122.595 385.339 120.241 389.498 118.788 392.541Z" fill="#9825E5"/>
<path d="M181.783 354.619V380.891C181.785 382.619 182.471 384.276 183.692 385.497C184.915 386.718 186.572 387.404 188.298 387.404H421.425V383.079H418.804V353.63H421.425V348.106H188.304C187.447 348.106 186.599 348.272 185.808 348.6C185.018 348.926 184.299 349.406 183.694 350.011C183.087 350.616 182.607 351.335 182.279 352.125C181.952 352.916 181.783 353.764 181.783 354.619Z" fill="#8D37FF"/>
<path d="M304.285 360.44V375.07C304.288 377.897 305.232 380.643 306.964 382.876C308.697 385.109 311.124 386.703 313.861 387.41H421.421V383.083H418.8V353.63H421.425V348.106H313.864C311.128 348.808 308.7 350.402 306.965 352.635C305.232 354.867 304.288 357.613 304.285 360.44Z" fill="#6000DF"/>
<path d="M311.303 361.025V375.655C311.303 376.624 311.493 377.582 311.863 378.477C312.232 379.371 312.776 380.185 313.46 380.869C314.145 381.554 314.958 382.097 315.851 382.468C316.746 382.838 317.704 383.03 318.673 383.03H418.8V353.653H318.673C317.706 353.653 316.746 353.845 315.853 354.215C314.958 354.586 314.145 355.128 313.46 355.812C312.776 356.497 312.234 357.31 311.863 358.205C311.493 359.1 311.303 360.058 311.303 361.025Z" fill="#FBFBFB"/>
<path d="M418.081 359.167H322.861C322.62 359.167 322.39 359.263 322.22 359.433C322.049 359.602 321.955 359.834 321.955 360.073C321.955 360.314 322.049 360.544 322.22 360.714C322.39 360.884 322.62 360.978 322.861 360.978H418.081C418.322 360.978 418.552 360.884 418.721 360.714C418.891 360.544 418.987 360.314 418.987 360.073C418.987 359.834 418.891 359.602 418.721 359.433C418.552 359.263 418.322 359.167 418.081 359.167ZM418.081 364.807H366.62C366.379 364.807 366.149 364.903 365.979 365.073C365.809 365.242 365.715 365.472 365.715 365.713C365.715 365.954 365.809 366.184 365.979 366.354C366.149 366.522 366.379 366.618 366.62 366.618H418.081C418.322 366.618 418.552 366.522 418.721 366.354C418.891 366.184 418.987 365.954 418.987 365.713C418.987 365.472 418.891 365.242 418.721 365.073C418.552 364.903 418.322 364.807 418.081 364.807ZM418.081 370.449H340.761C340.522 370.449 340.292 370.543 340.122 370.714C339.952 370.884 339.856 371.114 339.856 371.355C339.856 371.594 339.952 371.826 340.122 371.994C340.292 372.164 340.522 372.26 340.761 372.26H418.081C418.322 372.26 418.552 372.164 418.721 371.994C418.891 371.826 418.987 371.594 418.987 371.355C418.987 371.114 418.891 370.884 418.721 370.714C418.552 370.543 418.322 370.449 418.081 370.449ZM418.081 376.089H325.847C325.607 376.089 325.377 376.184 325.206 376.354C325.036 376.524 324.942 376.754 324.942 376.995C324.942 377.234 325.036 377.464 325.206 377.634C325.377 377.805 325.607 377.901 325.847 377.901H418.081C418.322 377.901 418.552 377.805 418.721 377.634C418.891 377.464 418.987 377.234 418.987 376.995C418.987 376.754 418.891 376.524 418.721 376.354C418.552 376.184 418.322 376.089 418.081 376.089Z" fill="#D1B9E1"/>
<path d="M200.821 353.461H198.767C195.991 353.461 193.741 355.711 193.741 358.488V377.955C193.741 380.731 195.991 382.981 198.767 382.981H200.821C203.598 382.981 205.848 380.731 205.848 377.955V358.488C205.848 355.711 203.598 353.461 200.821 353.461Z" fill="#BB6BF1"/>
<path d="M114.506 393.917V420.189C114.506 421.917 115.192 423.573 116.414 424.795C117.635 426.016 119.292 426.703 121.019 426.703H354.141V422.377H351.52V392.928H354.141V387.404H121.019C120.164 387.404 119.317 387.573 118.526 387.9C117.736 388.226 117.018 388.706 116.413 389.311C115.808 389.916 115.329 390.635 115.001 391.425C114.674 392.215 114.506 393.063 114.506 393.917Z" fill="#8D37FF"/>
<path d="M238.661 399.398V414.028C238.663 416.542 239.409 418.998 240.802 421.09C242.197 423.18 244.178 424.814 246.497 425.783H354.141V421.463H351.52V392.003H354.141V387.406H247.127C244.653 388.288 242.51 389.915 240.994 392.061C239.478 394.209 238.663 396.772 238.661 399.398Z" fill="#6000DF"/>
<path d="M244.02 400.324V414.953C244.02 415.922 244.21 416.88 244.581 417.775C244.951 418.67 245.494 419.483 246.179 420.168C246.863 420.852 247.676 421.396 248.571 421.767C249.464 422.136 250.424 422.328 251.391 422.328H351.52V392.952H251.391C249.437 392.952 247.562 393.729 246.179 395.111C244.797 396.495 244.02 398.369 244.02 400.324Z" fill="#FBFBFB"/>
<path d="M350.797 398.465H255.578C255.338 398.465 255.108 398.561 254.937 398.732C254.767 398.9 254.673 399.132 254.673 399.371C254.673 399.612 254.767 399.842 254.937 400.012C255.108 400.181 255.338 400.277 255.578 400.277H350.797C351.038 400.277 351.268 400.181 351.438 400.012C351.607 399.842 351.703 399.612 351.703 399.371C351.703 399.132 351.607 398.9 351.438 398.732C351.268 398.561 351.038 398.465 350.797 398.465ZM350.797 404.107H299.338C299.097 404.107 298.867 404.202 298.697 404.372C298.527 404.542 298.432 404.772 298.432 405.013C298.432 405.252 298.527 405.484 298.697 405.652C298.867 405.823 299.097 405.919 299.338 405.919H350.797C351.038 405.919 351.268 405.823 351.438 405.652C351.607 405.484 351.703 405.252 351.703 405.013C351.703 404.772 351.607 404.542 351.438 404.372C351.268 404.202 351.038 404.107 350.797 404.107ZM350.797 409.748H273.479C273.238 409.748 273.008 409.842 272.838 410.012C272.668 410.182 272.573 410.412 272.573 410.653C272.573 410.892 272.668 411.122 272.838 411.293C273.008 411.463 273.238 411.559 273.479 411.559H350.797C351.038 411.559 351.268 411.463 351.438 411.293C351.607 411.122 351.703 410.892 351.703 410.653C351.703 410.412 351.607 410.182 351.438 410.012C351.268 409.842 351.038 409.748 350.797 409.748ZM350.797 415.388H258.563C258.323 415.388 258.092 415.484 257.924 415.654C257.754 415.823 257.658 416.054 257.658 416.294C257.658 416.534 257.754 416.764 257.924 416.935C258.092 417.105 258.323 417.199 258.563 417.199H350.797C351.038 417.199 351.268 417.105 351.438 416.935C351.607 416.764 351.703 416.534 351.703 416.294C351.703 416.054 351.607 415.823 351.438 415.654C351.268 415.484 351.038 415.388 350.797 415.388Z" fill="#D1B9E1"/>
<path d="M133.539 392.76H131.484C128.709 392.76 126.459 395.009 126.459 397.786V417.253C126.459 420.03 128.709 422.28 131.484 422.28H133.539C136.315 422.28 138.565 420.03 138.565 417.253V397.786C138.565 395.009 136.315 392.76 133.539 392.76Z" fill="#B37CD8"/>
<path d="M257.783 315.619V341.891C257.785 343.617 258.471 345.275 259.692 346.495C260.913 347.718 262.57 348.404 264.298 348.404H497.415V344.077H494.796V314.63H497.415V309.106H264.298C263.441 309.106 262.595 309.274 261.804 309.6C261.014 309.928 260.295 310.408 259.69 311.013C259.087 311.618 258.607 312.335 258.279 313.127C257.951 313.917 257.783 314.764 257.783 315.619Z" fill="#8D37FF"/>
<path d="M380.279 321.442V336.072C380.283 338.899 381.225 341.645 382.96 343.878C384.693 346.111 387.119 347.705 389.857 348.41H497.418V344.085H494.797V314.632H497.418V309.106H389.857C387.119 309.809 384.693 311.403 382.958 313.636C381.225 315.869 380.283 318.615 380.279 321.442Z" fill="#6000DF"/>
<path d="M387.297 322.026V336.655C387.297 337.624 387.488 338.582 387.857 339.477C388.228 340.372 388.772 341.185 389.456 341.87C390.139 342.554 390.952 343.098 391.847 343.467C392.742 343.838 393.7 344.029 394.669 344.03H494.796V314.654H394.675C393.706 314.654 392.747 314.844 391.851 315.213C390.956 315.583 390.143 316.126 389.458 316.811C388.774 317.496 388.23 318.309 387.859 319.204C387.488 320.098 387.297 321.057 387.297 322.026Z" fill="#FBFBFB"/>
<path d="M494.074 320.167H398.855C398.614 320.167 398.384 320.263 398.214 320.432C398.043 320.602 397.949 320.832 397.949 321.073C397.949 321.312 398.043 321.544 398.214 321.712C398.384 321.882 398.614 321.978 398.855 321.978H494.074C494.315 321.978 494.545 321.882 494.715 321.712C494.883 321.544 494.979 321.312 494.979 321.073C494.979 320.832 494.883 320.602 494.715 320.432C494.545 320.263 494.315 320.167 494.074 320.167ZM494.074 325.807H442.614C442.374 325.807 442.144 325.901 441.973 326.072C441.803 326.242 441.709 326.472 441.709 326.713C441.709 326.952 441.803 327.184 441.973 327.352C442.144 327.523 442.374 327.619 442.614 327.619H494.074C494.315 327.619 494.545 327.523 494.715 327.352C494.883 327.184 494.979 326.952 494.979 326.713C494.979 326.472 494.883 326.242 494.715 326.072C494.545 325.901 494.315 325.807 494.074 325.807ZM494.074 331.448H416.755C416.516 331.448 416.286 331.544 416.116 331.714C415.946 331.884 415.85 332.114 415.85 332.353C415.85 332.594 415.946 332.824 416.116 332.994C416.286 333.165 416.516 333.259 416.755 333.259H494.074C494.315 333.259 494.545 333.165 494.715 332.994C494.883 332.824 494.979 332.594 494.979 332.353C494.979 332.114 494.883 331.884 494.715 331.714C494.545 331.544 494.315 331.448 494.074 331.448ZM494.074 337.088H401.84C401.599 337.088 401.369 337.184 401.2 337.354C401.03 337.522 400.934 337.754 400.934 337.993C400.934 338.234 401.03 338.464 401.2 338.635C401.369 338.805 401.599 338.899 401.84 338.899H494.074C494.315 338.899 494.545 338.805 494.715 338.635C494.883 338.464 494.979 338.234 494.979 337.993C494.979 337.754 494.883 337.522 494.715 337.354C494.545 337.184 494.315 337.088 494.074 337.088Z" fill="#D1B9E1"/>
<path d="M276.815 314.462H274.762C271.985 314.462 269.735 316.711 269.735 319.486V338.955C269.735 341.73 271.985 343.981 274.762 343.981H276.815C279.592 343.981 281.842 341.73 281.842 338.955V319.486C281.842 316.711 279.592 314.462 276.815 314.462Z" fill="#D493FF"/>
<path d="M327.369 177.842C325.697 178.908 323.971 179.897 322.2 180.792C321.198 180.999 320.182 181.111 319.16 181.129C319.6 180.394 321.294 179.361 320.723 178.483C320.607 178.369 320.446 178.356 320.229 178.421C318.912 178.838 316.032 182.332 314.969 183.158C314.272 184.058 314.587 187.291 315.737 187.477C319.24 188.019 321.328 187.164 323.473 186.479C325.784 185.739 327.334 184.27 328.193 182.75C329.548 180.354 329.182 177.829 327.369 177.842ZM195.791 210.634C194.007 210.634 187.639 211.652 187.818 212.824C188.097 213.529 189.162 213.23 190.075 213.125C190.379 213.074 190.689 213.083 190.989 213.154C190.372 213.981 189.649 214.724 188.841 215.365C187.084 216.291 185.282 217.127 183.444 217.872C183.257 218.115 183.152 218.408 183.141 218.712C183.129 219.017 183.214 219.317 183.38 219.573C184.451 221.375 188.899 222.579 192.743 219.694C194.545 218.343 196.449 217.133 198.037 213.958C198.56 212.92 196.934 210.634 195.791 210.634Z" fill="#E4E4E4"/>
<path d="M314.927 182.975C312.808 183.735 310.649 184.467 308.498 185.114C303.316 186.66 297.898 187.959 292.51 188.053C283.292 187.468 274.713 183.065 266.457 179.213C259.475 175.686 254.175 186.041 261.085 189.651C265.441 191.824 269.965 193.646 274.613 195.097C280.597 196.908 286.826 198.357 293.205 197.723C301.921 196.503 310.175 192.73 317.393 187.811C319.995 186.132 317.84 181.839 314.927 182.975Z" fill="#E4E4E4"/>
<path d="M314.207 183.228C313.497 183.427 312.801 183.616 312.118 183.795C293.318 188.716 283.441 183.909 276.968 180.41C270.837 177.094 265.195 174.598 262.431 173.424C261.481 173.024 260.873 172.777 260.695 172.709C260.686 172.701 260.675 172.698 260.665 172.692H260.646C260.694 172.743 261.404 173.529 262.164 175.201C263.626 178.405 265.28 184.876 262.862 195.749C262.862 195.749 264.158 196.258 266.497 196.921C267.154 197.108 267.89 197.305 268.705 197.506C269.628 197.736 270.648 197.972 271.758 198.204C272.314 198.32 272.894 198.432 273.497 198.544C278.33 199.435 283.231 199.91 288.145 199.961C299.784 200.08 310.675 192.879 314.879 189.723C316.054 188.839 316.706 188.274 316.706 188.274C313.832 186.161 314.207 183.228 314.207 183.228Z" fill="#734B8D"/>
<path d="M276.967 180.41C292.098 194.59 312.118 183.795 312.118 183.795C293.317 188.716 283.441 183.909 276.967 180.41Z" fill="#B69FC5"/>
<path d="M318.538 303.627C318.356 303.582 318.17 303.54 317.981 303.496C316.527 303.18 314.504 302.957 312.506 302.535C311.151 302.252 309.947 301.484 309.121 300.372C308.295 299.262 307.906 297.887 308.025 296.509L308.71 288.787L309.184 283.468C309.204 283.238 309.175 283.008 309.099 282.792C309.023 282.575 308.904 282.377 308.744 282.211C308.587 282.046 308.395 281.916 308.183 281.829C307.969 281.742 307.741 281.702 307.512 281.711L298.549 282.035C298.324 282.042 298.101 282.098 297.898 282.196C297.696 282.296 297.516 282.435 297.371 282.609C297.225 282.781 297.118 282.982 297.056 283.2C296.993 283.417 296.976 283.645 297.007 283.868L298.983 298.063C299.097 298.878 299.177 299.696 299.221 300.517C299.315 302.232 299.248 303.951 299.018 305.652C298.945 306.177 298.904 306.706 298.896 307.235C298.893 307.454 298.933 307.671 299.016 307.874C299.099 308.077 299.222 308.262 299.38 308.416C299.536 308.568 299.722 308.689 299.925 308.769C300.13 308.849 300.349 308.887 300.568 308.879L302.081 308.825L320.874 308.146C321.167 308.135 321.452 308.044 321.698 307.885C321.944 307.724 322.144 307.499 322.27 307.235C322.399 306.97 322.452 306.675 322.424 306.382C322.397 306.09 322.292 305.809 322.117 305.572C321.361 304.531 320.079 304.007 318.538 303.627Z" fill="#E4E4E4"/>
<path d="M307.521 281.715L298.557 282.037C298.332 282.046 298.112 282.1 297.909 282.2C297.704 282.298 297.525 282.439 297.38 282.611C297.235 282.785 297.126 282.986 297.065 283.203C297.001 283.421 296.987 283.647 297.018 283.872L298.994 298.066C299.108 298.882 299.186 299.7 299.229 300.521C299.325 302.234 299.256 303.953 299.028 305.656C298.954 306.179 298.914 306.708 298.905 307.237C298.901 307.458 298.943 307.675 299.026 307.878C299.11 308.081 299.233 308.264 299.388 308.418C299.544 308.572 299.731 308.691 299.935 308.771C300.14 308.852 300.357 308.889 300.577 308.881L302.089 308.827C304.616 307.778 306.528 306.492 306.664 305.982C307.007 304.679 303.236 301.97 302.036 300.195C300.839 298.42 299.894 290.486 302.036 290.486C303.609 290.486 307.012 289.372 308.711 288.789L309.184 283.47C309.204 283.241 309.176 283.013 309.1 282.798C309.026 282.58 308.905 282.383 308.747 282.218C308.591 282.051 308.399 281.921 308.189 281.834C307.977 281.747 307.749 281.707 307.521 281.715Z" fill="#B28AFC"/>
<path d="M308.637 300.195C307.212 300.385 303.97 300.99 299.23 300.521C299.23 300.521 297.703 303.12 298.299 306.856C298.389 307.849 298.924 308.965 300.075 308.9L321.14 308.139C321.392 308.13 321.638 308.061 321.857 307.936C322.077 307.813 322.263 307.637 322.399 307.425C322.537 307.213 322.62 306.971 322.644 306.721C322.667 306.469 322.629 306.215 322.533 305.982C321.637 303.716 318.61 300.398 308.637 300.195Z" fill="#5924BA"/>
<path d="M322.538 305.981L298.294 306.858C298.399 307.593 298.651 308.302 299.035 308.937L321.136 308.139C321.384 308.131 321.629 308.064 321.848 307.943C322.065 307.822 322.252 307.651 322.389 307.443C322.527 307.235 322.614 306.998 322.641 306.749C322.67 306.503 322.638 306.251 322.549 306.018C322.547 306.007 322.542 305.994 322.538 305.981Z" fill="#481B9C"/>
<path d="M313.486 276.024C312.941 267.699 311.609 255.158 308.378 245.497C306.92 241.13 305.071 237.354 302.732 234.818C294.491 225.883 281.702 223.297 274.459 221.493L246.314 223.836C246.314 223.836 234.146 225.443 235.102 227.136C241.588 238.638 249.766 246.154 260.208 246.761C260.396 246.774 260.592 246.783 260.784 246.792C267.752 247.123 279.036 246.526 285.136 250.904C290.03 254.627 290.132 267.065 291.117 276.913C291.316 278.896 291.552 280.775 291.867 282.455C292.086 283.627 292.31 284.707 292.546 285.659C292.544 285.668 292.544 285.676 292.546 285.685C293.173 285.922 293.81 286.127 294.457 286.301C302.982 288.594 313.853 284.978 313.853 284.978C313.853 284.978 313.844 283.645 313.757 281.399C313.712 279.943 313.623 278.117 313.486 276.024Z" fill="#714BB8"/>
<path d="M274.457 221.493C274.457 221.493 284.962 226.214 292.064 230.839C300.164 236.113 308.258 245.356 308.378 245.497C306.918 241.13 305.071 237.354 302.731 234.818C294.489 225.883 281.7 223.295 274.457 221.493Z" fill="#8354DA"/>
<path d="M263.057 241.873L260.79 246.79C267.756 247.122 279.04 246.524 285.14 250.902C291.707 255.903 290.295 276.591 292.555 285.678C293.18 285.915 293.818 286.12 294.466 286.293C294.466 286.293 294.912 259.078 288.549 250.587C282.186 242.094 263.057 241.873 263.057 241.873Z" fill="#3C1C78"/>
<path d="M255.011 343.125C254.816 343.069 254.613 343.016 254.41 342.962C252.838 342.556 250.637 342.234 248.469 341.696C245.43 340.94 246.049 341.614 244.723 339.013L245.946 333.092L247.705 324.581C247.819 323.659 237.888 322.71 235.401 322.491L234.845 322.442C234.849 322.511 234.849 322.578 234.845 322.645C234.845 324.639 234.033 338.126 234.048 338.982C234.086 340.857 233.945 342.732 233.63 344.579C233.528 345.15 233.463 345.724 233.432 346.302C233.419 346.541 233.456 346.782 233.539 347.006C233.622 347.231 233.749 347.437 233.914 347.611C234.079 347.785 234.278 347.925 234.499 348.019C234.718 348.115 234.955 348.164 235.196 348.164H236.247H257.395C257.717 348.164 258.032 348.075 258.306 347.91C258.581 347.743 258.806 347.506 258.956 347.222C259.107 346.939 259.175 346.619 259.157 346.298C259.139 345.977 259.034 345.668 258.853 345.403C258.058 344.224 256.678 343.601 255.011 343.125Z" fill="#E4E4E4"/>
<path d="M235.4 322.489C235.215 322.538 235.03 322.589 234.842 322.643C234.842 324.637 234.032 338.122 234.045 338.979C234.083 340.853 233.943 342.728 233.626 344.577C233.527 345.146 233.461 345.722 233.431 346.3C233.418 346.539 233.454 346.778 233.536 347.003C233.619 347.229 233.748 347.434 233.912 347.609C234.077 347.783 234.275 347.921 234.496 348.017C234.717 348.111 234.954 348.16 235.193 348.16H236.244C236.693 346.939 236.801 345.476 237.339 345.068C238.381 344.28 238.055 341.044 236.561 339.81C235.068 338.575 235.523 333.9 237.276 333.445L245.937 333.094L247.696 324.583C247.816 323.661 237.885 322.712 235.4 322.489Z" fill="#B28AFC"/>
<path d="M244.342 338.991C242.78 339.144 239.218 339.678 234.059 338.979C234.059 338.979 232.29 341.766 232.795 345.86C232.855 346.948 233.394 348.189 234.655 348.16H257.683C257.96 348.162 258.232 348.097 258.476 347.97C258.723 347.841 258.933 347.658 259.09 347.432C259.25 347.205 259.351 346.945 259.386 346.669C259.422 346.396 259.389 346.119 259.293 345.86C258.393 343.344 255.216 339.602 244.342 338.991Z" fill="#5924BA"/>
<path d="M259.286 345.853L232.788 345.86C232.873 346.668 233.119 347.45 233.514 348.16H257.676C257.949 348.162 258.217 348.097 258.46 347.974C258.703 347.85 258.913 347.669 259.071 347.448C259.23 347.227 259.333 346.972 259.373 346.702C259.413 346.432 259.389 346.157 259.301 345.9C259.297 345.88 259.292 345.867 259.286 345.853Z" fill="#481B9C"/>
<path d="M235.108 227.135C234.019 239.572 235.624 248.243 235.414 269.748C235.331 278.266 234.963 288.798 234.03 302.375C233.907 304.178 233.773 306.036 233.63 307.949C233.587 308.525 233.469 309.829 233.317 311.432C233.204 312.632 232.951 314.373 232.643 316.275C231.806 321.431 230.553 327.794 230.553 327.794C231.774 328.546 233.079 329.151 234.443 329.597C242.818 332.422 254.13 331.011 254.13 331.011C254.13 331.011 255.343 323.853 256.2 317.461C256.466 315.478 256.696 313.567 256.848 311.964C257.993 299.823 259.723 281.796 260.464 275.801C261.893 264.202 263.854 239.297 263.175 221.545L235.108 227.135Z" fill="#714BB8"/>
<path d="M271.76 198.193V198.176C271.575 197.11 271.445 196.036 271.369 194.954C271.34 194.481 271.305 194.016 271.269 193.561C271.086 191.138 270.733 188.733 270.208 186.36C268.815 180.24 266.279 175.972 262.427 173.607C261.872 173.268 261.293 172.968 260.695 172.71C260.686 172.705 260.675 172.699 260.664 172.696H260.646C260.672 172.785 261.132 174.413 259.875 175.322C258.369 176.411 254.01 174.764 254.01 172.245C253.367 172.381 252.733 172.555 252.11 172.765C248.292 174.009 239.804 177.86 237.087 188.021C236.817 189.03 236.423 196.126 236.059 204.001C236.019 204.86 235.979 205.724 235.939 206.593C235.486 216.7 235.104 227.136 235.104 227.136C263.646 231.907 274.453 221.493 274.453 221.493C274.136 220.424 273.874 219.375 273.656 218.346C272.084 210.931 272.8 204.541 271.76 198.193Z" fill="#734B8D"/>
<path d="M234.666 186.577C228.218 193.069 221.737 197.017 215.869 200.571C211.261 203.356 206.621 206.327 201.629 208.404C199.553 209.263 197.418 210.064 195.295 210.81C192.319 211.773 193.359 216.464 196.436 216.111C205.139 215.361 214.351 213.509 221.824 208.866C227.829 205.137 235.177 201.203 239.546 196.727C243.652 192.52 247.626 185.789 249.625 181.337C252.701 174.168 240.98 177.005 234.666 186.577Z" fill="#E4E4E4"/>
<path d="M251.989 172.294C232.414 173.507 219.725 194.268 215.036 198.906C211.241 202.668 202.185 207.508 198.43 209.441C197.387 209.973 196.758 210.285 196.758 210.285C199.028 212.413 198.256 215.93 198.256 215.93C198.954 215.957 199.649 215.968 200.346 215.961C211.321 215.822 226.167 212.098 236.059 203.991C238.623 201.891 240.855 199.493 242.606 196.789C248.851 187.11 251.95 178.927 253.244 174.904C253.794 173.194 254.017 172.234 254.017 172.234C253.459 172.234 252.901 172.234 252.358 172.27C252.229 172.279 252.11 172.287 251.989 172.294Z" fill="#734B8D"/>
<path d="M313.485 276.024C306.001 279.565 295.348 277.822 291.122 276.913C291.321 278.894 291.555 280.773 291.87 282.453C292.089 283.625 292.314 284.703 292.548 285.659C292.551 285.667 292.553 285.674 292.555 285.683C293.181 285.92 293.819 286.127 294.467 286.299C302.991 288.592 313.864 284.978 313.864 284.978C313.864 284.978 313.853 283.643 313.768 281.398C313.712 279.945 313.623 278.119 313.485 276.024Z" fill="#AA8DDF"/>
<path d="M198.43 209.442C197.387 209.978 196.758 210.288 196.758 210.288C199.028 212.416 198.258 215.932 198.258 215.932C198.955 215.963 199.651 215.975 200.348 215.963C200.357 215.885 200.872 211.509 198.43 209.442Z" fill="#B28AFC"/>
<path d="M314.209 183.23C313.497 183.429 312.8 183.614 312.119 183.788L312.111 183.869C312.111 183.869 311.517 187.195 314.879 189.705C316.053 188.823 316.706 188.258 316.706 188.258C313.832 186.162 314.209 183.23 314.209 183.23Z" fill="#734B8D"/>
<path d="M236.059 203.998C236.019 204.856 235.979 205.72 235.939 206.59C242.048 200.727 246.493 190.339 246.64 189.99C242.434 197.303 236.059 203.994 236.059 203.994V203.998ZM270.208 186.358C270.675 189.068 271.021 191.562 271.267 193.554V193.565C271.595 196.226 271.745 197.99 271.758 198.173C271.758 198.178 271.758 198.184 271.758 198.189C272.314 198.305 272.894 198.417 273.495 198.53C271.774 191.527 270.199 186.313 270.199 186.313L270.208 186.358Z" fill="#49356D"/>
<path d="M260.666 172.692H260.646C260.672 172.783 261.132 174.411 259.877 175.319C258.37 176.411 254.008 174.762 254.008 172.243C253.452 172.243 252.894 172.243 252.351 172.277L251.989 172.297C251.989 172.319 251.338 181.792 257.964 183.471C264.673 185.172 267.81 176.338 267.817 175.827C267.817 175.766 262.431 173.486 262.431 173.428C261.416 172.995 260.79 172.743 260.666 172.692Z" fill="#B69FC5"/>
<path d="M327.369 177.842C325.697 178.908 323.971 179.897 322.2 180.792C321.198 180.999 320.18 181.111 319.159 181.129C319.601 180.394 321.294 179.361 320.724 178.483C320.608 178.369 320.445 178.356 320.229 178.421C320.224 178.515 320.207 178.608 320.182 178.7C319.956 179.588 318.597 180.741 318.565 181.216C318.534 181.663 324.172 182.283 328.193 182.748C329.548 180.354 329.182 177.829 327.369 177.842ZM190.079 213.125C190.379 213.072 190.687 213.081 190.984 213.15C190.827 213.03 190.55 212.992 190.079 213.125ZM190.99 213.155C190.374 213.981 189.653 214.724 188.845 215.363C187.088 216.289 185.288 217.126 183.448 217.87C183.046 218.428 184.942 220.438 185.266 220.984C186.815 220.6 190.108 217.622 191.098 214.059C191.098 214.059 191.328 213.422 190.99 213.155Z" fill="#B28AFC"/>
<path d="M234.03 302.375C233.907 304.178 233.773 306.036 233.63 307.949C233.587 308.525 233.469 309.829 233.317 311.432C233.204 312.632 232.951 314.373 232.643 316.277C231.806 321.431 230.553 327.796 230.553 327.796C231.774 328.546 233.079 329.151 234.443 329.597C242.329 305.543 235.42 269.746 235.42 269.746C235.331 278.266 234.963 288.8 234.03 302.375Z" fill="#3C1C78"/>
<path d="M232.637 316.279C231.802 321.433 230.547 327.798 230.547 327.798C238.71 332.937 254.126 331.013 254.126 331.013C254.126 331.013 255.339 323.855 256.194 317.465C248.792 317.978 237.848 316.911 232.637 316.279Z" fill="#AA8DDF"/>
<path d="M183.648 215.075C180.827 217.414 178.986 221.311 178.986 221.311C178.986 221.311 182.167 221.989 182.453 223.568C182.453 223.568 186.166 220.471 187.468 218.384C188.769 216.3 191.104 213.011 191.104 213.011C191.104 213.011 186.472 212.733 183.648 215.075Z" fill="#E4E4E4"/>
<path d="M182.448 218.227C182.405 218.281 180.474 218.763 180.474 218.882C179.858 219.779 179.208 220.654 178.523 221.505C173.35 227.826 166.837 233.503 159.409 236.893C154.167 239.286 148.467 240.541 142.463 240.081C140.295 240.034 138.13 239.873 135.979 239.598C127.171 238.65 125.486 251.744 134.275 253.037C144.307 254.138 155.026 252.863 163.792 247.489C164.54 246.987 165.281 246.466 166.009 245.926C174.578 239.592 181.573 230.822 184.868 220.648C185.359 219.216 183.873 217.74 182.448 218.227Z" fill="#E4E4E4"/>
<path d="M159.405 236.893C154.163 239.286 148.463 240.541 142.461 240.081C140.292 240.034 138.127 239.873 135.976 239.598C127.168 238.65 125.483 251.744 134.272 253.037C144.303 254.138 155.022 252.863 163.788 247.489C164.538 246.987 165.277 246.466 166.007 245.926C163.435 244.575 160.506 239.098 159.405 236.893Z" fill="#B28AFC"/>
<path d="M156.822 235.953C152.946 237.506 150.528 239.705 145.955 239.038C141.487 238.723 136.885 237.687 134.22 238.006C134.706 241.789 137.671 251.032 138.166 254.847C139.141 254.995 140.154 255.104 141.193 255.173C142.001 255.225 142.829 255.158 143.651 255.263C155.495 256.77 163.924 248.54 163.924 248.54C158.134 245.7 156.822 235.953 156.822 235.953Z" fill="#9E6BFC"/>
<path d="M79.3864 332.375C73.9249 333.929 67.1954 334.934 67.1954 334.934C64.5566 340.46 68.618 343.699 68.618 343.699L71.1258 343.826L81.3594 344.344L79.9662 335.876L79.3864 332.375Z" fill="#E4E4E4"/>
<path d="M79.9647 335.88L79.3864 332.377C73.9249 333.931 67.1954 334.938 67.1954 334.938C64.5566 340.462 68.618 343.702 68.618 343.702L71.1258 343.829C70.3289 341.917 68.618 338.493 68.8506 337.999C69.1083 337.474 77.2075 336.271 79.9647 335.88Z" fill="#B28AFC"/>
<path d="M124.328 365.908L121.892 378.563C122.572 379.197 123.362 379.701 124.223 380.049C128.096 381.576 131.523 378.67 131.523 378.67C132.051 376.879 132.777 374.655 133.474 372.576C134.449 369.649 135.384 367.002 135.654 366.238C135.707 366.099 135.734 366.015 135.734 366.015H135.551L124.328 365.908Z" fill="#E4E4E4"/>
<path d="M124.328 365.908L121.892 378.563C122.572 379.197 123.362 379.701 124.223 380.049C124.78 378.312 125.031 372.47 126.034 372.568C126.985 372.659 131.966 372.597 133.474 372.576C134.449 369.649 135.384 367.002 135.654 366.238C135.622 366.164 135.589 366.091 135.551 366.013L124.328 365.908Z" fill="#B28AFC"/>
<path d="M67.1947 334.934C67.1947 334.934 63.7993 333.989 60.9863 334.806C60.2908 334.996 59.6407 335.322 59.0747 335.769L62.5048 356.908C62.5418 357.147 62.6352 357.374 62.778 357.571C62.9205 357.767 63.108 357.926 63.3246 358.035C63.5412 358.143 63.7807 358.2 64.0232 358.198C64.2659 358.196 64.5043 358.134 64.7187 358.022L64.7508 358.004C66.8408 356.856 69.6969 353.499 68.6172 343.704C68.6172 343.699 67.0929 340.545 67.1947 334.934Z" fill="#33274A"/>
<path d="M59.0747 335.769L62.5048 356.906C62.5418 357.147 62.6352 357.374 62.778 357.571C62.9205 357.767 63.108 357.926 63.3246 358.035C63.5412 358.144 63.7807 358.2 64.0232 358.198C64.2659 358.196 64.5043 358.134 64.7187 358.022L64.7508 358.004L60.9876 334.806C60.2917 334.994 59.6411 335.322 59.0747 335.769Z" fill="#493A64"/>
<path d="M146.089 385.459C145.254 383.01 142.189 379.328 131.523 378.669C131.523 378.669 127.868 379.714 121.89 378.563C121.89 378.563 120.25 382.019 120.6 385.178C120.673 385.959 120.902 386.718 121.274 387.408L144.506 387.663C144.768 387.669 145.027 387.609 145.263 387.493C145.498 387.377 145.703 387.205 145.861 386.995C146.016 386.783 146.12 386.537 146.161 386.278C146.203 386.019 146.183 385.752 146.101 385.502L146.089 385.459Z" fill="#33274A"/>
<path d="M146.091 385.459L120.593 385.18C120.666 385.961 120.895 386.719 121.268 387.41L144.499 387.665C144.761 387.669 145.022 387.611 145.257 387.495C145.493 387.377 145.698 387.207 145.853 386.995C146.009 386.785 146.112 386.538 146.156 386.279C146.198 386.02 146.178 385.754 146.096 385.504L146.091 385.459Z" fill="#493A64"/>
<path d="M120.047 270.3C114.385 272.207 109.913 277.406 111.154 285.067V285.036C113.323 291.243 113.762 297.02 112.794 302.285C110.262 316.003 97.9125 324.782 81.8636 329.613C80.0708 330.153 78.2341 330.643 76.3531 331.085C75.3444 331.323 74.3218 331.544 73.2879 331.743C73.2879 331.743 72.7543 344.646 75.4337 349.076C75.6677 349.127 79.279 348.667 84.4493 347.743C96.3925 345.61 116.645 340.995 122.764 334.425C123.949 333.188 125.06 331.882 126.091 330.513C133.834 320.265 136.726 307.23 137.692 294.192C138.029 289.677 138.132 285.163 138.126 280.764C136.435 270.78 127.271 267.86 120.047 270.3Z" fill="#30175F"/>
<path d="M123.629 277.974L136.781 299.347L137.23 299.099C137.433 297.333 137.598 295.532 137.726 293.698C137.816 292.486 137.886 291.254 137.943 290.006C138.068 287.322 138.13 284.562 138.131 281.724L133.627 280.456L123.629 277.974ZM112.711 295.277C112.85 298.963 113.498 300.571 111.952 305.674C111.952 305.674 121.426 313.766 121.008 336.048C121.008 336.048 124.392 333.199 126.093 330.508C130.907 322.888 131.155 322.288 133.829 313.496L130.737 296.424L112.711 295.277Z" fill="#200F3F"/>
<path d="M128.41 276.36C125.78 273.144 122.892 271.206 120.051 270.3C110.659 267.317 101.197 276.916 103.362 287.855C103.514 288.624 103.719 289.381 103.975 290.122C104.737 292.336 105.997 294.571 107.847 296.737C109.169 298.285 110.56 299.696 111.831 301.142C112.164 301.519 112.485 301.895 112.798 302.279C120.199 311.388 124.324 320.781 126.102 330.507C127.938 340.509 124.151 350.23 121.322 360.84C120.952 362.222 120.6 363.619 120.278 365.033C120.059 365.997 119.829 366.961 119.59 367.928C119.59 367.928 132.705 371.663 136.519 369.96C136.925 369.103 137.182 367.654 137.567 366.808C137.811 366.278 138.05 365.747 138.283 365.218C143.693 353.05 146.612 342.134 146.612 330.759C146.612 319.559 143.78 307.91 137.696 294.185C135.236 288.622 132.161 282.72 128.41 276.36Z" fill="#30175F"/>
<path d="M140.927 251.546C139.771 247.786 134.262 238.138 133.136 237.725C130.252 236.539 126.704 236.079 123.269 236.551C118.114 237.263 113.225 240.074 111.229 245.696C109.583 248.359 107.856 255.046 106.476 261.82C106.383 262.267 106.294 262.715 106.209 263.158C106.106 263.68 106.007 264.198 105.908 264.714C105.725 265.68 105.551 266.634 105.387 267.565C104.822 270.771 104.374 273.732 104.089 275.958C103.993 276.699 103.918 277.362 103.862 277.925C103.723 279.293 103.709 280.079 103.844 280.032C103.844 280.032 115.942 286.257 138.132 281.798C138.132 281.798 138.132 280.961 138.007 279.235C137.887 277.563 137.649 275.055 137.181 271.669C137.138 271.352 137.092 271.026 137.042 270.693C136.981 270.11 136.959 269.523 136.976 268.936C137.171 261.956 142.731 257.409 140.927 251.546Z" fill="#9E6BFC"/>
<path d="M111.229 245.696C109.584 248.359 107.856 255.046 106.477 261.82C106.384 262.267 106.295 262.715 106.209 263.158C106.106 263.68 106.007 264.198 105.908 264.714C105.726 265.68 105.552 266.634 105.387 267.565C109.053 264.524 116.213 258.426 120.942 253.401C125.932 248.098 124.337 240.116 123.27 236.551C118.119 237.263 113.226 240.074 111.229 245.696Z" fill="#7734F4"/>
<path d="M88.0849 288.82C87.6668 287.681 83.3715 286.563 82.2639 287.116C78.7917 288.853 78.0993 292.819 78.0422 293.421C77.6242 294.084 74.8516 301.798 77.4947 299.968C78.1913 298.436 78.5188 296.864 79.4731 295.485C79.1026 296.25 76.8496 305.125 79.352 302.796C79.8352 300.736 80.5517 298.738 81.4878 296.842H81.5032C81.4028 297.67 79.4034 306.472 81.6647 303.958C82.0161 301.772 82.52 299.613 83.1722 297.496H83.2043C83.3367 298.235 83.3171 305.366 84.61 303.995C84.7971 303.788 84.8969 303.517 84.8888 303.238C84.8665 301.236 84.9319 299.238 85.099 297.246C85.1088 297.246 85.5797 295.516 86.4645 294.056C87.097 294.79 86.9605 297.309 88.0166 297.193C89.0977 296.512 88.6992 293.669 88.3998 292.597C88.3426 292.04 88.4806 289.891 88.0849 288.82Z" fill="#E4E4E4"/>
<path d="M120.274 365.032C120.054 365.995 119.826 366.959 119.586 367.926C119.586 367.926 132.701 371.661 136.516 369.958C136.921 369.102 137.179 367.653 137.563 366.809C137.808 366.276 138.047 365.745 138.281 365.218C133.927 364.691 126.675 363.47 121.318 360.84C120.949 362.221 120.596 363.619 120.274 365.032ZM76.3531 331.08C75.3444 331.317 74.3218 331.538 73.2879 331.737C73.2879 331.737 72.7543 344.641 75.4337 349.071C75.6677 349.122 79.279 348.662 84.4493 347.738C83.4225 343.188 81.8509 335.289 81.858 329.607C80.069 330.147 78.2341 330.638 76.3531 331.08Z" fill="#5B379E"/>
<path d="M115.414 238.228C106.759 243.001 98.9738 249.724 93.88 258.292C93.4314 259.09 92.9931 259.895 92.5649 260.702C87.9991 269.284 84.4476 278.315 82.1265 287.744C81.2 291.157 86.4248 292.91 87.7441 289.615C89.5832 285.297 91.6661 281.035 93.8981 276.911C95.8934 273.113 97.8104 269.793 99.8475 266.833C105.016 259.329 110.973 254.149 121.043 249.418C128.632 245.664 122.932 234.381 115.414 238.228Z" fill="#E4E4E4"/>
<path d="M115.414 238.228C106.759 243.001 98.974 249.724 93.8803 258.292C93.4316 259.09 92.9931 259.895 92.5649 260.702C94.418 262.39 97.8677 265.47 99.8476 266.833C105.017 259.328 110.973 254.147 121.043 249.417C128.632 245.664 122.933 234.381 115.414 238.228Z" fill="#B28AFC"/>
<path d="M106.315 239.875C95.5996 246.26 90.6938 254.981 90.6938 254.981C90.6938 254.981 93.9485 257.468 94.8264 258.333C94.8264 258.333 98.6342 261.974 103.433 265.736C103.433 265.736 106.066 262.936 107.066 262.24C109.956 260.23 113.741 254.325 118.212 253.206C122.683 252.086 127.572 244.119 123.55 236.515C123.546 236.515 115.515 234.394 106.315 239.875Z" fill="#9E6BFC"/>
<path d="M120.551 236.946C120.551 236.946 128.871 248.81 136.155 239.025C142.041 231.105 120.551 236.946 120.551 236.946ZM141.197 255.173C142.004 255.225 142.823 255.256 143.654 255.263C142.892 253.052 141.38 249.518 138.786 246.663C138.854 246.77 141.016 250.25 141.197 255.173Z" fill="#7734F4"/>
<path d="M370.541 162.997C367.895 170.041 366.741 171.191 359.219 173.978C350.721 176.643 341.395 176.641 332.529 176.24C328.819 176.215 329.053 181.165 332.668 181.303C342.534 183.288 352.786 184.382 362.73 181.969C373.161 178.626 370.784 175.554 374.327 165.936C376.39 159.409 372.579 156.487 370.541 162.997Z" fill="#B28AFC"/>
<path d="M380.471 158.684C383.677 148.969 376.153 150.637 376.153 150.637C376.153 150.637 375.405 150.834 374.327 151.646C373.449 152.31 372.309 153.37 371.071 155.038C370.975 155.169 370.879 155.301 370.781 155.438C369.651 157.063 368.676 158.787 367.868 160.593C367.457 161.497 366.992 162.375 366.475 163.223C362.476 169.771 356.742 171.874 352.893 172.736C349.519 173.493 341.174 173.812 336.729 175.038C335.476 175.38 334.545 175.797 334.11 176.315C334.11 176.315 332.772 178.789 333.368 181.423C333.505 182.049 334.351 182.736 335.664 183.419C339.915 185.625 349.12 187.791 355.727 187.659C361.58 187.545 368.604 185.489 373.979 180.741C374.055 180.674 374.132 180.602 374.208 180.537C374.465 180.305 374.718 180.068 374.967 179.82C376.323 178.486 377.517 176.996 378.52 175.378C379.176 174.321 379.75 173.212 380.237 172.064C382.108 167.673 381.829 163.375 380.815 159.796C380.71 159.416 380.351 159.046 380.471 158.684Z" fill="#5924BA"/>
<path d="M352.891 172.736C349.518 173.493 341.172 173.812 336.729 175.038C336.729 175.038 350.254 177.003 356.401 173.844C362.548 170.685 365.577 167.853 366.47 163.223C362.476 169.772 356.741 171.874 352.891 172.736Z" fill="#814FDE"/>
<path d="M373.979 180.741C374.055 180.674 374.131 180.602 374.207 180.537C374.465 180.305 374.718 180.068 374.966 179.819C376.325 178.486 377.516 176.996 378.52 175.378C379.176 174.321 379.75 173.212 380.237 172.064C382.108 167.673 381.829 163.375 380.815 159.796C380.71 159.416 380.596 159.044 380.471 158.68C379.994 157.266 380.175 156.262 380.663 155.552C379.378 156.962 378.114 158.418 377.544 159.188C371.844 159.454 370.105 173.712 373.979 180.741ZM384.151 151.977C383.733 152.292 382.499 153.562 381.184 154.985C382.53 153.852 384.771 153.834 384.771 153.834C384.771 153.834 385.229 151.164 384.151 151.977Z" fill="#481B9C"/>
<path d="M380.663 155.556C380.836 155.364 381.01 155.174 381.184 154.986C380.985 155.152 380.809 155.342 380.663 155.556Z" fill="#481B9C"/>
<path d="M455.179 287.652C454.663 287 449.235 280.696 448.771 279.999L441.686 269.923L433.111 278.498L443.895 288.702L446.822 291.47C447.511 292.124 447.951 292.998 448.067 293.942C448.183 294.886 447.965 295.84 447.455 296.641C445.279 300.443 441.215 302.814 441.193 306.952C441.229 307.24 441.342 307.512 441.519 307.742C441.697 307.972 441.932 308.149 442.202 308.256C442.472 308.363 442.765 308.396 443.051 308.352C443.339 308.307 443.607 308.186 443.832 308.001L460.968 293.919L460.952 293.881C460.427 292.687 456.257 289.3 455.179 287.652Z" fill="#E4E4E4"/>
<path d="M455.179 287.652C454.663 287 449.235 280.696 448.771 279.999L441.686 269.923L433.111 278.498L443.895 288.702C445.277 288.059 447.735 286.891 448.587 286.297C449.688 285.534 453.269 292.734 460.957 293.882C460.427 292.687 456.257 289.3 455.179 287.652Z" fill="#B28AFC"/>
<path d="M455.181 287.652C451.383 292.126 448.003 293.549 448.003 293.549C440.367 300.515 440.298 305.087 441.164 307.481C441.255 307.719 441.399 307.932 441.588 308.103C441.776 308.271 442.003 308.394 442.247 308.459C442.493 308.523 442.751 308.528 442.999 308.472C443.247 308.418 443.477 308.304 443.673 308.141L460.983 293.922C460.847 293.18 460.562 292.473 460.148 291.843C458.501 289.258 455.181 287.652 455.181 287.652Z" fill="#30175F"/>
<path d="M441.149 307.445C441.235 307.688 441.378 307.905 441.564 308.081C441.753 308.256 441.979 308.383 442.227 308.452C442.473 308.519 442.734 308.528 442.984 308.474C443.236 308.419 443.47 308.305 443.667 308.142L460.979 293.924C460.841 293.181 460.559 292.475 460.142 291.845L441.149 307.445Z" fill="#4D2F86"/>
<path d="M393.977 299.053C394.063 297.425 394.231 294.714 394.296 294.1L394.533 280.642L383.273 281.838L385.003 295.806L385.258 297.865C385.372 298.787 385.16 299.72 384.662 300.502C384.162 301.287 383.407 301.872 382.523 302.158C378.522 303.672 373.985 302.933 371.399 306.041C371.246 306.28 371.161 306.557 371.152 306.84C371.143 307.123 371.21 307.403 371.346 307.651C371.482 307.9 371.683 308.108 371.927 308.251C372.17 308.396 372.449 308.472 372.732 308.472L394.407 308.506C394.778 307.353 393.718 302.111 393.93 300.18C393.93 299.983 393.948 299.573 393.977 299.053Z" fill="#E4E4E4"/>
<path d="M384.999 295.806C387.196 296.837 391.157 298.809 393.974 299.053C394.059 297.425 394.226 294.714 394.293 294.1L394.53 280.642L383.27 281.838L384.999 295.806Z" fill="#B28AFC"/>
<path d="M384.853 300.166C374.764 300.677 371.873 304.074 371.04 306.42C370.96 306.654 370.937 306.904 370.975 307.148C371.011 307.394 371.105 307.626 371.25 307.827C371.395 308.028 371.585 308.191 371.806 308.304C372.025 308.416 372.27 308.474 372.518 308.472L394.401 308.507C394.762 307.862 394.986 307.152 395.064 306.416C395.432 303.448 393.927 300.175 393.927 300.175C388.283 301.187 384.853 300.166 384.853 300.166Z" fill="#30175F"/>
<path d="M372.521 308.472L394.407 308.506C394.765 307.862 394.99 307.152 395.068 306.416L371.056 306.38C370.969 306.615 370.942 306.867 370.973 307.117C371.005 307.365 371.098 307.603 371.243 307.809C371.386 308.016 371.578 308.182 371.8 308.298C372.023 308.414 372.271 308.474 372.521 308.472Z" fill="#4D2F86"/>
<path d="M446.242 260.782C442.551 254.72 437.913 245.457 433.852 234.552C422.443 203.9 417.014 194.996 417.014 194.996C417.014 194.996 385.899 182.933 380.214 194.222C377.14 203.923 375.352 215.908 374.503 228.149C373.322 245.037 373.916 262.41 375.35 274.939C375.564 276.793 375.794 278.541 376.04 280.166C376.04 280.18 376.04 280.197 376.04 280.211C376.301 282.162 376.481 283.241 376.488 283.287L377.618 291.955C380.08 292.759 382.61 293.33 385.176 293.658L385.233 293.665C389.811 294.263 394.577 294.163 398.551 293.176C399.369 292.977 400.173 292.727 400.96 292.428C400.217 289.861 398.493 278.005 398.025 274.406C398.018 274.334 398.007 274.267 397.998 274.187L397.976 274.02C396.955 265.906 396.584 256.788 396.681 248.235C396.81 236.763 397.783 226.305 399.163 220.648C399.163 220.632 399.172 220.616 399.175 220.6C399.561 219.026 399.98 217.828 400.422 217.089L400.429 217.075C400.432 217.069 400.436 217.064 400.438 217.059C400.614 217.529 411.954 247.819 424.107 272.789C425.006 274.638 425.911 276.411 426.817 278.103C427.373 279.146 433.614 290.405 434.174 291.367C434.174 291.367 438.896 289.24 444.103 286.86L445.962 286.009C450.05 284.136 453.507 279.697 456.681 274.22C456.681 274.22 450.448 266.951 449.157 265.196C448.293 264.01 447.307 262.528 446.242 260.782Z" fill="#695F70"/>
<path d="M375.345 274.94C375.559 276.795 375.791 278.543 376.035 280.168C376.035 280.182 376.035 280.197 376.035 280.213C376.298 282.164 376.475 283.243 376.482 283.287L377.614 291.957C380.074 292.761 382.604 293.33 385.173 293.66C380.601 282.16 375.642 243.316 374.492 228.151C373.316 245.039 373.914 262.41 375.345 274.94Z" fill="#796C83"/>
<path d="M412.463 177.854C412.24 176.911 411.805 175.981 411.298 175.092C410.956 174.493 410.581 173.911 410.217 173.357C409.652 172.194 409.071 171.048 408.467 169.916C402.018 157.673 393.762 147.293 384.764 147.067C384.624 147.067 384.501 147.067 384.369 147.067C383.753 147.07 383.141 147.123 382.534 147.223C381.605 150.276 377.827 157.338 376.149 150.637C375.87 151.713 375.006 153.207 374.929 155C374.86 156.523 371.545 165.348 374.963 179.819C375.479 182.007 377.272 189.948 378.457 195.211C379.089 198.019 379.547 200.064 379.547 200.064C391.099 200.942 408.994 201.652 417.009 194.998C417.534 194.047 414.352 183.991 413.017 179.7C412.722 178.74 412.517 178.07 412.463 177.854Z" fill="#5924BA"/>
<path d="M412.462 177.854C412.24 176.911 411.805 175.981 411.298 175.092C411.298 175.092 411.968 183.616 411.406 187.666C410.847 191.714 406.648 193.273 394.332 195.233C387.011 196.398 381.624 195.847 378.46 195.211C379.094 198.019 379.552 200.064 379.552 200.064C391.102 200.942 408.997 201.652 417.014 194.998C417.538 194.047 414.355 183.991 413.02 179.7C412.721 178.74 412.517 178.07 412.462 177.854ZM388.882 147.605C389.021 147.605 388.751 147.605 388.882 147.605Z" fill="#481B9C"/>
<path d="M411.3 175.096C410.956 174.498 410.581 173.915 410.217 173.361C409.654 172.196 409.07 171.048 408.469 169.916C402.019 157.673 397.879 147.828 388.879 147.605C388.46 149.93 384.977 155.665 389.322 161.156C394.3 167.454 404.026 169.305 408.715 175.204C409.568 176.277 411.155 178.45 413.017 179.7C412.718 178.74 412.513 178.07 412.459 177.854C412.242 176.907 411.813 175.981 411.3 175.096Z" fill="#481B9C"/>
<path d="M397.998 274.189L397.978 274.022C396.956 265.908 396.583 256.788 396.681 248.237C396.676 247.263 396.676 246.301 396.681 245.354C396.779 232.077 398.108 224.548 399.159 220.647C399.159 220.63 399.168 220.612 399.172 220.596C399.787 218.323 400.304 217.298 400.418 217.086L400.425 217.073C400.425 217.073 400.432 217.06 400.434 217.055C400.434 217.055 397.141 215.928 395.214 214.661C395.214 214.661 390.968 257.777 398.541 293.189C399.358 292.988 400.162 292.738 400.95 292.439C400.208 289.872 398.482 278.016 398.016 274.417C398.018 274.334 398.009 274.261 397.998 274.189Z" fill="#4C4353"/>
<path d="M416.842 164.614C410.615 158.559 403.481 153.506 396.294 148.675C390.572 145.053 385.133 153.535 390.77 157.237C395.004 159.91 399.612 162.85 403.776 165.623C405.928 167.077 408.429 168.796 410.481 170.359C413.64 172.868 416.364 176.115 418.86 179.385C420.682 181.808 422.437 184.351 424.073 186.925C425.205 188.548 426.147 191.535 428.682 190.613C432.408 188.776 428.362 184.121 427.607 181.435C424.77 175.418 421.45 169.515 416.842 164.614Z" fill="#B28AFC"/>
<path d="M429.961 186.735C429.961 186.735 428.507 188.023 427.931 188.291C427.353 188.559 425.27 188.908 425.27 188.908C425.27 188.908 424.83 191.219 424.752 191.734C424.419 192.59 423.021 195.626 424.194 196.008C425.205 196.224 425.308 193.73 425.94 193.065C426.884 194.355 427.371 195.907 427.384 195.912C427.54 197.832 427.583 199.761 427.511 201.688C427.469 202.308 428.625 202.339 428.728 201.71C429.076 199.837 429.318 197.945 429.456 196.045L429.49 196.037C430.17 197.934 430.688 199.884 431.039 201.868C433.435 204.186 431.438 196.032 431.325 195.362L431.34 195.353C432.329 197.019 433.082 198.814 433.584 200.685C436.274 202.775 433.446 194.755 433.053 194.128L433.071 194.11C434.066 195.318 434.933 196.626 435.661 198.012C438.492 199.602 434.933 193.19 434.515 192.632C434.287 191.922 429.961 186.735 429.961 186.735Z" fill="#E4E4E4"/>
<path d="M403.731 148.963C395.464 144.998 388.232 145.795 384.747 146.581C383.333 146.904 384.675 148.302 384.675 148.302C384.939 151.975 386.037 152.645 387.104 154.969C389.79 160.809 393.041 163.152 400.556 166.511C405.879 168.889 408.763 172.669 411.298 175.092C413.763 177.461 415.305 179.682 416.696 181.471C418.293 183.495 420.239 185.219 422.439 186.563C423.524 187.222 424.336 187.57 424.586 187.617C427.127 188.073 429.213 184.822 429.213 184.822C429.702 183.752 429.778 182.379 429.514 180.796C427.907 171.164 413.72 153.75 403.731 148.963ZM334.116 176.315C334.116 176.315 332.776 178.789 333.371 181.424C333.511 182.047 334.353 182.736 335.668 183.418C334.261 179.363 336.735 175.038 336.735 175.038C335.487 175.375 334.549 175.793 334.116 176.315Z" fill="#5924BA"/>
<path d="M422.442 186.563C423.527 187.222 424.339 187.57 424.589 187.617C427.13 188.073 429.216 184.822 429.216 184.822C429.706 183.752 429.782 182.379 429.517 180.796C426.721 185.48 422.741 186.242 422.442 186.563Z" fill="#5924BA"/>
<path d="M324.971 176.387C321.43 177.334 318.979 181.263 318.979 181.263C318.979 181.263 323.02 181.254 325.471 181.402C327.92 181.549 332.509 181.283 332.509 181.283C331.99 177.447 333.368 176.277 333.368 176.277C333.368 176.277 328.514 175.44 324.971 176.387Z" fill="#E4E4E4"/>
<path d="M223.656 193.056C223.656 193.056 232.851 180.631 248.225 176.378C248.225 176.378 233.935 175.632 223.656 193.056Z" fill="#B69FC5"/>
<path d="M269.438 145.391C264.598 143.664 261.489 145.343 260.402 147.621C260.402 147.621 253.193 147.867 251.563 153.055C251.563 153.055 250.429 157.498 253.235 161.397C253.235 161.397 251.563 166.09 255.31 168.162L253.284 172.508C253.284 172.508 253.385 180.013 260 181.198C260.433 181.221 260.866 181.158 261.273 181.013C262.171 180.722 263.403 179.988 264.459 178.184C264.959 177.313 265.352 176.385 265.631 175.42C265.631 175.42 271.11 177.742 275.307 171.472C275.307 171.472 278.17 167.029 278.319 161.892C278.319 161.892 281.774 159.916 282.269 157.597C282.762 155.277 274.276 147.119 269.438 145.391Z" fill="#E4E4E4"/>
<path d="M258.848 170.205C258.868 170.345 259.522 174.525 264.466 178.175C264.966 177.304 265.357 176.374 265.638 175.411C265.638 175.411 260.503 173.909 258.848 170.205ZM255.754 162.892C255.754 162.892 256.835 163.352 256.716 164.074C256.716 164.074 255.513 164.275 255.352 165.779C255.352 165.779 256.636 164.656 257.163 164.942C257.69 165.23 257.765 165.945 257.582 166.385C257.582 166.385 258.417 164.801 257.622 163.6C256.826 162.397 255.754 162.892 255.754 162.892Z" fill="#B28AFC"/>
<path d="M268.909 171.013C268.161 170.953 264.743 169.843 264.743 169.843C263.845 169.814 264.604 171.194 265.252 171.837C265.855 172.439 266.601 172.723 268.039 172.422C269.478 172.123 269.659 171.073 268.909 171.013Z" fill="#B260F1"/>
<path d="M270.989 165.163C270.563 165.902 270.204 168.369 270.384 168.702C270.565 169.037 271.615 169.129 272.153 168.659C272.691 168.188 272.014 165.315 272.014 165.315C271.952 164.828 271.414 164.424 270.989 165.163Z" fill="#B28AFC"/>
<path d="M262.614 163.75C262.186 163.75 261.768 163.877 261.415 164.114C261.06 164.351 260.783 164.688 260.62 165.083C260.457 165.478 260.413 165.911 260.496 166.329C260.58 166.75 260.784 167.134 261.087 167.434C261.389 167.737 261.773 167.943 262.192 168.026C262.61 168.11 263.045 168.066 263.44 167.903C263.833 167.74 264.17 167.463 264.407 167.108C264.644 166.753 264.771 166.337 264.771 165.909C264.771 165.337 264.543 164.788 264.139 164.384C263.733 163.978 263.184 163.752 262.614 163.75Z" fill="#C281F3"/>
<path d="M266.167 162.682C265.959 162.682 265.756 162.743 265.582 162.859C265.41 162.973 265.274 163.138 265.194 163.33C265.115 163.522 265.095 163.734 265.135 163.939C265.176 164.141 265.276 164.33 265.423 164.476C265.571 164.623 265.758 164.725 265.962 164.764C266.165 164.804 266.377 164.784 266.569 164.705C266.761 164.625 266.926 164.491 267.042 164.317C267.158 164.145 267.219 163.94 267.219 163.732C267.219 163.453 267.109 163.187 266.912 162.989C266.714 162.792 266.446 162.682 266.167 162.682ZM274.671 164.507C274.463 164.507 274.258 164.569 274.084 164.685C273.91 164.801 273.776 164.964 273.696 165.157C273.617 165.349 273.595 165.561 273.635 165.766C273.677 165.971 273.776 166.159 273.925 166.306C274.071 166.453 274.26 166.554 274.464 166.594C274.667 166.634 274.879 166.614 275.073 166.534C275.265 166.454 275.43 166.318 275.546 166.145C275.662 165.973 275.723 165.768 275.721 165.56C275.721 165.281 275.611 165.013 275.413 164.815C275.216 164.618 274.95 164.507 274.671 164.507Z" fill="#09072F"/>
<path d="M269.438 145.391C264.598 143.663 261.488 145.342 260.402 147.612C260.402 147.612 253.193 147.86 251.565 153.046C251.565 153.046 250.429 157.49 253.236 161.39C253.236 161.39 257.572 157.653 259.288 162.725C259.288 162.725 262.756 162.131 263.502 155.898C263.502 155.898 267.417 161.788 272.301 161.865C272.301 161.865 272.488 159.702 271.706 158.432C271.706 158.432 274.725 161.118 278.043 160.821C278.043 160.821 277.924 161.517 278.322 161.879C278.322 161.879 280.552 160.606 281.687 158.901C281.963 158.503 282.162 158.055 282.272 157.585C282.769 155.268 274.276 147.119 269.438 145.391Z" fill="#280C3E"/>
<path d="M269.438 145.391C264.598 143.663 261.488 145.342 260.402 147.612C260.402 147.612 253.193 147.86 251.565 153.046C251.565 153.046 250.429 157.49 253.236 161.39C253.236 161.39 255.386 154.98 259.592 153.98C259.592 153.98 257.158 153.094 257.748 151.213C258.339 149.333 261.697 150.807 261.697 150.807C261.697 150.807 263.984 146.71 267.23 147.742C267.23 147.742 265.35 149.624 265.312 150.62C265.312 150.62 270.22 149.735 272.03 151.839C273.64 153.712 279.143 157.84 281.684 158.903C281.959 158.505 282.158 158.059 282.269 157.586C282.769 155.268 274.276 147.119 269.438 145.391Z" fill="#3F1560"/>
<path d="M273.257 160.656C273.133 160.691 273.03 160.771 272.965 160.881C272.901 160.99 272.883 161.12 272.914 161.243C272.945 161.366 273.023 161.473 273.13 161.54C273.238 161.607 273.367 161.629 273.492 161.602C273.617 161.575 274.727 161.361 275.352 162.803C275.388 162.89 275.452 162.964 275.531 163.017C275.611 163.069 275.704 163.096 275.798 163.096C275.865 163.096 275.932 163.082 275.991 163.056C276.111 163.006 276.203 162.91 276.252 162.79C276.299 162.671 276.298 162.537 276.247 162.417C275.468 160.62 273.95 160.479 273.257 160.656ZM265.341 159.41C265.285 159.439 265.236 159.481 265.195 159.53C265.155 159.579 265.124 159.637 265.104 159.698C265.086 159.758 265.081 159.823 265.086 159.887C265.091 159.95 265.111 160.013 265.14 160.07C265.171 160.126 265.211 160.177 265.262 160.216C265.311 160.258 265.369 160.287 265.428 160.307C265.49 160.325 265.555 160.332 265.618 160.325C265.682 160.32 265.743 160.301 265.8 160.271C265.861 160.24 267.279 159.519 268.475 160.664C268.569 160.752 268.694 160.801 268.824 160.8C268.953 160.796 269.076 160.742 269.167 160.649C269.255 160.555 269.304 160.43 269.301 160.301C269.299 160.171 269.245 160.048 269.15 159.959C267.779 158.646 266.06 159.025 265.341 159.41Z" fill="#09072F"/>
<path d="M125.312 296.648C120.111 288.719 115.42 282.964 115.37 282.906L114.831 283.348C114.878 283.406 119.552 289.135 124.734 297.036C133.383 310.225 136.769 319.22 138.087 324.442C140.958 335.825 132.494 363.713 132.409 363.994L133.075 364.197C133.096 364.128 135.253 357.053 137.022 348.653C139.405 337.341 139.99 329.138 138.763 324.27C137.431 318.997 134.017 309.921 125.312 296.648Z" fill="#56267B"/>
<path d="M123.844 283.432L123.257 283.808C123.937 284.953 124.429 286.197 124.714 287.498C125.305 290.26 124.714 292.582 122.952 294.397L123.452 294.882C125.362 292.912 126.032 290.302 125.39 287.331C125.089 285.956 124.567 284.64 123.844 283.432ZM109.639 289.988C108.185 290.633 105.663 290.599 103.971 290.128C104.733 292.341 105.993 294.574 107.843 296.742C109.166 298.289 110.556 299.7 111.827 301.145C114.02 299.593 113.653 297.034 113.653 297.034L109.639 289.988ZM83.875 340.283L84.0449 340.957C84.134 340.935 92.9772 338.691 102.209 335.246C114.673 330.589 121.878 326.061 123.623 321.788L122.978 321.526C118.975 331.321 84.226 340.198 83.875 340.283Z" fill="#56267B"/>
<path d="M137.181 271.669C137.139 271.352 137.092 271.026 137.042 270.693C136.981 270.11 136.959 269.523 136.977 268.936L136.559 268.498C136.559 268.498 134.902 275.125 119.734 276.911C109.145 278.157 105.577 276.857 104.084 275.957C103.99 276.699 103.913 277.36 103.856 277.924C103.717 279.291 103.704 280.077 103.839 280.032C103.839 280.032 115.938 286.254 138.127 281.798C138.127 281.798 138.127 280.963 138.003 279.235C137.888 277.565 137.65 275.06 137.181 271.669ZM95.4839 255.044L113.262 241.641C104.344 242.481 95.4839 255.044 95.4839 255.044Z" fill="#7734F4"/>
<path d="M327.112 181.803C327.041 181.783 326.965 181.794 326.902 181.83C326.838 181.868 326.791 181.928 326.771 182C326.467 183.161 325.313 183.83 324.969 184.007C323.835 183.596 322.509 183.643 321.127 184.139C320.484 184.367 319.874 184.675 319.307 185.056C319.247 185.099 319.206 185.164 319.195 185.239C319.182 185.311 319.198 185.385 319.242 185.445C319.285 185.507 319.351 185.547 319.423 185.559C319.497 185.572 319.572 185.554 319.631 185.51C319.66 185.49 322.372 183.581 324.882 184.569L324.989 184.61L325.094 184.565C325.167 184.532 326.885 183.77 327.311 182.141C327.329 182.071 327.32 181.995 327.282 181.931C327.244 181.866 327.184 181.821 327.112 181.803ZM318.815 181.259C318.461 181.611 317.956 182.529 318.561 183.489C318.584 183.529 318.621 183.563 318.662 183.585C318.704 183.609 318.749 183.619 318.796 183.619C318.849 183.619 318.9 183.605 318.945 183.578C318.976 183.56 319.003 183.534 319.025 183.504C319.045 183.475 319.061 183.44 319.068 183.404C319.077 183.37 319.077 183.331 319.072 183.295C319.064 183.259 319.052 183.225 319.032 183.194C318.516 182.368 319.171 181.678 319.208 181.647C319.26 181.594 319.289 181.524 319.289 181.45C319.289 181.377 319.26 181.305 319.208 181.252C319.155 181.201 319.084 181.171 319.01 181.171C318.938 181.171 318.867 181.201 318.815 181.252V181.259Z" fill="#B28AFC"/>
<path d="M325.96 181.205C325.926 181.189 325.889 181.182 325.853 181.18C325.817 181.178 325.781 181.185 325.746 181.198C325.712 181.211 325.679 181.23 325.654 181.256C325.627 181.279 325.605 181.31 325.591 181.343C325.44 181.665 325.205 181.942 324.911 182.141C324.616 182.341 324.274 182.455 323.919 182.475C323.845 182.475 323.774 182.504 323.721 182.556C323.669 182.609 323.64 182.679 323.64 182.754C323.64 182.828 323.669 182.899 323.721 182.951C323.774 183.004 323.845 183.033 323.919 183.033C323.98 183.033 325.435 182.991 326.08 181.575C326.112 181.509 326.118 181.433 326.096 181.364C326.072 181.296 326.023 181.238 325.96 181.205ZM192.135 217.249C189.767 219.248 187.565 219.274 187.538 219.274C187.463 219.274 187.393 219.303 187.34 219.355C187.288 219.408 187.259 219.478 187.259 219.553C187.259 219.627 187.288 219.698 187.34 219.75C187.393 219.803 187.463 219.832 187.538 219.832C187.666 219.832 189.972 219.801 192.488 217.673C192.52 217.651 192.549 217.624 192.573 217.589C192.595 217.557 192.609 217.519 192.615 217.479C192.62 217.439 192.618 217.399 192.606 217.359C192.595 217.321 192.577 217.287 192.549 217.256C192.524 217.225 192.491 217.202 192.455 217.184C192.419 217.167 192.379 217.158 192.339 217.158C192.299 217.158 192.26 217.167 192.223 217.184C192.187 217.2 192.155 217.225 192.127 217.254L192.135 217.249Z" fill="#B28AFC"/>
<path d="M273.658 218.345C269.835 222.922 248.766 226.243 244.894 224.631C241.023 223.018 248.545 224.023 250.913 221.547C253.278 219.073 246.022 219.536 241.289 219.645C236.558 219.754 235.939 206.591 235.939 206.591C235.486 216.696 235.104 227.133 235.104 227.133C263.646 231.905 274.453 221.491 274.453 221.491C274.136 220.42 273.874 219.373 273.656 218.343L273.658 218.345Z" fill="#49356D"/>
<path d="M246.37 228.319C246.349 228.401 244.233 236.694 244.603 246.678C244.921 255.363 245.287 303.087 242.072 317.023L242.614 317.148C245.841 303.16 245.479 255.354 245.159 246.656C244.795 236.765 246.89 228.544 246.91 228.459L246.37 228.319ZM266.993 226.229C267.044 228.734 266.908 231.239 266.586 233.724C266.006 237.973 264.892 240.625 263.349 241.449C263.398 239.672 263.564 232.838 263.336 227.796L262.778 227.819C263.041 233.608 262.778 241.78 262.778 241.862L262.766 242.26L263.142 242.135C267.96 240.556 267.556 226.341 267.551 226.196L266.993 226.229Z" fill="#AA8DDF"/>
<path d="M397.287 200.544L400.021 216.629C393.534 215.32 393.592 200.77 393.593 200.62L392.896 200.612C392.896 200.651 392.871 204.621 393.749 208.627C394.937 214.043 397.241 217.073 400.411 217.392L400.864 217.437L397.973 200.428L397.287 200.544ZM439.537 256.491C433.452 244.955 428.168 233.293 426.39 227.47C422.702 215.392 414.236 197.073 414.151 196.89L413.519 197.182C413.604 197.367 422.05 215.642 425.725 227.672C429.36 239.578 447.961 276.167 453.323 278.806L453.631 278.179C451.421 277.096 446.018 268.784 439.537 256.491Z" fill="#877B91"/>
<path d="M400.449 217.051C400.625 217.522 411.965 247.812 424.119 272.782C425.017 274.631 425.921 276.404 426.826 278.096C427.384 279.139 433.626 290.398 434.185 291.359C434.185 291.359 438.907 289.233 444.115 286.853C440.298 280.967 435.236 273.828 432.043 270.099C427.591 264.895 400.759 217.678 400.449 217.051Z" fill="#4C4353"/>
<path d="M392.503 150.637C407.87 154.893 417.071 167.316 417.071 167.316C406.795 149.892 392.503 150.637 392.503 150.637Z" fill="#814FDE"/>
<path d="M249.542 235.028C248.225 235.642 246.802 235.99 245.353 236.049V236.607C246.878 236.551 248.377 236.189 249.761 235.542C251.84 234.566 254.436 232.467 254.988 228.044L254.432 227.975C254.018 231.315 252.371 233.689 249.542 235.028Z" fill="#AA8DDF"/>
<path d="M391.229 127.413C390.449 123.139 382.977 121.538 382.977 121.538C382.977 121.538 377.752 116.823 370.248 119.788C362.746 122.753 362.286 126.464 363.235 129.415C364.168 132.319 365.76 133.353 365.81 133.383C365.81 133.383 365.83 133.704 365.885 134.24C365.979 135.199 366.164 136.851 366.504 138.623C366.725 139.864 367.029 141.088 367.415 142.287C367.565 142.751 367.739 143.203 367.937 143.647C369.578 147.27 373.994 147.244 374.129 147.242L374.789 151.292C374.789 151.292 375.207 153.457 380.501 152.488C385.796 151.519 386.004 146.728 385.935 145.969C385.866 145.21 385.082 142.397 385.082 142.397C385.082 142.397 388.13 142.569 389.76 139.728C389.76 139.728 390.597 138.38 389.708 136.663C389.581 136.422 389.433 136.192 389.266 135.976C389.266 135.976 392.01 131.689 391.229 127.413Z" fill="#E4E4E4"/>
<path d="M391.229 127.413C390.449 123.139 382.977 121.538 382.977 121.538C382.977 121.538 377.752 116.823 370.248 119.788C362.746 122.753 362.286 126.463 363.235 129.415C364.168 132.32 365.76 133.353 365.81 133.383C365.81 133.383 365.832 133.704 365.886 134.24C367.024 134.568 367.977 133.918 369.136 133.355C370.969 132.464 370.098 131.307 371.672 132.906C373.244 134.504 376.23 132.115 377.002 131.42C377.772 130.725 382.66 132.244 384.01 135.204C384.473 136.22 385.951 135.994 387.221 135.948C388.375 135.907 389.351 136.088 389.266 135.98C389.266 135.98 392.01 131.689 391.229 127.413ZM374.137 147.242L374.794 151.292C376.571 150.394 379.264 148.507 380.193 145.006C380.193 145.002 378.681 146.835 374.137 147.242ZM387.692 137.067C384.642 136.364 384.435 139.847 384.435 139.847C384.751 139.351 385.158 138.92 385.636 138.577C386.471 137.949 387.067 139.461 387.067 139.461C387.216 138.169 386.051 137.944 386.051 137.944C386.437 137.215 387.692 137.067 387.692 137.067Z" fill="#B28AFC"/>
<path d="M379.844 137.272C379.444 137.395 379.089 137.634 378.826 137.959C378.562 138.284 378.399 138.68 378.359 139.097C378.321 139.514 378.406 139.933 378.604 140.302C378.803 140.67 379.107 140.972 379.477 141.168C379.848 141.363 380.266 141.445 380.683 141.403C381.1 141.36 381.494 141.195 381.819 140.928C382.141 140.661 382.376 140.304 382.496 139.903C382.617 139.502 382.616 139.074 382.492 138.673C382.411 138.408 382.277 138.16 382.099 137.946C381.924 137.731 381.704 137.554 381.46 137.424C381.214 137.294 380.944 137.213 380.667 137.187C380.39 137.161 380.111 137.19 379.844 137.272ZM366.506 138.623C366.727 139.864 367.033 141.088 367.417 142.287C367.713 142.032 367.932 141.698 368.05 141.327C368.167 140.953 368.18 140.555 368.086 140.176C367.992 139.797 367.794 139.451 367.515 139.177C367.236 138.903 366.887 138.711 366.506 138.623Z" fill="#C281F3"/>
<path d="M377.118 135.628C376.954 135.679 376.807 135.777 376.698 135.912C376.588 136.046 376.521 136.209 376.504 136.382C376.488 136.554 376.524 136.727 376.606 136.879C376.687 137.032 376.814 137.156 376.966 137.237C377.12 137.318 377.292 137.352 377.464 137.335C377.636 137.317 377.799 137.249 377.933 137.139C378.067 137.028 378.165 136.881 378.214 136.715C378.263 136.55 378.263 136.373 378.212 136.207C378.18 136.097 378.124 135.995 378.051 135.907C377.977 135.818 377.888 135.745 377.787 135.691C377.683 135.637 377.573 135.604 377.459 135.593C377.345 135.582 377.229 135.594 377.118 135.628ZM369.565 136.595C369.393 136.647 369.243 136.749 369.131 136.888C369.017 137.026 368.948 137.195 368.932 137.373C368.915 137.55 368.951 137.729 369.035 137.886C369.12 138.043 369.25 138.172 369.408 138.256C369.565 138.339 369.745 138.374 369.922 138.356C370.1 138.338 370.268 138.267 370.406 138.153C370.544 138.04 370.643 137.888 370.696 137.717C370.746 137.546 370.746 137.363 370.694 137.193C370.658 137.079 370.602 136.974 370.525 136.882C370.451 136.791 370.357 136.715 370.252 136.66C370.149 136.604 370.033 136.57 369.915 136.559C369.797 136.548 369.678 136.56 369.565 136.595Z" fill="#09072F"/>
<path d="M375.961 142.327C374.697 142.982 373.575 142.821 372.824 142.885C372.338 142.926 372.172 143.441 372.385 143.875C372.773 144.678 373.907 145.261 375.057 144.94C376.109 144.647 376.667 144.031 376.794 143.071C376.861 142.559 376.423 142.086 375.961 142.327Z" fill="#B260F1"/>
<path d="M372.661 136.829C372.661 136.829 371.684 139.27 372.163 140.652C372.641 142.033 374.563 141.139 374.776 140.839C374.988 140.539 373.66 136.847 373.66 136.847C373.66 136.847 373.219 136.173 372.661 136.829Z" fill="#B28AFC"/>
<path d="M377.169 131.912C375.519 132.004 375.218 133.22 375.207 133.272C375.178 133.398 375.2 133.532 375.267 133.642C375.336 133.753 375.444 133.832 375.571 133.863C375.607 133.871 375.645 133.875 375.683 133.875C375.792 133.875 375.899 133.839 375.984 133.771C376.069 133.703 376.131 133.608 376.154 133.502C376.171 133.445 376.339 132.935 377.223 132.886C377.448 132.875 377.672 132.93 377.866 133.045C378.06 133.159 378.216 133.328 378.315 133.53C378.341 133.591 378.377 133.647 378.426 133.694C378.473 133.741 378.529 133.778 378.59 133.802C378.652 133.826 378.719 133.837 378.786 133.835C378.851 133.833 378.917 133.817 378.978 133.788C379.038 133.76 379.09 133.719 379.136 133.669C379.179 133.619 379.212 133.56 379.232 133.497C379.253 133.434 379.259 133.367 379.253 133.3C379.246 133.234 379.226 133.17 379.195 133.112C379.011 132.736 378.721 132.422 378.362 132.208C378.002 131.995 377.587 131.892 377.169 131.912ZM369.627 133.209C368.406 133.395 368.038 134.253 368.015 134.681L368.502 134.708L368.987 134.747C368.996 134.671 369.076 134.279 369.773 134.173C370.003 134.13 370.239 134.147 370.46 134.224C370.679 134.301 370.875 134.435 371.027 134.612C371.061 134.67 371.106 134.72 371.163 134.759C371.217 134.799 371.279 134.826 371.344 134.841C371.409 134.855 371.478 134.855 371.543 134.842C371.61 134.829 371.672 134.802 371.726 134.764C371.782 134.725 371.827 134.676 371.864 134.618C371.898 134.561 371.921 134.497 371.931 134.431C371.94 134.364 371.934 134.296 371.916 134.232C371.898 134.167 371.867 134.107 371.824 134.055C371.568 133.728 371.23 133.477 370.842 133.328C370.456 133.179 370.036 133.138 369.627 133.209Z" fill="#09072F"/>
<path d="M382.977 121.538C382.977 121.538 377.752 116.823 370.248 119.786C362.746 122.75 362.286 126.463 363.235 129.415C363.494 130.247 363.865 131.04 364.338 131.773C365.077 132.908 365.776 133.362 365.81 133.383C368.227 133.566 371.186 131.277 371.186 131.277C371.186 131.277 372.246 132.605 373.677 132.696C375.107 132.788 378.049 129.58 378.049 129.58C378.078 130.634 379.081 131.211 381.023 131.378C382.965 131.546 384.736 135.767 384.736 135.767C387.962 134.931 389.266 135.98 389.266 135.98C389.927 134.877 390.45 133.695 390.82 132.462C391.267 130.985 391.555 129.197 391.229 127.41C390.449 123.139 382.977 121.538 382.977 121.538Z" fill="#280C3E"/>
<path d="M382.977 121.538C382.977 121.538 377.752 116.823 370.248 119.786C362.746 122.75 362.286 126.463 363.235 129.415C363.494 130.247 363.865 131.04 364.338 131.773C365.537 131.215 365.848 129.112 366.908 126.942C368.286 124.114 374.07 123.571 374.205 123.558C374.177 123.547 373.829 123.373 373.677 121.839C373.521 120.238 379.799 121.017 381.2 122.627C382.602 124.238 381.166 126.718 380.664 128.404C380.163 130.09 384.098 130.251 385.028 130.396C385.959 130.541 384.799 129.093 384.348 128.133C383.897 127.174 384.455 125.549 386.929 126.829C388.487 127.635 389.949 130.452 390.829 132.465C391.276 130.988 391.566 129.199 391.24 127.413C390.449 123.139 382.977 121.538 382.977 121.538Z" fill="#3F1560"/>
<path d="M139.413 230.248L131.348 229.294L126.397 238.056L134.944 240.058C135.573 240.212 136.235 240.172 136.841 239.942C140.652 238.446 139.266 230.549 139.413 230.248Z" fill="#59188B"/>
<path d="M129.684 208.455C128.308 208.218 126.898 208.053 125.505 208.109C124.754 208.136 124.007 208.238 123.276 208.412C115.073 210.415 112.269 215.86 110.412 222.471C109.008 227.461 108.14 233.113 105.889 238.453L106 238.41C105.952 238.571 101.911 251.958 113.276 257.127C114.327 257.138 115.452 257.118 116.663 257.064H116.73C121.004 256.87 119.935 254.084 120.561 249.851C121.335 244.673 120.422 238.707 121.601 238.411L134.447 230.458L142.331 221.141C143.028 219.721 141.708 215.251 140.718 214.061C137.995 210.799 133.83 209.171 129.684 208.455Z" fill="#7526B2"/>
<path d="M124.609 221.965C124.609 221.965 120.29 219.319 116.966 224.367C115.765 226.205 115.199 228.388 115.356 230.578C115.535 233.206 115.464 237.372 113.333 238.127C109.464 239.502 110.844 252.477 116.652 257.063H116.719C120.995 256.87 119.924 253.044 120.551 248.813C121.324 243.633 122.487 237.667 123.67 237.372L134.436 230.458C131.677 226.136 128.098 222.59 124.609 221.965Z" fill="#59188B"/>
<path d="M139.659 228.026L139.092 228.638C139.748 229.245 140.17 230.062 140.283 230.947C140.397 231.833 140.195 232.731 139.713 233.483C139.231 234.235 138.499 234.793 137.646 235.059C136.794 235.325 135.875 235.282 135.051 234.939C134.226 234.595 133.549 233.972 133.138 233.179C132.728 232.385 132.609 231.473 132.804 230.601C132.999 229.73 133.494 228.955 134.204 228.412C134.913 227.87 135.791 227.593 136.683 227.633L136.722 226.798C135.573 226.747 134.446 227.127 133.561 227.861C132.676 228.596 132.095 229.632 131.932 230.772C131.768 231.909 132.034 233.068 132.677 234.023C133.32 234.975 134.294 235.656 135.411 235.932C135.775 236.022 136.15 236.069 136.525 236.071C137.457 236.069 138.367 235.787 139.136 235.262C139.905 234.735 140.498 233.988 140.836 233.121C141.175 232.253 141.244 231.302 141.035 230.395C140.826 229.487 140.348 228.663 139.663 228.031L139.659 228.026Z" fill="#B14EFD"/>
<path d="M140.457 216.403C140.353 216.562 139.958 216.707 138.574 216.314C136.385 215.691 134.739 213.318 132.235 215.773L132.062 215.939C131.271 216.696 130.6 217.571 130.073 218.529C129.662 219.317 129.178 220.063 128.628 220.759C128.193 221.288 127.668 221.775 127.016 221.987C126.364 222.199 124.761 222.014 124.61 221.958C123.814 221.674 121.833 221.217 120.806 223.286C119.768 225.376 122.563 226.81 123.747 227.307C123.917 227.379 124.071 227.486 124.2 227.618C124.329 227.75 124.43 227.908 124.498 228.08C124.934 229.156 126.823 231.829 125.752 234.021C125.039 235.484 124.289 236.694 123.712 237.643C122.628 239.436 133.036 241.639 133.166 239.786C133.354 237.109 133.779 233.423 134.698 233.206C138.053 232.42 140.542 232.465 141.664 228.792C141.939 227.837 142.117 226.857 142.195 225.867C142.253 225.235 142.292 224.539 142.311 223.776C142.381 220.949 141.869 218.901 141.088 217.423C140.904 217.068 140.693 216.727 140.457 216.403Z" fill="#E4E4E4"/>
<path d="M138.574 216.314C136.385 215.691 134.738 213.318 132.235 215.773L132.062 215.939C131.271 216.696 130.6 217.571 130.072 218.529C129.662 219.317 129.178 220.063 128.628 220.759C128.193 221.288 127.668 221.775 127.016 221.987C126.364 222.199 124.761 222.014 124.609 221.958C129.579 223.938 130.343 218.316 133.329 216.178C134.535 215.314 136.263 216.457 138.408 217.14C139.761 217.566 140.611 217.649 141.097 217.417C140.911 217.06 140.696 216.716 140.456 216.392C140.353 216.562 139.958 216.707 138.574 216.314Z" fill="#B28AFC"/>
<path d="M123.392 225.575L122.824 226.189C123.48 226.794 123.901 227.611 124.015 228.497C124.128 229.382 123.926 230.281 123.444 231.032C122.961 231.782 122.23 232.34 121.378 232.606C120.526 232.873 119.607 232.829 118.783 232.487C117.959 232.143 117.282 231.52 116.872 230.726C116.461 229.933 116.343 229.022 116.538 228.151C116.733 227.28 117.229 226.504 117.938 225.961C118.647 225.419 119.524 225.144 120.416 225.184L120.454 224.349C119.366 224.3 118.296 224.635 117.431 225.298C116.567 225.959 115.962 226.905 115.725 227.966C115.487 229.029 115.632 230.141 116.132 231.108C116.633 232.076 117.458 232.835 118.463 233.255C119.468 233.673 120.588 233.726 121.627 233.402C122.667 233.077 123.559 232.396 124.147 231.48C124.735 230.565 124.982 229.469 124.844 228.39C124.706 227.31 124.192 226.312 123.392 225.573V225.575Z" fill="#B14EFD"/>
<path d="M121.837 223.539C121.837 223.539 122.851 223.322 123.112 223.594C123.372 223.865 122.655 223.829 122.591 224.429C122.591 224.429 123.009 223.978 123.541 224.103C124.029 224.218 124.237 225.405 124.237 225.405C123.97 221.342 121.837 223.539 121.837 223.539Z" fill="#B28AFC"/>
<path d="M140.845 226.952C140.63 227.604 141.027 228.303 141.681 228.805C141.954 227.85 142.132 226.87 142.209 225.879C141.556 226.003 141.031 226.385 140.845 226.952Z" fill="#C281F3"/>
<path d="M130.292 232.48C129.16 231.726 133.496 238.317 133.574 236.962C133.666 235.388 134.658 233.479 134.658 233.479L134.71 233.226C134.71 233.226 131.426 233.231 130.292 232.48Z" fill="#B28AFC"/>
<path d="M128.306 232.655C127.507 234.441 124.711 238.41 124.711 238.41C127.776 237.866 128.306 232.655 128.306 232.655Z" fill="#EBEBEB"/>
<path d="M137.383 224.305C137.383 224.305 136.687 225.532 136.687 226.649C136.687 227.769 137.269 227.904 137.867 227.736C138.464 227.569 138.767 227.144 138.627 226.526C138.488 225.907 138.149 223.413 137.383 224.305Z" fill="#B28AFC"/>
<path d="M130.969 227.225C131.635 226.359 131.473 225.12 130.609 224.454C129.744 223.789 128.504 223.95 127.838 224.814C127.172 225.678 127.334 226.919 128.198 227.585C129.063 228.25 130.303 228.089 130.969 227.225Z" fill="#C281F3"/>
<path d="M140.08 223.197C139.92 223.163 139.754 223.177 139.602 223.237C139.45 223.297 139.319 223.4 139.226 223.534C139.134 223.67 139.083 223.827 139.08 223.992C139.078 224.155 139.124 224.315 139.213 224.452C139.302 224.59 139.43 224.697 139.58 224.762C139.73 224.825 139.896 224.843 140.056 224.814C140.217 224.784 140.365 224.708 140.482 224.593C140.598 224.479 140.679 224.333 140.712 224.173C140.757 223.96 140.716 223.737 140.597 223.554C140.479 223.371 140.293 223.242 140.08 223.197ZM133.407 222.031C133.204 221.987 132.993 222.003 132.801 222.081C132.608 222.157 132.442 222.29 132.324 222.46C132.206 222.63 132.141 222.833 132.138 223.039C132.135 223.248 132.193 223.451 132.305 223.626C132.417 223.8 132.578 223.938 132.768 224.019C132.959 224.103 133.169 224.128 133.373 224.092C133.578 224.054 133.766 223.958 133.916 223.815C134.066 223.672 134.169 223.487 134.214 223.284C134.244 223.148 134.247 223.009 134.222 222.873C134.198 222.735 134.147 222.605 134.072 222.489C133.997 222.373 133.899 222.271 133.785 222.194C133.671 222.114 133.543 222.058 133.407 222.031ZM140.468 220.098C139.493 219.794 138.587 220.377 138.549 220.399C138.44 220.467 138.363 220.578 138.336 220.705C138.308 220.831 138.332 220.964 138.402 221.072C138.472 221.181 138.583 221.257 138.709 221.286C138.836 221.313 138.968 221.288 139.076 221.219C139.076 221.219 139.649 220.864 140.176 221.029C140.315 221.071 140.443 221.143 140.55 221.241C140.656 221.339 140.739 221.46 140.79 221.596C140.818 221.701 140.879 221.791 140.964 221.857C141.049 221.922 141.153 221.958 141.26 221.958C141.304 221.958 141.347 221.953 141.387 221.94C141.45 221.924 141.508 221.895 141.559 221.857C141.61 221.817 141.652 221.77 141.684 221.714C141.715 221.659 141.737 221.598 141.744 221.534C141.753 221.471 141.749 221.406 141.731 221.344C141.637 221.051 141.474 220.783 141.253 220.565C141.033 220.35 140.764 220.189 140.468 220.098ZM133.36 218.877C132.284 218.915 131.575 219.785 131.549 219.821C131.471 219.922 131.436 220.049 131.451 220.176C131.466 220.303 131.53 220.419 131.63 220.498C131.729 220.578 131.855 220.616 131.982 220.603C132.109 220.592 132.226 220.531 132.308 220.433C132.308 220.433 132.773 219.875 133.396 219.852C133.542 219.841 133.688 219.872 133.818 219.94C133.947 220.009 134.055 220.112 134.128 220.239C134.183 220.357 134.283 220.448 134.405 220.491C134.527 220.534 134.661 220.527 134.778 220.473C134.895 220.417 134.986 220.317 135.029 220.196C135.073 220.073 135.066 219.939 135.011 219.821C134.857 219.522 134.618 219.272 134.325 219.104C134.032 218.937 133.697 218.857 133.36 218.877Z" fill="#09072F"/>
<path d="M127.029 214.731C126.106 217.531 122.645 219.06 122.645 219.06C125.885 219.718 128.188 217.232 129.984 214.117C131.78 211.002 135.062 212.4 135.062 212.4C131.121 209.133 127.703 212.659 127.029 214.731ZM110.403 222.467C114.879 210.879 124.302 208.7 125.497 208.107C124.746 208.135 123.999 208.234 123.268 208.41C115.063 210.413 112.26 215.86 110.403 222.467Z" fill="#8431C4"/>
<path d="M137.581 228.392C137.581 228.392 136.831 228.678 136.256 228.531C135.68 228.382 135.085 227.819 134.644 227.879C134.202 227.937 133.588 230.219 135.891 230.969C136.379 231.029 136.873 230.924 137.295 230.67C137.716 230.416 138.039 230.027 138.213 229.567C138.213 229.567 138.808 228.18 137.581 228.392Z" fill="#B260F1"/>
<path d="M139.242 443.332C210.368 457.224 360.91 458.046 440.472 435.328C449.626 432.714 456.73 429.691 462.049 426.398H92.0117C102.812 433.439 118.875 439.352 139.242 443.332Z" fill="#AF4DFA"/>
<path d="M442.716 349.748C430.316 342.75 426.382 368.113 431.042 384.301C435.703 400.49 435.569 408.623 435.569 408.623C435.569 408.623 437.789 417.983 438.099 426.404L449.32 426.44C448.659 416.458 449.818 406.846 449.818 406.846V406.837C449.89 406.134 455.027 356.696 442.716 349.748Z" fill="#B449FB"/>
<path d="M487.744 364.986C484.679 363.13 480.106 363.271 475.12 365.727C471.343 367.587 467.328 370.777 463.557 375.434C457.886 382.434 452.762 392.745 449.815 406.84C449.815 406.84 448.655 416.455 449.317 426.435L462.066 426.474C462.066 426.474 466.616 409.463 477.793 395.794C488.972 382.122 496.615 370.369 487.744 364.986Z" fill="#A332EF"/>
<path d="M404.205 372.112C404.205 372.112 397.556 375.089 403.613 390.097C409.67 405.105 422.597 414.143 425.235 426.357L438.097 426.398C437.789 417.978 435.569 408.617 435.569 408.617C435.569 408.617 421.146 366.598 404.205 372.112Z" fill="#D089FF"/>
<path d="M469.866 384.251C465.697 390.364 462.247 396.937 459.586 403.839C454.926 415.832 453.971 425.109 453.962 425.203L454.797 425.284C454.808 425.192 455.757 416.006 460.377 404.117C463.018 397.277 466.438 390.766 470.567 384.709C475.518 377.453 481.583 371.027 488.54 365.669L488.033 365.006C481.087 370.326 474.976 376.801 469.866 384.251Z" fill="#B449FB"/>
<path d="M467.969 387.214L468.405 387.928C476.766 382.807 488.155 381.816 488.269 381.806L488.202 380.971C488.084 380.983 476.501 381.987 467.969 387.214ZM458.081 384.421L457.246 384.408C457.239 386.68 457.347 388.951 457.574 391.211C458.074 396.194 459.048 399.858 460.47 402.101L461.176 401.651C457.938 396.547 458.079 384.541 458.081 384.421ZM465.105 407.551C461.361 408.52 458.713 409.619 457.235 410.816L457.76 411.466C461.086 408.771 470.302 407.297 470.398 407.286L470.269 406.462C470.245 406.46 467.871 406.837 465.105 407.551ZM416.294 385.285C410.118 376.346 404.523 371.831 404.466 371.786L403.945 372.438C403.999 372.483 409.518 376.941 415.626 385.79C419.261 391.075 422.334 396.725 424.796 402.647C427.96 410.278 430.166 418.269 431.367 426.442L432.193 426.319C430.981 418.07 428.753 410.003 425.558 402.303C423.072 396.323 419.965 390.621 416.294 385.285Z" fill="#B449FB"/>
<path d="M427.647 391.679C427.627 391.642 427.612 391.601 427.605 391.559C427.663 392.099 427.11 401.706 426.241 406.143L427.062 406.304C427.572 403.698 427.945 399.514 428.125 397.248C428.235 395.828 428.329 394.406 428.389 393.247C428.482 391.465 428.447 391.4 428.389 391.284L427.647 391.679ZM415.624 408.645L415.45 409.463C415.502 409.474 420.787 410.597 422.506 411.083C424.039 411.515 428.63 413.171 428.675 413.193L428.962 412.407C428.771 412.338 424.298 410.718 422.733 410.278C420.988 409.784 415.841 408.692 415.624 408.645ZM402.746 388.266C402.843 388.266 412.514 388.801 420.393 393.387L420.811 392.664C412.753 387.973 402.883 387.435 402.785 387.43L402.746 388.266ZM414.238 374.285C414.414 376.401 414.758 382.181 414.238 383.506L415.017 383.807C415.705 382.061 415.14 375.01 415.075 374.211L414.238 374.285Z" fill="#B449FB"/>
<path d="M439.506 348.464L438.689 348.645C438.717 348.765 441.357 360.784 442.819 376.301C443.674 385.408 443.962 393.919 443.674 401.599C443.314 411.184 442.048 419.487 439.912 426.279L440.709 426.531C442.866 419.666 444.143 411.285 444.507 401.624C444.797 393.907 444.507 385.357 443.645 376.212C442.185 360.647 439.537 348.584 439.506 348.464Z" fill="#9825E5"/>
<path d="M430.849 357.899L430.201 358.428C431.306 359.732 432.506 360.951 433.792 362.076C436.692 364.633 439.462 366.247 442.021 366.875L442.22 366.066C436.413 364.639 430.9 357.966 430.849 357.899ZM448.703 361.967C448.788 362.561 447.516 367.866 442.792 375.073L443.488 375.531C448.161 368.408 449.715 362.749 449.519 361.802L448.703 361.967ZM431.106 383.36L430.65 384.057C430.72 384.102 437.743 388.737 443.736 396.221L444.388 395.698C438.308 388.109 431.177 383.407 431.106 383.36ZM443.461 405.681L444.298 405.736C444.299 405.752 444.299 405.77 444.298 405.786C444.316 405.714 446.859 397.775 451.001 394.189L450.456 393.557C446.17 397.261 443.482 405.352 443.461 405.681Z" fill="#9825E5"/>
</g>
<defs>
<filter id="filter0_d_303_241" x="34.0747" y="93.8082" width="488.343" height="384.384" filterUnits="userSpaceOnUse" color-interpolation-filters="sRGB">
<feFlood flood-opacity="0" result="BackgroundImageFix"/>
<feColorMatrix in="SourceAlpha" type="matrix" values="0 0 0 0 0 0 0 0 0 0 0 0 0 0 0 0 0 0 127 0" result="hardAlpha"/>
<feOffset/>
<feGaussianBlur stdDeviation="12.5"/>
<feComposite in2="hardAlpha" operator="out"/>
<feColorMatrix type="matrix" values="0 0 0 0 0 0 0 0 0 0 0 0 0 0 0 0 0 0 0.1 0"/>
<feBlend mode="normal" in2="BackgroundImageFix" result="effect1_dropShadow_303_241"/>
<feBlend mode="normal" in="SourceGraphic" in2="effect1_dropShadow_303_241" result="shape"/>
</filter>
</defs>
</svg>
